<?xml version="1.0" encoding="utf-8"?>
<!-- Generator: Adobe Illustrator 23.0.1, SVG Export Plug-In . SVG Version: 6.00 Build 0)  -->
<svg version="1.1" id="图层_1" xmlns="http://www.w3.org/2000/svg" xmlns:xlink="http://www.w3.org/1999/xlink" x="0px" y="0px"
	 viewBox="0 0 117 127" style="enable-background:new 0 0 117 127;" xml:space="preserve">
<style type="text/css">
	.st0{fill-rule:evenodd;clip-rule:evenodd;fill:#FEFEFE;}
	.st1{filter:url(#Adobe_OpacityMaskFilter);}
	.st2{fill-rule:evenodd;clip-rule:evenodd;fill:#FFFFFF;}
	.st3{mask:url(#mask-2_1_);fill-rule:evenodd;clip-rule:evenodd;fill:#FEFEFE;}
	.st4{fill-rule:evenodd;clip-rule:evenodd;fill:#231916;}
	.st5{filter:url(#Adobe_OpacityMaskFilter_1_);}
	.st6{mask:url(#mask-4_1_);fill-rule:evenodd;clip-rule:evenodd;fill:#231916;}
	.st7{filter:url(#Adobe_OpacityMaskFilter_2_);}
	.st8{mask:url(#mask-6_1_);fill-rule:evenodd;clip-rule:evenodd;fill:#231916;}
</style>
<polygon id="Fill-10" class="st0" points="11.1,43.3 3.5,40.3 4.3,38.4 9.3,38.2 9.3,38.1 5.9,34.5 6.6,32.6 14.1,35.7 13.5,37.3 
	8.8,35.4 8.8,35.5 11.7,38.5 11.2,39.6 7.1,39.7 7.1,39.8 11.7,41.7 "/>
<polygon id="Fill-12" class="st0" points="19.4,27.6 16.3,32 9.6,27.4 12.7,23 14,23.8 12,26.7 13.4,27.7 15.3,25 16.5,25.8 
	14.6,28.5 16.1,29.6 18.1,26.7 "/>
<polygon id="Fill-14" class="st0" points="21.9,24.5 16.4,18.5 17.9,17.1 22.5,19.1 22.5,19 21,14.3 22.4,12.9 27.9,18.9 26.6,20.1 
	23.2,16.4 23.2,16.4 24.5,20.4 23.6,21.2 19.8,19.5 19.7,19.6 23.1,23.3 "/>
<path id="Fill-16" class="st0" d="M32.4,14.3l0.9-0.5c0.9-0.5,1.1-1.1,0.8-1.7c-0.3-0.6-0.9-0.7-1.7-0.3l-1.1,0.6L32.4,14.3z
	 M30.7,11.4l0.8-0.5c0.8-0.4,0.9-1,0.6-1.5c-0.3-0.5-0.8-0.6-1.4-0.3l-1,0.6L30.7,11.4z M27.4,9.5l3.1-1.8C31.8,7,33,7.1,33.7,8.2
	c0.5,0.9,0.2,1.7-0.4,2.2l0,0.1c0.8-0.4,1.9-0.3,2.6,0.8c0.7,1.3,0.1,2.6-1.3,3.4l-3.2,1.8L27.4,9.5z"/>
<polygon id="Fill-18" class="st0" points="45.7,10.2 40.5,11.9 38,4.2 43.2,2.5 43.7,4 40.3,5 40.9,6.7 44,5.7 44.4,7.1 41.3,8.1 
	41.9,9.8 45.2,8.7 "/>
<path id="Fill-20" class="st0" d="M52.2,4.7c0.8-0.1,1.2-0.5,1.1-1.3c-0.1-0.8-0.7-1.1-1.4-1l-1.2,0.1L51,4.9L52.2,4.7z M55.4,3.2
	c0.1,1.3-0.7,2.1-1.2,2.4l2,3L54,8.8l-1.7-2.7l-1.1,0.1l0.3,2.9l-1.9,0.2l-0.9-8l3.4-0.4C54.1,0.7,55.2,1.7,55.4,3.2L55.4,3.2z"/>
<g id="编组" transform="translate(59.448649, 0.432811)">
	<g id="Clip-23">
	</g>
	<defs>
		<filter id="Adobe_OpacityMaskFilter" filterUnits="userSpaceOnUse" x="0.2" y="0.2" width="6.8" height="8.4">
			<feColorMatrix  type="matrix" values="1 0 0 0 0  0 1 0 0 0  0 0 1 0 0  0 0 0 1 0"/>
		</filter>
	</defs>
	<mask maskUnits="userSpaceOnUse" x="0.2" y="0.2" width="6.8" height="8.4" id="mask-2_1_">
		<g class="st1">
			<polygon id="path-1_1_" class="st2" points="0.2,0.2 6.9,0.2 6.9,8.6 0.2,8.6 			"/>
		</g>
	</mask>
	<path id="Fill-22" class="st3" d="M2,5.9C2,6.5,2.5,7,3.4,7.1c0.9,0.1,1.4-0.3,1.4-0.8c0-0.5-0.3-0.8-1.1-1L2.6,4.9
		C1.4,4.6,0.5,3.9,0.7,2.4C0.8,0.8,2.2,0.1,4,0.2C6,0.4,7,1.6,6.9,3L5.1,2.8c0-0.5-0.4-1-1.2-1.1C3.1,1.6,2.7,1.9,2.6,2.5
		c0,0.4,0.3,0.7,1,0.9l1.1,0.3c1.1,0.3,2.1,1,2,2.5C6.6,7.9,5.3,8.8,3.2,8.6c-2.5-0.2-3.1-1.6-3-2.8L2,5.9z"/>
</g>
<polygon id="Fill-24" class="st0" points="79.7,13.5 74.7,11.4 77.9,4 82.9,6.1 82.3,7.5 79,6.2 78.4,7.8 81.4,9 80.8,10.4 
	77.8,9.1 77.1,10.8 80.3,12.1 "/>
<polygon id="Fill-26" class="st0" points="83.3,15.4 87.9,8.7 89.1,9.6 89.1,15.4 89.2,15.5 91.9,11.5 93.4,12.5 88.8,19.2 
	87.5,18.3 87.6,12.5 87.5,12.5 84.8,16.4 "/>
<path id="Fill-28" class="st0" d="M94.7,21.1c-0.4,0.4-0.5,1-0.1,1.4c0.5,0.5,1,0.4,1.5-0.1l3.9-3.7l1.4,1.4l-3.9,3.7
	c-1.4,1.3-2.9,1.2-4.1-0.1c-1.4-1.4-1-3,0-4L94.7,21.1z"/>
<path id="Fill-30" class="st0" d="M102,28.5c-1.2,0.7-1.4,1.7-0.9,2.5c0.5,0.8,1.4,1,2.6,0.2l0.8-0.5c1.2-0.7,1.5-1.7,1-2.5
	c-0.5-0.8-1.5-1-2.7-0.2L102,28.5z M101.8,26.3c2-1.2,3.9-0.9,5.1,1.1c1.2,1.9,0.7,3.8-1.3,5l-0.8,0.5c-1.9,1.2-3.8,0.8-5.1-1.1
	c-1.2-1.9-0.7-3.8,1.2-5L101.8,26.3z"/>
<polygon id="Fill-32" class="st0" points="103.9,39.8 106.6,38.8 110.6,34.4 111.3,36.4 108.7,39 108.8,39.1 112.4,39.4 113.1,41.4 
	107.3,40.6 104.6,41.6 "/>
<path id="Fill-48" class="st4" d="M58.2,84.7c6.3,0,9.9,4.4,9.9,11.9s-3.6,11.9-9.9,11.9s-9.9-4.4-9.9-11.9S51.9,84.7,58.2,84.7
	 M58.2,109.6c6.8,0,10.9-4.9,10.9-13c0-8.1-4.1-13-10.9-13c-6.8,0-10.9,4.9-10.9,13C47.3,104.8,51.4,109.6,58.2,109.6"/>
<g transform="translate(72.729730, 117.323358)">
	<g id="Clip-51">
	</g>
	<defs>
		<filter id="Adobe_OpacityMaskFilter_1_" filterUnits="userSpaceOnUse" x="0.6" y="0.1" width="4.1" height="9.3">
			<feColorMatrix  type="matrix" values="1 0 0 0 0  0 1 0 0 0  0 0 1 0 0  0 0 0 1 0"/>
		</filter>
	</defs>
	<mask maskUnits="userSpaceOnUse" x="0.6" y="0.1" width="4.1" height="9.3" id="mask-4_1_">
		<g class="st5">
			<polygon id="path-3_1_" class="st2" points="0.6,0.1 4.7,0.1 4.7,9.5 0.6,9.5 			"/>
		</g>
	</mask>
	<path id="Fill-50" class="st6" d="M1.5,0.3C1.3,0.1,1,0.1,0.8,0.2C0.6,0.4,0.5,0.7,0.7,1c2.9,3.7,3,7.9,3,8c0,0.3,0.2,0.5,0.5,0.5
		h0c0.3,0,0.5-0.2,0.5-0.5C4.7,8.8,4.7,4.4,1.5,0.3"/>
</g>
<g transform="translate(38.578378, 111.004950)">
	<g id="Clip-53">
	</g>
	<defs>
		<filter id="Adobe_OpacityMaskFilter_2_" filterUnits="userSpaceOnUse" x="0.4" y="0.2" width="26.9" height="15.6">
			<feColorMatrix  type="matrix" values="1 0 0 0 0  0 1 0 0 0  0 0 1 0 0  0 0 0 1 0"/>
		</filter>
	</defs>
	<mask maskUnits="userSpaceOnUse" x="0.4" y="0.2" width="26.9" height="15.6" id="mask-6_1_">
		<g class="st7">
			<polygon id="path-5_1_" class="st2" points="0.4,0.2 27.3,0.2 27.3,15.8 0.4,15.8 			"/>
		</g>
	</mask>
	<path id="Fill-52" class="st8" d="M26.9,1.1c-2.2-0.6-4.6-0.9-7.3-0.9c-19,0-19.2,14.9-19.2,15.1c0,0.3,0.2,0.5,0.5,0.5h0
		c0.3,0,0.5-0.2,0.5-0.5c0,0,0-3.6,2.3-7c3-4.6,8.4-7,15.9-7c2.6,0,4.9,0.3,7,0.8c0.3,0.1,0.6-0.1,0.6-0.4S27.2,1.2,26.9,1.1"/>
</g>
<path id="Fill-54" class="st4" d="M75.6,114.3l1.7-4.9c0.1-0.2,0-0.3-0.1-0.5c-0.1-0.1-0.3-0.2-0.4-0.2c0,0-3.7,0.6-4.9,0.3
	c-1.7-0.4-2.6-2.8-2.6-2.8c-0.1-0.1-0.3-0.2-0.5-0.2c-0.2,0-0.3,0.2-0.4,0.3l-1.7,4.9c-0.4,1.2-0.3,2.5,0.2,3.6
	c0.6,1.1,1.5,2,2.7,2.3c0.5,0.2,1,0.2,1.5,0.2C73.1,117.5,75,116.2,75.6,114.3"/>
<path id="Fill-56" class="st0" d="M69.4,110.7c-0.3-0.1-0.6,0.1-0.7,0.4c-0.1,0.3,0.1,0.6,0.4,0.7c0.3,0.1,0.6-0.1,0.7-0.4
	C69.9,111.1,69.7,110.8,69.4,110.7"/>
<path id="Fill-58" class="st0" d="M72.4,111.7c-0.3-0.1-0.6,0.1-0.7,0.5c-0.1,0.3,0.1,0.6,0.5,0.7c0.3,0.1,0.6-0.1,0.7-0.5
	C72.9,112.1,72.7,111.8,72.4,111.7"/>
<path id="Fill-60" class="st4" d="M55.1,96.6c0.6,0,1-0.5,1-1c0-0.6-0.5-1-1-1s-1,0.5-1,1C54,96.2,54.5,96.6,55.1,96.6"/>
<path id="Fill-62" class="st4" d="M63.4,96.6c0.6,0,1-0.5,1-1c0-0.6-0.5-1-1-1s-1,0.5-1,1C62.3,96.2,62.8,96.6,63.4,96.6"/>
<path id="Fill-64" class="st0" d="M0.9,57.1c0,0.2-0.2,0.4-0.5,0.4c-0.2,0-0.4-0.2-0.4-0.5c0-0.2,0.2-0.4,0.5-0.4
	C0.7,56.7,0.9,56.9,0.9,57.1"/>
<path id="Fill-66" class="st0" d="M1.1,63.2c0,0.2-0.2,0.5-0.4,0.5c-0.2,0-0.5-0.2-0.5-0.4c0-0.2,0.2-0.5,0.4-0.5
	C0.9,62.7,1.1,62.9,1.1,63.2"/>
<polygon id="Fill-68" class="st0" points="1.1,68.9 4.4,68.2 4.6,69 1.3,69.7 "/>
<path id="Fill-70" class="st0" d="M7.5,80.3l-1.3,0.2l0.3,0.7L7.5,80.3L7.5,80.3z M4.5,80L8,79.6l0.4,0.9l-2.6,2.4l-0.4-0.8L6,81.6
	l-0.4-1l-0.8,0.1L4.5,80z"/>
<polygon id="Fill-72" class="st0" points="8.2,87.4 11,85.6 11.5,86.3 10.3,88.1 10.4,88.1 12.4,87.8 12.9,88.5 10,90.3 9.6,89.7 
	11.4,88.6 11.4,88.5 9.7,88.8 9.4,88.4 10.4,86.9 10.3,86.9 8.6,88 "/>
<path id="Fill-74" class="st0" d="M19.9,97.8l-1.1,0.7l0.5,0.5L19.9,97.8L19.9,97.8z M16.9,98.7L20,97l0.7,0.7l-1.5,3.2l-0.6-0.6
	l0.4-0.7l-0.8-0.7l-0.7,0.4L16.9,98.7z"/>
<polygon id="Fill-76" class="st0" points="24.9,105.4 23.2,104.1 25.2,101.4 25.8,101.9 24.2,104 25.3,104.8 "/>
<polygon id="Fill-78" class="st0" points="29.6,108.3 30.4,104.9 31.2,105.4 30.5,107.6 30.5,107.6 32.1,105.8 32.7,106.1 
	32.1,108.4 32.1,108.4 33.6,106.6 34.3,107 32,109.6 31.3,109.2 31.8,107.1 31.8,107.1 30.3,108.7 "/>
<path id="Fill-80" class="st0" d="M39.4,109.9l-0.8,1.1l0.7,0.3L39.4,109.9L39.4,109.9z M37,111.9l2.2-2.8l0.9,0.3l-0.1,3.5
	l-0.8-0.3l0.1-0.8l-1-0.4l-0.5,0.7L37,111.9z"/>
<polygon id="Fill-82" class="st0" points="45.4,114.4 45.6,113.3 45,110.9 45.9,111.1 46.2,112.5 46.2,112.6 47.1,111.3 48,111.5 
	46.4,113.4 46.2,114.6 "/>
<path id="Fill-84" class="st0" d="M52.9,114.6c0,0.2,0.2,0.4,0.6,0.5c0.4,0,0.6-0.1,0.6-0.3c0-0.2-0.1-0.3-0.5-0.4l-0.5-0.1
	c-0.5-0.1-0.9-0.4-0.8-1c0.1-0.7,0.6-1,1.4-0.9c0.8,0.1,1.3,0.6,1.2,1.1l-0.7-0.1c0-0.2-0.2-0.4-0.5-0.5c-0.3,0-0.5,0.1-0.5,0.3
	c0,0.2,0.1,0.3,0.4,0.4l0.5,0.1c0.5,0.1,0.9,0.4,0.8,1c-0.1,0.7-0.6,1-1.5,1c-1-0.1-1.3-0.7-1.3-1.2L52.9,114.6z"/>
<polygon id="Fill-86" class="st0" points="82.6,110.5 80.3,107.9 81.1,107.5 82.5,109.3 82.5,109.3 82,107 82.6,106.7 84.1,108.5 
	84.1,108.5 83.5,106.3 84.3,105.9 85,109.3 84.3,109.6 82.8,108 82.8,108 83.2,110.2 "/>
<polygon id="Fill-88" class="st0" points="90.1,106.3 88.2,103.5 88.9,103 90.8,105.8 "/>
<polygon id="Fill-90" class="st0" points="95.6,102.2 93.8,100.1 93.1,100.7 92.7,100.2 94.7,98.5 95.2,99 94.5,99.6 96.2,101.7 "/>
<polygon id="Fill-92" class="st0" points="102,96 100.9,95 100.1,96 101.1,96.9 100.6,97.5 98.1,95.2 98.6,94.6 99.6,95.5 
	100.4,94.6 99.4,93.7 100,93.1 102.5,95.3 "/>
<polygon id="Fill-94" class="st0" points="109.2,85.6 108.2,85 105.7,85 106.1,84.2 107.7,84.3 107.7,84.3 106.8,83.1 107.2,82.3 
	108.5,84.3 109.6,84.9 "/>
<path id="Fill-96" class="st0" d="M111,78.2c0.5,0.2,0.9,0.1,1.1-0.3c0.1-0.4,0-0.7-0.6-0.9l-0.4-0.1c-0.5-0.2-0.9-0.1-1.1,0.3
	c-0.1,0.4,0,0.7,0.6,0.9L111,78.2z M110.4,78.9c-0.9-0.3-1.3-1.1-0.9-2c0.3-0.9,1.1-1.2,2-0.9l0.4,0.1c0.9,0.3,1.3,1.1,0.9,2
	c-0.3,0.9-1.1,1.2-2,0.9L110.4,78.9z"/>
<path id="Fill-98" class="st0" d="M113.6,70.6c0.4,0.1,0.7-0.1,0.8-0.4c0.1-0.3-0.1-0.6-0.5-0.7l-2.1-0.5l0.2-0.8l2.2,0.5
	c0.7,0.2,1.1,0.8,0.9,1.6c-0.2,0.9-0.8,1.3-1.5,1.1l-2.2-0.5l0.2-0.8L113.6,70.6z"/>
<path id="Fill-100" class="st0" d="M115.2,63.2c0-0.2,0.2-0.4,0.5-0.4c0.2,0,0.4,0.2,0.4,0.5c0,0.2-0.2,0.4-0.5,0.4
	C115.4,63.6,115.2,63.4,115.2,63.2"/>
<path id="Fill-102" class="st0" d="M115.5,57.2c0-0.2,0.2-0.4,0.4-0.5c0.2,0,0.4,0.2,0.5,0.4c0,0.2-0.2,0.4-0.4,0.5
	C115.7,57.6,115.5,57.4,115.5,57.2"/>
</svg>
