<?xml version="1.0" encoding="UTF-8"?>
<svg width="16px" height="16px" viewBox="0 0 16 16" version="1.1" xmlns="http://www.w3.org/2000/svg" xmlns:xlink="http://www.w3.org/1999/xlink">
    <!-- Generator: Sketch 58 (84663) - https://sketch.com -->
    <title>list-style-type</title>
    <desc>Created with Sketch.</desc>
    <g id="list-style-type" stroke="none" stroke-width="1" fill="none" fill-rule="evenodd">
        <path d="M8,8 C11,8 13,12 13,14 L3,14 C3,12 5,8 8,8 Z M3,4 C4.1045695,4 5,4.8954305 5,6 C5,7.1045695 4.1045695,8 3,8 C1.8954305,8 1,7.1045695 1,6 C1,4.8954305 1.8954305,4 3,4 Z M13,4 C14.1045695,4 15,4.8954305 15,6 C15,7.1045695 14.1045695,8 13,8 C11.8954305,8 11,7.1045695 11,6 C11,4.8954305 11.8954305,4 13,4 Z M8,1 C9.1045695,1 10,1.8954305 10,3 C10,4.1045695 9.1045695,5 8,5 C6.8954305,5 6,4.1045695 6,3 C6,1.8954305 6.8954305,1 8,1 Z" id="形状结合" fill="#FFAB00"></path>
    </g>
</svg>