<?xml version="1.0" encoding="utf-8"?>
<!-- Generator: Adobe Illustrator 23.0.1, SVG Export Plug-In . SVG Version: 6.00 Build 0)  -->
<svg version="1.1" id="图层_1" xmlns="http://www.w3.org/2000/svg" xmlns:xlink="http://www.w3.org/1999/xlink" x="0px" y="0px"
	 viewBox="0 0 200 200" style="enable-background:new 0 0 200 200;" xml:space="preserve">
<style type="text/css">
	.st0{fill:#231815;}
	.st1{fill:#F7D917;}
</style>
<g>
	<path class="st0" d="M169.07,164.34c-4.71,0-8.78,0-8.78-3.22c0-1.31,0.97-2.49,2.08-3.85c1.25-1.53,2.66-3.25,2.66-5.19
		c0-3.32-6.1-12.66-15.54-23.79l-0.71-0.84c-7.37-8.68-7.51-8.85-8.75-13.2l-0.29-0.99c-0.48-1.65-1.87-5.82-4.4-8.91
		c-2.46-3.01-5.28-4.08-8.36-3.19c-1.52,0.44-4.07,1.41-7.3,2.62c-11.5,4.34-30.75,11.6-42.28,10.12c-2.5-0.33-4.75,1.33-5.13,3.76
		c-1.55,9.89-4.39,27.86-5.92,37.11c-0.83,4.98-4.88,8.86-9.86,9.43c-0.73,0.08-1.47,0.13-2.21,0.13c-4.08,0-5.91-1.84-6.27-3.55
		c-0.38-1.81,0.73-3.63,2.76-4.51l0.1-0.04c2.85-1.26,4.73-4.02,4.89-7.2c1.15-21.62,1.56-35.85,1.09-38.06
		c-0.31-1.49-1.15-3.73-2.21-6.56c-1.82-4.87-4.32-11.53-6.01-19.43c-1.83-8.54-5.81-15.93-8.01-19.58
		c-0.76-1.25-2.14-1.96-3.6-1.84l-16.62,1.31c-1.57,0.12-3.07-0.63-3.91-1.97l-0.86-1.38c-1.13-1.81-0.58-4.2,1.23-5.33l6.47-4.06
		c1.3-0.82,2.2-2.16,2.47-3.67l0.32-1.83c0.38-2.14,1.87-3.94,3.9-4.7l5.84-2.19c0.18-0.07,0.31-0.23,0.35-0.42l0.67-3.64l3.24,1.19
		c1.5,0.55,2.81,1.52,3.77,2.79c3.86,5.1,16.56,20.05,25.14,26.79c5.06,3.98,25.01,8.63,33.35,7.78c2.69-0.28,6.85-0.51,11.26-0.76
		c9.25-0.52,21.91-1.24,24.32-2.66c1.1-0.64,2.39-3.08,2.65-6.9c0.14-2.09,0.16-9.23-5.41-13.59l-0.78-0.61l2.22-2.86l0.74,0.39
		c0.15,0.08,14.98,8.23,11.94,30.65c2.02,1.58,9.01,8.03,8.81,21.57c-0.19,12.96,6.36,24.97,12.02,31.32
		c1.4,1.56,2.28,3.53,2.55,5.69l0,0c0.4,3.16,1.25,9.08,2.52,13.3c0.98,3.26,0.21,8.47-1.72,11.61
		C172.3,163.33,170.81,164.34,169.07,164.34z M129.08,98.85c2.87,0,5.54,1.43,7.83,4.23c2.75,3.37,4.25,7.85,4.77,9.61l0.29,1
		c1.12,3.93,1.12,3.93,8.35,12.45l0.71,0.84c3.76,4.43,16.01,19.33,16.01,25.08c0,2.65-1.73,4.76-3.12,6.46
		c-0.8,0.98-1.63,1.99-1.63,2.58c0,1.22,3.29,1.22,6.78,1.22c1,0,1.92-0.68,2.75-2.03c1.64-2.67,2.33-7.24,1.51-9.98
		c-1.24-4.13-2.09-9.69-2.58-13.62c-0.22-1.75-0.93-3.35-2.05-4.61c-5.9-6.62-12.73-19.15-12.53-32.68
		c0.21-14.33-8.35-20.2-8.44-20.26l-0.53-0.35l0.09-0.63c2.69-18.1-6.48-26.23-9.73-28.5c3.57,3.42,5.46,8.68,5.08,14.35
		c-0.27,4.02-1.69,7.35-3.63,8.49c-2.62,1.54-12.11,2.19-25.22,2.93c-4.39,0.25-8.53,0.48-11.17,0.76
		c-8.87,0.91-29.35-3.92-34.79-8.2c-8.72-6.85-21.59-22-25.5-27.16c-0.73-0.96-1.72-1.7-2.86-2.12l-1.01-0.37l-0.24,1.31
		c-0.16,0.88-0.78,1.61-1.61,1.93l-5.84,2.19c-1.37,0.51-2.38,1.73-2.64,3.17l-0.32,1.83c-0.37,2.07-1.6,3.9-3.38,5.02l-6.47,4.06
		c-0.87,0.55-1.14,1.71-0.59,2.58l0.86,1.38c0.44,0.7,1.23,1.11,2.05,1.04l16.62-1.31c2.23-0.17,4.32,0.9,5.47,2.8
		c2.27,3.75,6.37,11.37,8.26,20.2c1.66,7.76,4.13,14.34,5.93,19.15c1.09,2.91,1.95,5.21,2.29,6.85c0.69,3.29-0.36,25.59-1.05,38.58
		c-0.21,3.94-2.54,7.35-6.08,8.92l-0.11,0.05c-1.14,0.5-1.78,1.41-1.6,2.27c0.19,0.91,1.43,1.96,4.31,1.96
		c0.66,0,1.33-0.04,1.98-0.11c4.1-0.47,7.43-3.67,8.12-7.78c1.54-9.24,4.37-27.21,5.92-37.09c0.55-3.5,3.78-5.89,7.36-5.43
		c11.03,1.42,29.99-5.74,41.32-10.01c3.27-1.23,5.85-2.21,7.44-2.67C127.33,98.98,128.21,98.85,129.08,98.85z"/>
	<rect x="68.08" y="37.01" class="st1" width="11.34" height="126.33"/>
	<g>
		<path class="st0" d="M158.98,67.48h-5.74v-1h5.74V67.48z M149.4,67.48h-5.74v-1h5.74V67.48z M139.84,67.48h-5.74v-1h5.74V67.48z
			 M130.27,67.48h-5.74v-1h5.74V67.48z M120.7,67.48h-5.74v-1h5.74V67.48z M111.13,67.48h-5.74v-1h5.74V67.48z M101.56,67.48h-5.74
			v-1h5.74V67.48z M91.99,67.48h-5.74v-1h5.74V67.48z"/>
		<rect x="79.42" y="66.48" class="st0" width="3" height="1"/>
	</g>
	<g>
		<rect x="68.08" y="66.48" class="st0" width="8.11" height="1"/>
		<rect x="68.08" y="68.89" class="st0" width="3.11" height="1"/>
		<rect x="68.08" y="71.3" class="st0" width="3.11" height="1"/>
		<rect x="68.08" y="73.71" class="st0" width="3.11" height="1"/>
		<rect x="68.08" y="76.11" class="st0" width="3.11" height="1"/>
		<rect x="68.08" y="78.52" class="st0" width="6.11" height="1"/>
		<rect x="68.08" y="80.93" class="st0" width="3.11" height="1"/>
		<rect x="68.08" y="83.34" class="st0" width="3.11" height="1"/>
		<rect x="68.08" y="85.75" class="st0" width="3.11" height="1"/>
		<rect x="68.08" y="88.16" class="st0" width="3.11" height="1"/>
		<rect x="68.08" y="90.57" class="st0" width="8.11" height="1"/>
		<rect x="68.08" y="92.98" class="st0" width="3.11" height="1"/>
		<rect x="68.08" y="95.39" class="st0" width="3.11" height="1"/>
		<rect x="68.08" y="97.8" class="st0" width="3.11" height="1"/>
		<rect x="68.08" y="100.2" class="st0" width="3.11" height="1"/>
		<rect x="68.08" y="102.61" class="st0" width="6.11" height="1"/>
		<rect x="68.08" y="105.02" class="st0" width="3.11" height="1"/>
		<rect x="68.08" y="107.43" class="st0" width="3.11" height="1"/>
		<rect x="68.08" y="109.84" class="st0" width="3.11" height="1"/>
		<rect x="68.08" y="112.25" class="st0" width="3.11" height="1"/>
		<rect x="68.08" y="114.66" class="st0" width="8.11" height="1"/>
		<rect x="68.08" y="117.07" class="st0" width="3.11" height="1"/>
		<rect x="68.08" y="119.48" class="st0" width="3.11" height="1"/>
		<rect x="68.08" y="121.88" class="st0" width="3.11" height="1"/>
		<rect x="68.08" y="124.29" class="st0" width="3.11" height="1"/>
		<rect x="68.08" y="126.7" class="st0" width="6.11" height="1"/>
		<rect x="68.08" y="129.11" class="st0" width="3.11" height="1"/>
		<rect x="68.08" y="131.52" class="st0" width="3.11" height="1"/>
		<rect x="68.08" y="133.93" class="st0" width="3.11" height="1"/>
		<rect x="68.08" y="136.34" class="st0" width="3.11" height="1"/>
		<rect x="68.08" y="138.75" class="st0" width="8.11" height="1"/>
		<rect x="68.08" y="141.16" class="st0" width="3.11" height="1"/>
		<rect x="68.08" y="143.57" class="st0" width="3.11" height="1"/>
		<rect x="68.08" y="145.97" class="st0" width="3.11" height="1"/>
		<rect x="68.08" y="148.38" class="st0" width="3.11" height="1"/>
		<rect x="68.08" y="150.79" class="st0" width="6.11" height="1"/>
		<rect x="68.08" y="153.2" class="st0" width="3.11" height="1"/>
		<rect x="68.08" y="155.61" class="st0" width="3.11" height="1"/>
		<rect x="68.08" y="158.02" class="st0" width="3.11" height="1"/>
		<rect x="68.08" y="160.43" class="st0" width="3.11" height="1"/>
		<rect x="68.08" y="162.84" class="st0" width="8.11" height="1"/>
	</g>
	<rect x="16.06" y="162.34" class="st0" width="168.89" height="2"/>
</g>
</svg>
