<svg id="图层_1" data-name="图层 1" xmlns="http://www.w3.org/2000/svg" viewBox="0 0 2080.63 3186.14"><defs><style>.cls-1{fill:#fff100;}.cls-2{fill:#fff;}.cls-3{fill:none;stroke:#040000;stroke-linecap:round;stroke-linejoin:round;stroke-width:8.5px;}.cls-4{font-size:82.55px;}.cls-10,.cls-15,.cls-4{font-family:Futura-Medium, Futura;font-weight:500;}.cls-5{letter-spacing:-0.01em;}.cls-6{letter-spacing:0.01em;}.cls-7{letter-spacing:0em;}.cls-8{letter-spacing:-0.01em;}.cls-9{fill:#040000;}.cls-10{font-size:132.7px;}.cls-11{letter-spacing:0.01em;}.cls-12{letter-spacing:-0.02em;}.cls-13{letter-spacing:0em;}.cls-14{letter-spacing:0.01em;}.cls-15{font-size:253.2px;}.cls-16{letter-spacing:0.01em;}</style></defs><title>ICONS</title><rect class="cls-1" width="2080.63" height="3186.14"/><path class="cls-2" d="M1451.35,1995.88c-16-8-90.2-22.05-146.32-78.18-40.09-40.08-52.12-92.2-52.12-92.2s52.12,12,92.21,52.12c56.12,56.12,70.15,130.28,78.17,146.32C1427.3,2011.91,1439.32,1999.88,1451.35,1995.88Z"/><path class="cls-2" d="M875.91,1907.64c11.33-59.53-51-59.53-51-59.53v-36.85c-28.34,0-36.85,28.34-39.68,34-16.85,0-28.15,25-33.87,58.58-50.54-9-94.34,43-99.36,83.16-5.67,45.35,57.84,59.81,68,17,24.08-109.41,30.4-89.81,25.51,11.34,62.36,39.69,90.71-19.84,82.21-34-4.13-6.88-28.35-17-28.35-17a82.75,82.75,0,0,0-3.29-20.77l37.31,6.6c42.52,5.66,53.85-25.52,53.85-31.19S875.91,1907.64,875.91,1907.64Z"/><circle class="cls-2" cx="1303.94" cy="1346.46" r="36.85"/><circle class="cls-2" cx="683.15" cy="1349.29" r="28.35"/><polygon class="cls-3" points="1380.49 1451.36 1210.41 1451.36 1210.41 1309.62 1295.45 1224.58 1380.49 1309.62 1380.49 1451.36"/><polyline class="cls-3" points="1295.45 1224.58 1352.14 1224.58 1437.18 1309.62 1437.18 1451.36 1380.49 1451.36"/><line class="cls-3" x1="1380.49" y1="1309.62" x2="1437.18" y2="1309.62"/><circle class="cls-3" cx="1295.45" cy="1337.97" r="36.85"/><text class="cls-4" transform="translate(1107.29 1578.49)"><tspan class="cls-5">F</tspan><tspan x="41.24" y="0">os</tspan><tspan class="cls-6" x="124.36" y="0">t</tspan><tspan class="cls-7" x="147.65" y="0">er Ca</tspan><tspan class="cls-8" x="357.02" y="0">r</tspan><tspan x="387.34" y="0">e</tspan></text><text class="cls-4" transform="translate(630.08 1578.49)">Beauty</text><text class="cls-4" transform="translate(1228.81 2145.41)"><tspan class="cls-5">F</tspan><tspan x="41.24" y="0">ood</tspan></text><path class="cls-3" d="M1430,1983.07c-16-8-90.2-22-146.32-78.17-40.09-40.09-52.12-92.2-52.12-92.2s52.12,12,92.21,52.11c56.12,56.12,70.15,130.29,78.17,146.32C1406,1999.11,1418,1987.08,1430,1983.07Z"/><circle class="cls-9" cx="1263.66" cy="1844.77" r="5.67"/><path class="cls-3" d="M728.52,1904.9s-8.5,19.84-22.68,79.37c-10.19,42.81-73.7,28.35-68-17s60.69-105.72,119.06-76.53c28.34,14.17,28.34,53.85,28.34,53.85s24.23,10.14,28.35,17c8.5,14.18-19.84,73.7-82.2,34"/><path class="cls-3" d="M819.23,1930.41c42.52,5.67,53.86-25.51,53.86-31.18s-11.34-11.34-11.34-11.34c11.34-59.53-51-59.53-51-59.53v-36.85c-28.35,0-36.85,28.35-39.69,34-17,0-25.51,25.51-28.35,39.68"/><circle class="cls-9" cx="762.54" cy="1947.42" r="5.67"/><circle class="cls-9" cx="841.91" cy="1879.39" r="5.67"/><text class="cls-4" transform="translate(631.79 2145.41)">Selling</text><path class="cls-3" d="M818.61,1224.58,739.11,1443a22.67,22.67,0,0,1-29.06,13.55h0a22.67,22.67,0,0,1-13.55-29.06h0a22.67,22.67,0,0,1,29.06-13.56l5.33,1.94"/><path class="cls-3" d="M695.12,1224.58,774.62,1443a22.68,22.68,0,0,0,29.07,13.55h0a22.67,22.67,0,0,0,13.55-29.06h0a22.69,22.69,0,0,0-29.07-13.56l-5.32,1.94"/><circle class="cls-3" cx="671.83" cy="1337.97" r="28.35"/><path class="cls-3" d="M660.49,1338a11.34,11.34,0,0,1,11.34-11.34"/><path class="cls-3" d="M756.87,1252.93c28.34-28.35,85,56.69,113.38,28.35"/><path class="cls-3" d="M810.73,1293.76c22.19,14.75,44.72,30.87,59.52,16.06"/><path class="cls-3" d="M756.87,1281.48c10.36-10.36,24.51-5.57,39.68,3.29"/><path class="cls-3" d="M813.56,1324c21.26,14.17,42.52,28.34,56.69,14.17"/><path class="cls-3" d="M756.87,1309.82c8.39-8.39,19.28-6.84,31.18-1.23"/><text class="cls-10" transform="translate(683.29 748.35)"><tspan class="cls-11">f</tspan><tspan x="41.02" y="0">or </tspan><tspan class="cls-12" x="211.37" y="0">y</tspan><tspan class="cls-13" x="280.96" y="0">our p</tspan><tspan class="cls-14" x="603.19" y="0">e</tspan><tspan class="cls-13" x="677.77" y="0">t</tspan></text><text class="cls-15" transform="translate(413.86 561.26)">Main i<tspan class="cls-16" x="738.35" y="0">t</tspan><tspan x="809.81" y="0">ems</tspan></text><path class="cls-3" d="M1411.91,1816.78c-2-38.08-54.11-38.08-38.08,14L1331.61,1873a244.45,244.45,0,0,1,21.1,27l45.17-45.17C1450,1870.9,1450,1818.79,1411.91,1816.78Z"/><path class="cls-3" d="M1318.94,1933.81a243.52,243.52,0,0,1-27-21.1l-42.22,42.22c-52.11-16-52.11,36.08-14,38.09,2,38.08,54.12,38.08,38.08-14Z"/><path d="M253.33,2826.16v20.7h-3.64v-20.7h-5.55v-3.42h14.72v3.42Z"/><path d="M261.44,2820.47H265v12.44a6,6,0,0,1,4.14-1.69,5.37,5.37,0,0,1,4.13,1.67,6.84,6.84,0,0,1,1.31,4.64v9.33H271v-9a4.32,4.32,0,0,0-.64-2.65,2.54,2.54,0,0,0-2.09-.82,2.86,2.86,0,0,0-2.59,1.14,7.85,7.85,0,0,0-.74,4v7.36h-3.51Z"/><path d="M278.45,2825.32a2.29,2.29,0,0,1,3.91-1.6,2.17,2.17,0,0,1,.67,1.61,2.29,2.29,0,0,1-2.28,2.3,2.25,2.25,0,0,1-1.63-.67A2.27,2.27,0,0,1,278.45,2825.32Zm4.05,6.32v15.22H279v-15.22Z"/><path d="M295.8,2834.24l-2.91,1.54c-.46-.93-1-1.4-1.7-1.4a1.18,1.18,0,0,0-.83.32,1.07,1.07,0,0,0-.35.82c0,.58.68,1.16,2,1.73a12.27,12.27,0,0,1,3.76,2.22,3.79,3.79,0,0,1,1,2.74,4.77,4.77,0,0,1-1.63,3.68,5.82,5.82,0,0,1-9.23-2.32l3-1.4a6.82,6.82,0,0,0,.95,1.4,2.21,2.21,0,0,0,1.53.59c1.19,0,1.79-.54,1.79-1.63,0-.62-.46-1.2-1.38-1.75l-1.06-.51-1.08-.52a6.67,6.67,0,0,1-2.16-1.5,3.68,3.68,0,0,1-.79-2.45,4.32,4.32,0,0,1,1.36-3.28,4.73,4.73,0,0,1,3.37-1.3A4.62,4.62,0,0,1,295.8,2834.24Z"/><path d="M309.28,2825.32a2.18,2.18,0,0,1,.67-1.6,2.29,2.29,0,0,1,3.91,1.61,2.25,2.25,0,0,1-.67,1.63,2.21,2.21,0,0,1-1.61.67,2.29,2.29,0,0,1-2.3-2.31Zm4.05,6.32v15.22h-3.52v-15.22Z"/><path d="M326.62,2834.24l-2.9,1.54c-.46-.93-1-1.4-1.71-1.4a1.16,1.16,0,0,0-.82.32,1.07,1.07,0,0,0-.35.82c0,.58.68,1.16,2,1.73a12.22,12.22,0,0,1,3.77,2.22,3.84,3.84,0,0,1,1,2.74,4.77,4.77,0,0,1-1.63,3.68,5.82,5.82,0,0,1-9.23-2.32l3-1.4a6.43,6.43,0,0,0,.95,1.4,2.21,2.21,0,0,0,1.53.59c1.19,0,1.78-.54,1.78-1.63,0-.62-.45-1.2-1.37-1.75l-1.06-.51-1.08-.52a6.67,6.67,0,0,1-2.16-1.5,3.68,3.68,0,0,1-.79-2.45,4.35,4.35,0,0,1,1.35-3.28,4.77,4.77,0,0,1,3.38-1.3A4.6,4.6,0,0,1,326.62,2834.24Z"/><path d="M344.26,2834.92v11.94h-3.51v-11.94h-1.5v-3.28h1.5v-5.57h3.51v5.57H347v3.28Z"/><path d="M350,2820.47h3.52v12.44a6,6,0,0,1,4.14-1.69,5.36,5.36,0,0,1,4.12,1.67c.88,1,1.31,2.52,1.31,4.64v9.33h-3.51v-9a4.31,4.31,0,0,0-.65-2.65,2.52,2.52,0,0,0-2.09-.82,2.86,2.86,0,0,0-2.59,1.14,7.87,7.87,0,0,0-.73,4v7.36H350Z"/><path d="M381.44,2840.08H370.53a4.61,4.61,0,0,0,1.22,3,3.75,3.75,0,0,0,2.76,1.09,3.61,3.61,0,0,0,2.18-.63,8.75,8.75,0,0,0,1.92-2.31l3,1.66a12.13,12.13,0,0,1-1.46,2,7.76,7.76,0,0,1-1.64,1.37,6.58,6.58,0,0,1-1.89.79,9,9,0,0,1-2.2.25,7.17,7.17,0,0,1-5.47-2.19,8.21,8.21,0,0,1-2.06-5.84,8.41,8.41,0,0,1,2-5.85,7.62,7.62,0,0,1,10.65-.06,8.39,8.39,0,0,1,1.94,5.89Zm-3.61-2.87a3.38,3.38,0,0,0-3.55-2.82,3.6,3.6,0,0,0-1.2.2,3.55,3.55,0,0,0-1,.56,3.92,3.92,0,0,0-.79.88,4.66,4.66,0,0,0-.5,1.18Z"/><path d="M404,2834.24l-2.91,1.54c-.46-.93-1-1.4-1.7-1.4a1.2,1.2,0,0,0-.83.32,1.06,1.06,0,0,0-.34.82c0,.58.67,1.16,2,1.73a12.15,12.15,0,0,1,3.76,2.22,3.79,3.79,0,0,1,1,2.74,4.8,4.8,0,0,1-1.62,3.68,5.83,5.83,0,0,1-9.24-2.32l3-1.4a6.73,6.73,0,0,0,1,1.4,2.17,2.17,0,0,0,1.53.59c1.19,0,1.78-.54,1.78-1.63,0-.62-.46-1.2-1.38-1.75l-1.06-.51-1.08-.52a6.5,6.5,0,0,1-2.15-1.5,3.68,3.68,0,0,1-.8-2.45,4.32,4.32,0,0,1,1.36-3.28,4.75,4.75,0,0,1,3.37-1.3A4.62,4.62,0,0,1,404,2834.24Z"/><path d="M411.76,2834.92v11.94h-3.51v-11.94h-1.5v-3.28h1.5v-5.57h3.51v5.57h2.74v3.28Z"/><path d="M416.39,2839.14a7.6,7.6,0,0,1,2.36-5.61,8.32,8.32,0,0,1,11.53,0,7.75,7.75,0,0,1,2.34,5.72,7.67,7.67,0,0,1-2.36,5.73,8.05,8.05,0,0,1-5.82,2.3,7.74,7.74,0,0,1-5.74-2.34A7.91,7.91,0,0,1,416.39,2839.14Zm3.59.07a5.16,5.16,0,0,0,1.22,3.61,4.75,4.75,0,0,0,6.6,0,5.72,5.72,0,0,0,0-7.09,4.3,4.3,0,0,0-3.3-1.35,4.25,4.25,0,0,0-3.27,1.35A4.89,4.89,0,0,0,420,2839.21Z"/><path d="M436.34,2831.64h3.52V2833a6.77,6.77,0,0,1,1.72-1.39,3.93,3.93,0,0,1,1.81-.39,5.66,5.66,0,0,1,2.91.91l-1.61,3.22a3.37,3.37,0,0,0-2-.72q-2.87,0-2.87,4.34v7.89h-3.52Z"/><path d="M454.51,2844l-6.84-12.39h4.08l4.65,8.75,4.35-8.75h4l-12.13,23.5h-4Z"/><path d="M476.26,2839.14a7.6,7.6,0,0,1,2.36-5.61,8.32,8.32,0,0,1,11.53,0,8.14,8.14,0,0,1,0,11.45,8.07,8.07,0,0,1-5.83,2.3,7.73,7.73,0,0,1-5.73-2.34A7.88,7.88,0,0,1,476.26,2839.14Zm3.6.07a5.11,5.11,0,0,0,1.22,3.61,4.73,4.73,0,0,0,6.59,0,5.72,5.72,0,0,0,0-7.09,4.27,4.27,0,0,0-3.3-1.35,4.23,4.23,0,0,0-3.26,1.35A4.85,4.85,0,0,0,479.86,2839.21Z"/><path d="M499.86,2834.92v11.94h-3.53v-11.94h-1.25v-3.28h1.25v-5.87a6.33,6.33,0,0,1,1-4.06,4.88,4.88,0,0,1,4-1.66,6.8,6.8,0,0,1,2.36.55v3.59l-.36-.19a4.52,4.52,0,0,0-1.88-.58,1.26,1.26,0,0,0-1.26.68,6.4,6.4,0,0,0-.33,2.53v5h3.83v3.28Z"/><path d="M514.87,2839.14a7.6,7.6,0,0,1,2.36-5.61,8.32,8.32,0,0,1,11.53,0,8.14,8.14,0,0,1,0,11.45,8.09,8.09,0,0,1-5.83,2.3,7.73,7.73,0,0,1-5.73-2.34A7.88,7.88,0,0,1,514.87,2839.14Zm3.6.07a5.11,5.11,0,0,0,1.22,3.61,4.73,4.73,0,0,0,6.59,0,5.72,5.72,0,0,0,0-7.09,4.27,4.27,0,0,0-3.3-1.35,4.23,4.23,0,0,0-3.26,1.35A4.85,4.85,0,0,0,518.47,2839.21Z"/><path d="M534.83,2831.64h3.53v1.41a5.75,5.75,0,0,1,4.15-1.83,5.26,5.26,0,0,1,4.14,1.67c.86,1,1.29,2.5,1.29,4.64v9.33H544.4v-8.5a5.57,5.57,0,0,0-.62-3.11,2.54,2.54,0,0,0-2.22-.87,2.7,2.7,0,0,0-2.48,1.15,8,8,0,0,0-.72,4v7.34h-3.53Z"/><path d="M566.23,2840.08h-10.9a4.61,4.61,0,0,0,1.22,3,3.73,3.73,0,0,0,2.76,1.09,3.55,3.55,0,0,0,2.17-.63,8.38,8.38,0,0,0,1.92-2.31l3,1.66a12.1,12.1,0,0,1-1.45,2,8,8,0,0,1-1.64,1.37,6.58,6.58,0,0,1-1.89.79,9,9,0,0,1-2.2.25,7.14,7.14,0,0,1-5.47-2.19,8.18,8.18,0,0,1-2.07-5.84,8.46,8.46,0,0,1,2-5.85,6.94,6.94,0,0,1,5.35-2.2,6.85,6.85,0,0,1,5.31,2.14,8.43,8.43,0,0,1,1.94,5.89Zm-3.61-2.87a3.37,3.37,0,0,0-3.54-2.82,3.7,3.7,0,0,0-1.21.2,3.63,3.63,0,0,0-1,.56,3.69,3.69,0,0,0-.79.88,4.33,4.33,0,0,0-.5,1.18Z"/><path d="M591.17,2820.47h3.53v26.39h-3.53v-1.59a6.58,6.58,0,0,1-4.7,2,6.69,6.69,0,0,1-5.19-2.28,8.45,8.45,0,0,1-2-5.81,8.18,8.18,0,0,1,2-5.69,6.57,6.57,0,0,1,9.89-.11Zm-8.34,18.74a5.32,5.32,0,0,0,1.17,3.56,3.82,3.82,0,0,0,3,1.39,4.07,4.07,0,0,0,3.16-1.34,5.81,5.81,0,0,0,0-7.07,4,4,0,0,0-3.13-1.36,3.87,3.87,0,0,0-3,1.38A5.08,5.08,0,0,0,582.83,2839.21Z"/><path d="M610.36,2831.64h3.53v15.22h-3.53v-1.59a6.75,6.75,0,0,1-9.89-.25,8.45,8.45,0,0,1-2.05-5.81,8.2,8.2,0,0,1,2.05-5.71,6.59,6.59,0,0,1,5.12-2.28,6.48,6.48,0,0,1,4.77,2.19Zm-8.35,7.57a5.27,5.27,0,0,0,1.18,3.56,3.82,3.82,0,0,0,3,1.39,4,4,0,0,0,3.15-1.34,5.77,5.77,0,0,0,0-7.07,4,4,0,0,0-3.12-1.36,3.87,3.87,0,0,0-3,1.38A5,5,0,0,0,602,2839.21Z"/><path d="M623.4,2844l-6.84-12.39h4.08l4.66,8.75,4.34-8.75h4l-12.13,23.5h-4Z"/><path d="M649.51,2834.92v11.94H646v-11.94h-1.25v-3.28H646v-5.87a6.4,6.4,0,0,1,1-4.06,4.89,4.89,0,0,1,4-1.66,6.76,6.76,0,0,1,2.36.55v3.59L653,2824a4.48,4.48,0,0,0-1.87-.58,1.28,1.28,0,0,0-1.27.68,6.4,6.4,0,0,0-.33,2.53v5h3.83v3.28Z"/><path d="M655.37,2831.64h3.52V2833a6.77,6.77,0,0,1,1.72-1.39,3.93,3.93,0,0,1,1.81-.39,5.63,5.63,0,0,1,2.91.91l-1.61,3.22a3.37,3.37,0,0,0-2-.72q-2.87,0-2.87,4.34v7.89h-3.52Z"/><path d="M666.34,2839.14a7.6,7.6,0,0,1,2.36-5.61,8.32,8.32,0,0,1,11.53,0,8.14,8.14,0,0,1,0,11.45,8.09,8.09,0,0,1-5.83,2.3,7.77,7.77,0,0,1-5.74-2.34A7.91,7.91,0,0,1,666.34,2839.14Zm3.6.07a5.15,5.15,0,0,0,1.21,3.61,4.33,4.33,0,0,0,3.3,1.34,4.28,4.28,0,0,0,3.3-1.33,5.72,5.72,0,0,0,0-7.09,4.29,4.29,0,0,0-3.3-1.35,4.23,4.23,0,0,0-3.26,1.35A4.85,4.85,0,0,0,669.94,2839.21Z"/><path d="M686.29,2831.64h3.52v1.41a7.57,7.57,0,0,1,1.73-1.44,4.25,4.25,0,0,1,1.93-.39,4.65,4.65,0,0,1,4.07,2.25,5.29,5.29,0,0,1,4.49-2.25q5.15,0,5.14,6.24v9.4h-3.53v-8.45a6.54,6.54,0,0,0-.53-3.09,1.94,1.94,0,0,0-1.8-.93,2.31,2.31,0,0,0-2.12,1.1,7.07,7.07,0,0,0-.66,3.51v7.86H695v-8.4q0-4.07-2.35-4.07a2.34,2.34,0,0,0-2.16,1.11,7,7,0,0,0-.68,3.5v7.86h-3.52Z"/><path d="M732.7,2820.47h3.53v26.39H732.7v-1.59a6.56,6.56,0,0,1-4.7,2,6.7,6.7,0,0,1-5.19-2.28,8.5,8.5,0,0,1-2-5.81,8.23,8.23,0,0,1,2-5.69,6.57,6.57,0,0,1,9.89-.11Zm-8.34,18.74a5.32,5.32,0,0,0,1.17,3.56,3.82,3.82,0,0,0,3,1.39,4.07,4.07,0,0,0,3.16-1.34,5.81,5.81,0,0,0,0-7.07,4,4,0,0,0-3.13-1.36,3.87,3.87,0,0,0-3,1.38A5.08,5.08,0,0,0,724.36,2839.21Z"/><path d="M751.89,2831.64h3.53v15.22h-3.53v-1.59A6.75,6.75,0,0,1,742,2845a8.45,8.45,0,0,1-2-5.81,8.2,8.2,0,0,1,2-5.71,6.59,6.59,0,0,1,5.12-2.28,6.48,6.48,0,0,1,4.77,2.19Zm-8.35,7.57a5.33,5.33,0,0,0,1.18,3.56,3.82,3.82,0,0,0,3,1.39,4,4,0,0,0,3.15-1.34,5.77,5.77,0,0,0,0-7.07,4,4,0,0,0-3.12-1.36,3.87,3.87,0,0,0-3,1.38A5.09,5.09,0,0,0,743.54,2839.21Z"/><path d="M762,2831.64l4,8.69,4.3-10.08,4.32,10.08,3.94-8.69h3.94l-8,16.36-4.23-9.79L766,2848l-7.95-16.36Z"/><path d="M784.9,2831.64h3.54v1.41a5.73,5.73,0,0,1,4.15-1.83,5.26,5.26,0,0,1,4.14,1.67c.86,1,1.28,2.5,1.28,4.64v9.33h-3.53v-8.5a5.66,5.66,0,0,0-.62-3.11,2.54,2.54,0,0,0-2.22-.87,2.72,2.72,0,0,0-2.49,1.15,8,8,0,0,0-.71,4v7.34H784.9Z"/><path d="M816,2834.92v11.94h-3.51v-11.94h-1.5v-3.28h1.5v-5.57H816v5.57h2.74v3.28Z"/><path d="M820.58,2839.14a7.56,7.56,0,0,1,2.36-5.61,8.32,8.32,0,0,1,11.53,0,8.15,8.15,0,0,1,0,11.45,8.07,8.07,0,0,1-5.83,2.3,7.73,7.73,0,0,1-5.73-2.34A7.91,7.91,0,0,1,820.58,2839.14Zm3.59.07a5.16,5.16,0,0,0,1.22,3.61,4.3,4.3,0,0,0,3.3,1.34,4.26,4.26,0,0,0,3.29-1.33,5.69,5.69,0,0,0,0-7.09,4.66,4.66,0,0,0-6.56,0A4.89,4.89,0,0,0,824.17,2839.21Z"/><path d="M861.62,2820.47h3.53v26.39h-3.53v-1.59a6.56,6.56,0,0,1-4.7,2,6.72,6.72,0,0,1-5.19-2.28,8.5,8.5,0,0,1-2-5.81,8.22,8.22,0,0,1,2-5.69,6.55,6.55,0,0,1,5.11-2.3,6.47,6.47,0,0,1,4.78,2.19Zm-8.34,18.74a5.32,5.32,0,0,0,1.17,3.56,3.82,3.82,0,0,0,3,1.39,4.06,4.06,0,0,0,3.16-1.34,5.81,5.81,0,0,0,0-7.07,4,4,0,0,0-3.13-1.36,3.87,3.87,0,0,0-3,1.38A5.08,5.08,0,0,0,853.28,2839.21Z"/><path d="M873.11,2831.64v8.74q0,3.78,3,3.78t3-3.78v-8.74h3.51v8.82a9.84,9.84,0,0,1-.45,3.15,5.26,5.26,0,0,1-1.52,2.14,7.37,7.37,0,0,1-9,0,5.34,5.34,0,0,1-1.55-2.14,8.72,8.72,0,0,1-.44-3.15v-8.82Z"/><path d="M895.87,2834.24l-2.9,1.54c-.46-.93-1-1.4-1.71-1.4a1.16,1.16,0,0,0-.82.32,1.07,1.07,0,0,0-.35.82c0,.58.68,1.16,2,1.73a12.22,12.22,0,0,1,3.77,2.22,3.84,3.84,0,0,1,1,2.74,4.77,4.77,0,0,1-1.63,3.68,5.82,5.82,0,0,1-9.23-2.32l3-1.4a6.43,6.43,0,0,0,1,1.4,2.21,2.21,0,0,0,1.53.59c1.19,0,1.78-.54,1.78-1.63,0-.62-.46-1.2-1.37-1.75l-1.06-.51-1.08-.52a6.67,6.67,0,0,1-2.16-1.5,3.68,3.68,0,0,1-.8-2.45,4.36,4.36,0,0,1,1.36-3.28,4.77,4.77,0,0,1,3.38-1.3A4.6,4.6,0,0,1,895.87,2834.24Z"/><path d="M903.53,2820.47v16.1l5-4.93h4.72l-6.61,6.39,7.1,8.83h-4.57l-5-6.42-.56.56v5.86H900v-26.39Z"/><path d="M917,2845.11a2.18,2.18,0,0,1,4.35,0,2.11,2.11,0,0,1-.64,1.54,2.17,2.17,0,0,1-3.71-1.56Z"/><path d="M950.17,2826.16H940.5v5.8h9.39v3.42H940.5v8.06h9.67v3.42H936.86v-24.12h13.31Z"/><path d="M956.17,2831.64l3.94,8.55,3.92-8.55h4l-7.9,16.27-7.85-16.27Z"/><path d="M983.67,2840.08H972.76a4.66,4.66,0,0,0,1.22,3,3.75,3.75,0,0,0,2.77,1.09,3.58,3.58,0,0,0,2.17-.63,8.75,8.75,0,0,0,1.92-2.31l3,1.66a12.1,12.1,0,0,1-1.45,2,8,8,0,0,1-1.64,1.37,6.82,6.82,0,0,1-1.89.79,9.12,9.12,0,0,1-2.21.25,7.17,7.17,0,0,1-5.47-2.19,8.21,8.21,0,0,1-2.06-5.84,8.46,8.46,0,0,1,2-5.85,6.94,6.94,0,0,1,5.35-2.2,6.86,6.86,0,0,1,5.31,2.14,8.43,8.43,0,0,1,1.94,5.89Zm-3.61-2.87a3.37,3.37,0,0,0-3.55-2.82,3.68,3.68,0,0,0-1.2.2,3.49,3.49,0,0,0-1,.56,3.69,3.69,0,0,0-.79.88,4,4,0,0,0-.5,1.18Z"/><path d="M987.51,2831.64H991V2833a6.77,6.77,0,0,1,1.72-1.39,3.93,3.93,0,0,1,1.81-.39,5.63,5.63,0,0,1,2.91.91l-1.61,3.22a3.37,3.37,0,0,0-2-.72q-2.86,0-2.87,4.34v7.89h-3.52Z"/><path d="M1005.69,2844l-6.85-12.39h4.08l4.66,8.75,4.34-8.75h4l-12.13,23.5h-4Z"/><path d="M1039.37,2820.47h3.53v26.39h-3.53v-1.59a6.56,6.56,0,0,1-4.7,2,6.72,6.72,0,0,1-5.19-2.28,8.5,8.5,0,0,1-2-5.81,8.22,8.22,0,0,1,2-5.69,6.55,6.55,0,0,1,5.11-2.3,6.47,6.47,0,0,1,4.78,2.19Zm-8.34,18.74a5.32,5.32,0,0,0,1.17,3.56,3.82,3.82,0,0,0,3,1.39,4.06,4.06,0,0,0,3.16-1.34,5.81,5.81,0,0,0,0-7.07,4,4,0,0,0-3.13-1.36,3.87,3.87,0,0,0-3,1.38A5.08,5.08,0,0,0,1031,2839.21Z"/><path d="M1058.56,2831.64h3.53v15.22h-3.53v-1.59a6.75,6.75,0,0,1-9.89-.25,8.45,8.45,0,0,1-2.05-5.81,8.2,8.2,0,0,1,2.05-5.71,6.59,6.59,0,0,1,5.12-2.28,6.47,6.47,0,0,1,4.77,2.19Zm-8.34,7.57a5.32,5.32,0,0,0,1.17,3.56,3.82,3.82,0,0,0,3,1.39,4.07,4.07,0,0,0,3.16-1.34,5.81,5.81,0,0,0,0-7.07,4,4,0,0,0-3.13-1.36,3.87,3.87,0,0,0-3,1.38A5.08,5.08,0,0,0,1050.22,2839.21Z"/><path d="M1071.61,2844l-6.85-12.39h4.08l4.66,8.75,4.34-8.75h4l-12.12,23.5h-4Z"/><path d="M1085,2842.35l3.12,1.22-4.45,8.92-2.38-1Z"/><path d="M1106.09,2820.47v12.94a6.49,6.49,0,0,1,4.78-2.19,6.61,6.61,0,0,1,5.13,2.3,8.22,8.22,0,0,1,2,5.69A8.35,8.35,0,0,1,1116,2845a6.76,6.76,0,0,1-9.89.25v1.59h-3.51v-26.39Zm8.36,18.89a5.26,5.26,0,0,0-1.19-3.56,3.78,3.78,0,0,0-3-1.41,4.07,4.07,0,0,0-3.16,1.36,5.8,5.8,0,0,0,0,7.05,3.93,3.93,0,0,0,3.12,1.36,3.86,3.86,0,0,0,3-1.36A5,5,0,0,0,1114.45,2839.36Z"/><path d="M1126,2844l-6.84-12.39h4.08l4.65,8.75,4.35-8.75h4l-12.13,23.5h-4Z"/><path d="M1160.29,2832.3V2837a8.47,8.47,0,0,0-2.15-2,4.17,4.17,0,0,0-2.2-.57,4.36,4.36,0,0,0-3.3,1.39,4.87,4.87,0,0,0-1.31,3.49,5,5,0,0,0,1.26,3.51,4.27,4.27,0,0,0,3.27,1.38,4.39,4.39,0,0,0,2.23-.55,8.63,8.63,0,0,0,2.2-2.06v4.64a9.19,9.19,0,0,1-4.28,1.11,8.18,8.18,0,0,1-5.9-2.28,7.59,7.59,0,0,1-2.38-5.7,7.68,7.68,0,0,1,2.41-5.75,8.1,8.1,0,0,1,5.9-2.35A8.8,8.8,0,0,1,1160.29,2832.3Z"/><path d="M1164.53,2820.47H1168v12.44a6,6,0,0,1,4.15-1.69,5.36,5.36,0,0,1,4.12,1.67c.88,1,1.31,2.52,1.31,4.64v9.33h-3.51v-9a4.31,4.31,0,0,0-.65-2.65,2.52,2.52,0,0,0-2.09-.82,2.86,2.86,0,0,0-2.59,1.14,7.85,7.85,0,0,0-.74,4v7.36h-3.51Z"/><path d="M1181.36,2839.14a7.56,7.56,0,0,1,2.36-5.61,8.32,8.32,0,0,1,11.53,0,8.15,8.15,0,0,1,0,11.45,8.06,8.06,0,0,1-5.83,2.3,7.73,7.73,0,0,1-5.73-2.34A7.91,7.91,0,0,1,1181.36,2839.14Zm3.59.07a5.16,5.16,0,0,0,1.22,3.61,4.3,4.3,0,0,0,3.3,1.34,4.26,4.26,0,0,0,3.29-1.33,5.69,5.69,0,0,0,0-7.09,4.66,4.66,0,0,0-6.56,0A4.89,4.89,0,0,0,1185,2839.21Z"/><path d="M1200.78,2825.32a2.18,2.18,0,0,1,.67-1.6,2.29,2.29,0,0,1,3.91,1.61,2.25,2.25,0,0,1-.67,1.63,2.21,2.21,0,0,1-1.61.67,2.29,2.29,0,0,1-2.3-2.31Zm4,6.32v15.22h-3.52v-15.22Z"/><path d="M1221.12,2832.3V2837a8.47,8.47,0,0,0-2.15-2,4.18,4.18,0,0,0-2.21-.57,4.35,4.35,0,0,0-3.29,1.39,4.87,4.87,0,0,0-1.32,3.49,5,5,0,0,0,1.27,3.51,4.25,4.25,0,0,0,3.27,1.38,4.42,4.42,0,0,0,2.23-.55,8.79,8.79,0,0,0,2.2-2.06v4.64a9.19,9.19,0,0,1-4.28,1.11,8.18,8.18,0,0,1-5.9-2.28,7.59,7.59,0,0,1-2.38-5.7,7.68,7.68,0,0,1,2.41-5.75,8.1,8.1,0,0,1,5.9-2.35A8.8,8.8,0,0,1,1221.12,2832.3Z"/><path d="M1238.39,2840.08h-10.91a4.66,4.66,0,0,0,1.22,3,3.75,3.75,0,0,0,2.77,1.09,3.58,3.58,0,0,0,2.17-.63,8.75,8.75,0,0,0,1.92-2.31l3,1.66a12.1,12.1,0,0,1-1.45,2,8,8,0,0,1-1.64,1.37,6.76,6.76,0,0,1-1.9.79,9,9,0,0,1-2.2.25,7.17,7.17,0,0,1-5.47-2.19,8.21,8.21,0,0,1-2.06-5.84,8.46,8.46,0,0,1,2-5.85,7.63,7.63,0,0,1,10.66-.06,8.43,8.43,0,0,1,1.93,5.89Zm-3.61-2.87a3.37,3.37,0,0,0-3.55-2.82,3.6,3.6,0,0,0-1.2.2,3.37,3.37,0,0,0-1,.56,3.69,3.69,0,0,0-.79.88,4,4,0,0,0-.5,1.18Z"/><path d="M1251.39,2839.14a7.56,7.56,0,0,1,2.36-5.61,8.32,8.32,0,0,1,11.53,0,7.75,7.75,0,0,1,2.34,5.72,7.67,7.67,0,0,1-2.36,5.73,8.05,8.05,0,0,1-5.82,2.3,7.74,7.74,0,0,1-5.74-2.34A7.91,7.91,0,0,1,1251.39,2839.14Zm3.59.07a5.16,5.16,0,0,0,1.22,3.61,4.3,4.3,0,0,0,3.3,1.34,4.26,4.26,0,0,0,3.29-1.33,5.69,5.69,0,0,0,0-7.09,4.66,4.66,0,0,0-6.56,0A4.89,4.89,0,0,0,1255,2839.21Z"/><path d="M1271.34,2831.64h3.52V2833a6.77,6.77,0,0,1,1.72-1.39,3.93,3.93,0,0,1,1.81-.39,5.6,5.6,0,0,1,2.9.91l-1.6,3.22a3.37,3.37,0,0,0-2-.72q-2.87,0-2.87,4.34v7.89h-3.52Z"/><path d="M249.51,2868.87v12.94a6.49,6.49,0,0,1,4.79-2.19,6.57,6.57,0,0,1,5.12,2.3,8.23,8.23,0,0,1,2.05,5.69,8.35,8.35,0,0,1-2.07,5.81,6.76,6.76,0,0,1-9.89.25v1.59H246v-26.39Zm8.36,18.89a5.26,5.26,0,0,0-1.18-3.56,3.82,3.82,0,0,0-3-1.41,4.09,4.09,0,0,0-3.16,1.36,5.08,5.08,0,0,0-1.2,3.5,5.13,5.13,0,0,0,1.19,3.55,3.93,3.93,0,0,0,3.12,1.36,3.86,3.86,0,0,0,3-1.36A5,5,0,0,0,257.87,2887.76Z"/><path d="M269.4,2892.43,262.56,2880h4.08l4.66,8.75,4.34-8.75h4l-12.13,23.5h-4Z"/><path d="M295.51,2883.32v11.94H292v-11.94h-1.25V2880H292v-5.87a6.4,6.4,0,0,1,1-4.06,4.89,4.89,0,0,1,4-1.66,6.76,6.76,0,0,1,2.36.55v3.59l-.36-.19a4.48,4.48,0,0,0-1.87-.58,1.28,1.28,0,0,0-1.27.68,6.4,6.4,0,0,0-.33,2.53v5h3.83v3.28Z"/><path d="M313.08,2880h3.53v15.22h-3.53v-1.59a6.75,6.75,0,0,1-9.89-.25,8.45,8.45,0,0,1-2.05-5.81,8.2,8.2,0,0,1,2.05-5.71,6.59,6.59,0,0,1,5.12-2.28,6.48,6.48,0,0,1,4.77,2.19Zm-8.35,7.57a5.3,5.3,0,0,0,1.17,3.56,3.86,3.86,0,0,0,3,1.39,4,4,0,0,0,3.15-1.34,5.77,5.77,0,0,0,0-7.07,4,4,0,0,0-3.12-1.36,3.87,3.87,0,0,0-3,1.38A5,5,0,0,0,304.73,2887.61Z"/><path d="M324.67,2883.32v11.94h-3.52v-11.94h-1.5V2880h1.5v-5.57h3.52V2880h2.73v3.28Z"/><path d="M343.94,2888.48H333a4.61,4.61,0,0,0,1.22,3,3.71,3.71,0,0,0,2.76,1.09,3.61,3.61,0,0,0,2.18-.63,8.75,8.75,0,0,0,1.92-2.31l3,1.66a12.13,12.13,0,0,1-1.46,2,7.76,7.76,0,0,1-1.64,1.37,6.58,6.58,0,0,1-1.89.79,9,9,0,0,1-2.2.25,7.17,7.17,0,0,1-5.47-2.19,8.21,8.21,0,0,1-2.06-5.84,8.43,8.43,0,0,1,2-5.85,7.62,7.62,0,0,1,10.65-.06,8.39,8.39,0,0,1,1.94,5.89Zm-3.61-2.87a3.38,3.38,0,0,0-3.55-2.82,3.6,3.6,0,0,0-1.2.2,3.55,3.55,0,0,0-1,.56,3.92,3.92,0,0,0-.79.88,4.66,4.66,0,0,0-.5,1.18Z"/><path d="M350,2890.75l3.13,1.22-4.46,8.92-2.37-1Z"/><path d="M381.39,2888.48H370.48a4.66,4.66,0,0,0,1.22,3,3.71,3.71,0,0,0,2.77,1.09,3.58,3.58,0,0,0,2.17-.63,8.75,8.75,0,0,0,1.92-2.31l3,1.66a12.1,12.1,0,0,1-1.45,2,8,8,0,0,1-1.64,1.37,6.82,6.82,0,0,1-1.89.79,9.12,9.12,0,0,1-2.21.25,7.17,7.17,0,0,1-5.47-2.19,8.21,8.21,0,0,1-2.06-5.84,8.48,8.48,0,0,1,2-5.85,7.63,7.63,0,0,1,10.66-.06,8.43,8.43,0,0,1,1.93,5.89Zm-3.61-2.87a3.37,3.37,0,0,0-3.55-2.82,3.64,3.64,0,0,0-1.2.2,3.37,3.37,0,0,0-1,.56,3.69,3.69,0,0,0-.79.88,4,4,0,0,0-.5,1.18Z"/><path d="M396.45,2880H400v15.22h-3.53v-1.59a6.75,6.75,0,0,1-9.89-.25,8.5,8.5,0,0,1-2.05-5.81,8.25,8.25,0,0,1,2.05-5.71,6.61,6.61,0,0,1,5.13-2.28,6.45,6.45,0,0,1,4.76,2.19Zm-8.34,7.57a5.3,5.3,0,0,0,1.17,3.56,3.82,3.82,0,0,0,3,1.39,4.07,4.07,0,0,0,3.16-1.34,5.81,5.81,0,0,0,0-7.07,4,4,0,0,0-3.13-1.36,3.87,3.87,0,0,0-3,1.38A5.08,5.08,0,0,0,388.11,2887.61Z"/><path d="M416.26,2880.7v4.67a8.47,8.47,0,0,0-2.15-2,4.18,4.18,0,0,0-2.21-.57,4.35,4.35,0,0,0-3.29,1.39,4.87,4.87,0,0,0-1.31,3.49,5,5,0,0,0,1.26,3.51,4.25,4.25,0,0,0,3.27,1.38,4.42,4.42,0,0,0,2.23-.55,8.63,8.63,0,0,0,2.2-2.06v4.64a9.19,9.19,0,0,1-4.28,1.11,8.18,8.18,0,0,1-5.9-2.28,7.59,7.59,0,0,1-2.38-5.7,7.69,7.69,0,0,1,2.41-5.75,8.1,8.1,0,0,1,5.9-2.35A8.8,8.8,0,0,1,416.26,2880.7Z"/><path d="M420.5,2868.87H424v12.44a6,6,0,0,1,4.14-1.69,5.37,5.37,0,0,1,4.13,1.67,6.84,6.84,0,0,1,1.31,4.64v9.33h-3.51v-9a4.31,4.31,0,0,0-.65-2.65,2.52,2.52,0,0,0-2.09-.82,2.86,2.86,0,0,0-2.59,1.14,7.85,7.85,0,0,0-.74,4v7.36H420.5Z"/><path d="M447.92,2868.87h3.52v12.44a6,6,0,0,1,4.14-1.69,5.35,5.35,0,0,1,4.12,1.67c.88,1,1.31,2.52,1.31,4.64v9.33H457.5v-9a4.31,4.31,0,0,0-.65-2.65,2.52,2.52,0,0,0-2.09-.82,2.86,2.86,0,0,0-2.59,1.14,7.87,7.87,0,0,0-.73,4v7.36h-3.52Z"/><path d="M469,2880v8.74q0,3.78,3,3.78t3-3.78V2880h3.52v8.82A9.56,9.56,0,0,1,478,2892a5.23,5.23,0,0,1-1.51,2.14,7.38,7.38,0,0,1-9.05,0,5.44,5.44,0,0,1-1.55-2.14,8.76,8.76,0,0,1-.43-3.15V2880Z"/><path d="M482.9,2880h3.52v1.41a7.57,7.57,0,0,1,1.73-1.44,4.25,4.25,0,0,1,1.93-.39,4.65,4.65,0,0,1,4.07,2.25,5.29,5.29,0,0,1,4.49-2.25q5.14,0,5.14,6.24v9.4h-3.53v-8.45a6.54,6.54,0,0,0-.53-3.09,1.94,1.94,0,0,0-1.8-.93,2.31,2.31,0,0,0-2.12,1.1,7.07,7.07,0,0,0-.66,3.51v7.86h-3.53v-8.4q0-4.07-2.35-4.07a2.34,2.34,0,0,0-2.16,1.11,7,7,0,0,0-.68,3.5v7.86H482.9Z"/><path d="M519.44,2880H523v15.22h-3.53v-1.59a6.75,6.75,0,0,1-9.89-.25,8.45,8.45,0,0,1-2.05-5.81,8.2,8.2,0,0,1,2.05-5.71,6.59,6.59,0,0,1,5.12-2.28,6.48,6.48,0,0,1,4.77,2.19Zm-8.35,7.57a5.3,5.3,0,0,0,1.17,3.56,3.86,3.86,0,0,0,3,1.39,4,4,0,0,0,3.15-1.34,5.81,5.81,0,0,0,0-7.07,4,4,0,0,0-3.12-1.36,3.87,3.87,0,0,0-3,1.38A5,5,0,0,0,511.09,2887.61Z"/><path d="M527.4,2880h3.54v1.41a5.73,5.73,0,0,1,4.15-1.83,5.26,5.26,0,0,1,4.14,1.67c.86.95,1.28,2.5,1.28,4.64v9.33H537v-8.5a5.66,5.66,0,0,0-.62-3.11,2.54,2.54,0,0,0-2.22-.87,2.72,2.72,0,0,0-2.49,1.15,8.12,8.12,0,0,0-.71,4v7.34H527.4Z"/><path d="M558.34,2868.87v12.94a6.49,6.49,0,0,1,4.78-2.19,6.59,6.59,0,0,1,5.13,2.3,8.23,8.23,0,0,1,2,5.69,8.35,8.35,0,0,1-2.07,5.81,6.76,6.76,0,0,1-9.89.25v1.59h-3.51v-26.39Zm8.36,18.89a5.21,5.21,0,0,0-1.19-3.56,3.78,3.78,0,0,0-3-1.41,4.07,4.07,0,0,0-3.16,1.36,5.8,5.8,0,0,0,0,7,3.93,3.93,0,0,0,3.12,1.36,3.86,3.86,0,0,0,3-1.36A5,5,0,0,0,566.7,2887.76Z"/><path d="M587.87,2888.48H577a4.61,4.61,0,0,0,1.22,3,3.69,3.69,0,0,0,2.76,1.09,3.55,3.55,0,0,0,2.17-.63,8.56,8.56,0,0,0,1.93-2.31l3,1.66a11.56,11.56,0,0,1-1.45,2,8,8,0,0,1-1.64,1.37,6.58,6.58,0,0,1-1.89.79,9,9,0,0,1-2.2.25,7.16,7.16,0,0,1-5.47-2.19,8.17,8.17,0,0,1-2.06-5.84,8.43,8.43,0,0,1,2-5.85,7.62,7.62,0,0,1,10.65-.06,8.43,8.43,0,0,1,1.94,5.89Zm-3.61-2.87a3.37,3.37,0,0,0-3.54-2.82,3.7,3.7,0,0,0-1.21.2,3.63,3.63,0,0,0-1,.56,3.69,3.69,0,0,0-.79.88,4.33,4.33,0,0,0-.5,1.18Z"/><path d="M591.19,2873.72a2.29,2.29,0,0,1,2.28-2.27,2.2,2.2,0,0,1,1.62.67,2.17,2.17,0,0,1,.67,1.61,2.21,2.21,0,0,1-.67,1.63,2.19,2.19,0,0,1-1.61.67,2.29,2.29,0,0,1-2.29-2.31Zm4,6.32v15.22h-3.51V2880Z"/><path d="M599.69,2880h3.53v1.41a5.75,5.75,0,0,1,4.15-1.83,5.26,5.26,0,0,1,4.14,1.67c.86.95,1.29,2.5,1.29,4.64v9.33h-3.54v-8.5a5.57,5.57,0,0,0-.62-3.11,2.54,2.54,0,0,0-2.22-.87,2.7,2.7,0,0,0-2.48,1.15,8,8,0,0,0-.72,4v7.34h-3.53Z"/><path d="M632,2894.9c0,.72,0,1.35-.07,1.9s-.11,1-.19,1.45a6.43,6.43,0,0,1-1.47,2.95,7.14,7.14,0,0,1-5.67,2.37,7.53,7.53,0,0,1-5-1.64,6.67,6.67,0,0,1-2.34-4.67h3.53a4,4,0,0,0,.67,1.74,3.8,3.8,0,0,0,3.19,1.42q3.85,0,3.86-4.74v-2.12a6.57,6.57,0,0,1-4.83,2.14,6.5,6.5,0,0,1-5.1-2.25,8.35,8.35,0,0,1-2-5.7,8.78,8.78,0,0,1,1.86-5.66,6.5,6.5,0,0,1,5.28-2.47,6.18,6.18,0,0,1,4.79,2.14V2880H632Zm-3.37-7.22a5.12,5.12,0,0,0-1.19-3.54,3.92,3.92,0,0,0-3.08-1.36,3.8,3.8,0,0,0-3.16,1.48,6.16,6.16,0,0,0,0,6.85,3.82,3.82,0,0,0,3.16,1.45,3.87,3.87,0,0,0,3.19-1.47A5.22,5.22,0,0,0,628.58,2887.68Z"/><path d="M649.89,2883.32v11.94h-3.52v-11.94h-1.5V2880h1.5v-5.57h3.52V2880h2.73v3.28Z"/><path d="M666.51,2880H670v15.22h-3.53v-1.59a6.75,6.75,0,0,1-9.89-.25,8.5,8.5,0,0,1-2-5.81,8.24,8.24,0,0,1,2-5.71,6.62,6.62,0,0,1,5.13-2.28,6.45,6.45,0,0,1,4.76,2.19Zm-8.34,7.57a5.3,5.3,0,0,0,1.17,3.56,3.82,3.82,0,0,0,3,1.39,4.06,4.06,0,0,0,3.16-1.34,5.81,5.81,0,0,0,0-7.07,4,4,0,0,0-3.13-1.36,3.9,3.9,0,0,0-3,1.38A5.08,5.08,0,0,0,658.17,2887.61Z"/><path d="M678,2868.87V2885l5-4.93h4.72l-6.61,6.39,7.09,8.83h-4.56l-5-6.42-.56.56v5.86h-3.52v-26.39Z"/><path d="M703.76,2888.48h-10.9a4.61,4.61,0,0,0,1.22,3,3.69,3.69,0,0,0,2.76,1.09,3.55,3.55,0,0,0,2.17-.63,8.56,8.56,0,0,0,1.93-2.31l3,1.66a11.56,11.56,0,0,1-1.45,2,8,8,0,0,1-1.64,1.37,6.58,6.58,0,0,1-1.89.79,9,9,0,0,1-2.2.25,7.16,7.16,0,0,1-5.47-2.19,8.17,8.17,0,0,1-2.06-5.84,8.43,8.43,0,0,1,2-5.85,7.62,7.62,0,0,1,10.65-.06,8.43,8.43,0,0,1,1.94,5.89Zm-3.61-2.87a3.37,3.37,0,0,0-3.54-2.82,3.7,3.7,0,0,0-1.21.2,3.63,3.63,0,0,0-1,.56,3.69,3.69,0,0,0-.79.88,4.33,4.33,0,0,0-.5,1.18Z"/><path d="M716.45,2882.64l-2.91,1.54c-.45-.93-1-1.4-1.7-1.4a1.2,1.2,0,0,0-.83.32,1.06,1.06,0,0,0-.34.82c0,.58.68,1.16,2,1.73a12.43,12.43,0,0,1,3.77,2.22,3.84,3.84,0,0,1,1,2.74,4.81,4.81,0,0,1-1.63,3.68,5.82,5.82,0,0,1-9.23-2.32l3-1.4a6.43,6.43,0,0,0,.95,1.4,2.21,2.21,0,0,0,1.53.59c1.19,0,1.78-.54,1.78-1.63,0-.62-.46-1.2-1.37-1.75l-1.07-.51-1.07-.52a6.56,6.56,0,0,1-2.16-1.5,3.68,3.68,0,0,1-.8-2.45,4.36,4.36,0,0,1,1.36-3.28,4.75,4.75,0,0,1,3.38-1.3A4.61,4.61,0,0,1,716.45,2882.64Z"/><path d="M734.09,2883.32v11.94h-3.51v-11.94h-1.5V2880h1.5v-5.57h3.51V2880h2.74v3.28Z"/><path d="M739.86,2868.87h3.51v12.44a6,6,0,0,1,4.14-1.69,5.37,5.37,0,0,1,4.13,1.67,6.84,6.84,0,0,1,1.31,4.64v9.33h-3.51v-9a4.31,4.31,0,0,0-.65-2.65,2.54,2.54,0,0,0-2.09-.82,2.86,2.86,0,0,0-2.59,1.14,7.85,7.85,0,0,0-.74,4v7.36h-3.51Z"/><path d="M771.26,2888.48h-10.9a4.61,4.61,0,0,0,1.22,3,3.69,3.69,0,0,0,2.76,1.09,3.55,3.55,0,0,0,2.17-.63,8.56,8.56,0,0,0,1.93-2.31l3,1.66a11.56,11.56,0,0,1-1.45,2,8,8,0,0,1-1.64,1.37,6.58,6.58,0,0,1-1.89.79,9,9,0,0,1-2.2.25,7.16,7.16,0,0,1-5.47-2.19,8.17,8.17,0,0,1-2.06-5.84,8.43,8.43,0,0,1,2-5.85,7.62,7.62,0,0,1,10.65-.06,8.43,8.43,0,0,1,1.94,5.89Zm-3.61-2.87a3.37,3.37,0,0,0-3.54-2.82,3.7,3.7,0,0,0-1.21.2,3.63,3.63,0,0,0-1,.56,3.69,3.69,0,0,0-.79.88,4.33,4.33,0,0,0-.5,1.18Z"/><path d="M785,2880h3.52v1.36a6.77,6.77,0,0,1,1.72-1.39,3.93,3.93,0,0,1,1.81-.39,5.66,5.66,0,0,1,2.91.91l-1.61,3.22a3.37,3.37,0,0,0-2-.72q-2.86,0-2.87,4.34v7.89H785Z"/><path d="M796,2887.54a7.6,7.6,0,0,1,2.36-5.61,8.32,8.32,0,0,1,11.53,0,8.14,8.14,0,0,1,0,11.45,8.09,8.09,0,0,1-5.83,2.3,7.75,7.75,0,0,1-5.74-2.34A7.89,7.89,0,0,1,796,2887.54Zm3.59.07a5.16,5.16,0,0,0,1.22,3.61,4.33,4.33,0,0,0,3.3,1.34,4.28,4.28,0,0,0,3.3-1.33,5.72,5.72,0,0,0,0-7.09,4.67,4.67,0,0,0-6.57,0A4.89,4.89,0,0,0,799.54,2887.61Z"/><path d="M819.42,2868.87v26.39H815.9v-26.39Z"/><path d="M837.73,2888.48h-10.9a4.66,4.66,0,0,0,1.21,3,3.73,3.73,0,0,0,2.77,1.09,3.55,3.55,0,0,0,2.17-.63,8.56,8.56,0,0,0,1.92-2.31l3,1.66a12.1,12.1,0,0,1-1.45,2,8,8,0,0,1-1.64,1.37,6.58,6.58,0,0,1-1.89.79,9,9,0,0,1-2.2.25,7.14,7.14,0,0,1-5.47-2.19,8.18,8.18,0,0,1-2.07-5.84,8.48,8.48,0,0,1,2-5.85,6.94,6.94,0,0,1,5.35-2.2,6.85,6.85,0,0,1,5.31,2.14,8.43,8.43,0,0,1,1.94,5.89Zm-3.61-2.87a3.37,3.37,0,0,0-3.54-2.82,3.7,3.7,0,0,0-1.21.2,3.63,3.63,0,0,0-1,.56,3.69,3.69,0,0,0-.79.88,4,4,0,0,0-.5,1.18Z"/><path d="M850.73,2887.54a7.6,7.6,0,0,1,2.36-5.61,8.32,8.32,0,0,1,11.53,0,8.14,8.14,0,0,1,0,11.45,8.09,8.09,0,0,1-5.83,2.3,7.77,7.77,0,0,1-5.74-2.34A7.89,7.89,0,0,1,850.73,2887.54Zm3.6.07a5.15,5.15,0,0,0,1.21,3.61,4.33,4.33,0,0,0,3.3,1.34,4.27,4.27,0,0,0,3.3-1.33,5.72,5.72,0,0,0,0-7.09,4.29,4.29,0,0,0-3.3-1.35,4.23,4.23,0,0,0-3.26,1.35A4.85,4.85,0,0,0,854.33,2887.61Z"/><path d="M874.33,2883.32v11.94h-3.54v-11.94h-1.25V2880h1.25v-5.87a6.4,6.4,0,0,1,1-4.06,4.89,4.89,0,0,1,4-1.66,6.71,6.71,0,0,1,2.36.55v3.59l-.36-.19a4.48,4.48,0,0,0-1.87-.58,1.28,1.28,0,0,0-1.27.68,6.66,6.66,0,0,0-.32,2.53v5h3.82v3.28Z"/><path d="M901.28,2880h3.53v15.22h-3.53v-1.59a6.75,6.75,0,0,1-9.89-.25,8.45,8.45,0,0,1-2-5.81,8.2,8.2,0,0,1,2-5.71,6.59,6.59,0,0,1,5.12-2.28,6.48,6.48,0,0,1,4.77,2.19Zm-8.34,7.57a5.3,5.3,0,0,0,1.17,3.56,3.82,3.82,0,0,0,3,1.39,4,4,0,0,0,3.15-1.34,5.77,5.77,0,0,0,0-7.07,4,4,0,0,0-3.12-1.36,3.87,3.87,0,0,0-3,1.38A5.08,5.08,0,0,0,892.94,2887.61Z"/><path d="M919.12,2868.87h3.52v12.44a6,6,0,0,1,4.14-1.69,5.35,5.35,0,0,1,4.12,1.67,6.79,6.79,0,0,1,1.32,4.64v9.33H928.7v-9a4.31,4.31,0,0,0-.65-2.65,2.51,2.51,0,0,0-2.08-.82,2.88,2.88,0,0,0-2.6,1.14,7.87,7.87,0,0,0-.73,4v7.36h-3.52Z"/><path d="M940.19,2880v8.74q0,3.78,3,3.78t3-3.78V2880h3.52v8.82a9.84,9.84,0,0,1-.45,3.15,5.36,5.36,0,0,1-1.52,2.14,7.38,7.38,0,0,1-9.05,0,5.31,5.31,0,0,1-1.54-2.14,8.72,8.72,0,0,1-.44-3.15V2880Z"/><path d="M954.11,2880h3.53v1.41a5.75,5.75,0,0,1,4.15-1.83,5.27,5.27,0,0,1,4.15,1.67c.85.95,1.28,2.5,1.28,4.64v9.33h-3.53v-8.5a5.56,5.56,0,0,0-.63-3.11,2.54,2.54,0,0,0-2.22-.87,2.7,2.7,0,0,0-2.48,1.15,8,8,0,0,0-.72,4v7.34h-3.53Z"/><path d="M975.28,2883.32v11.94h-3.52v-11.94h-1.5V2880h1.5v-5.57h3.52V2880H978v3.28Z"/><path d="M994.54,2888.48h-10.9a4.61,4.61,0,0,0,1.22,3,3.71,3.71,0,0,0,2.76,1.09,3.55,3.55,0,0,0,2.17-.63,8.56,8.56,0,0,0,1.93-2.31l3,1.66a12.13,12.13,0,0,1-1.46,2,8,8,0,0,1-1.64,1.37,6.58,6.58,0,0,1-1.89.79,9,9,0,0,1-2.2.25,7.16,7.16,0,0,1-5.47-2.19,8.17,8.17,0,0,1-2.06-5.84,8.43,8.43,0,0,1,2-5.85,7.62,7.62,0,0,1,10.65-.06,8.43,8.43,0,0,1,1.94,5.89Zm-3.6-2.87a3.38,3.38,0,0,0-3.55-2.82,3.6,3.6,0,0,0-1.2.2,3.55,3.55,0,0,0-1,.56,3.69,3.69,0,0,0-.79.88,4.33,4.33,0,0,0-.5,1.18Z"/><path d="M998.39,2880h3.51v1.36a6.94,6.94,0,0,1,1.72-1.39,4,4,0,0,1,1.82-.39,5.63,5.63,0,0,1,2.9.91l-1.61,3.22a3.34,3.34,0,0,0-2-.72q-2.88,0-2.88,4.34v7.89h-3.51Z"/><path d="M1019.51,2887.54a7.6,7.6,0,0,1,2.36-5.61,8.32,8.32,0,0,1,11.53,0,8.14,8.14,0,0,1,0,11.45,8.09,8.09,0,0,1-5.83,2.3,7.73,7.73,0,0,1-5.73-2.34A7.86,7.86,0,0,1,1019.51,2887.54Zm3.6.07a5.11,5.11,0,0,0,1.22,3.61,4.73,4.73,0,0,0,6.59,0,5.72,5.72,0,0,0,0-7.09,4.27,4.27,0,0,0-3.3-1.35,4.23,4.23,0,0,0-3.26,1.35A4.85,4.85,0,0,0,1023.11,2887.61Z"/><path d="M1039.47,2880H1043v1.36a6.94,6.94,0,0,1,1.72-1.39,4,4,0,0,1,1.81-.39,5.63,5.63,0,0,1,2.91.91l-1.61,3.22a3.37,3.37,0,0,0-2-.72q-2.88,0-2.88,4.34v7.89h-3.51Z"/><path d="M1072.53,2880h3.53v15.22h-3.53v-1.59a6.75,6.75,0,0,1-9.89-.25,8.45,8.45,0,0,1-2.05-5.81,8.2,8.2,0,0,1,2.05-5.71,6.59,6.59,0,0,1,5.12-2.28,6.48,6.48,0,0,1,4.77,2.19Zm-8.34,7.57a5.3,5.3,0,0,0,1.17,3.56,3.82,3.82,0,0,0,3,1.39,4,4,0,0,0,3.15-1.34,5.77,5.77,0,0,0,0-7.07,4,4,0,0,0-3.12-1.36,3.87,3.87,0,0,0-3,1.38A5.08,5.08,0,0,0,1064.19,2887.61Z"/><path d="M1105.09,2894.9c0,.72,0,1.35-.07,1.9s-.11,1-.19,1.45a6.43,6.43,0,0,1-1.47,2.95,7.14,7.14,0,0,1-5.67,2.37,7.53,7.53,0,0,1-5-1.64,6.67,6.67,0,0,1-2.34-4.67h3.53a4,4,0,0,0,.67,1.74,3.8,3.8,0,0,0,3.19,1.42q3.85,0,3.86-4.74v-2.12a6.57,6.57,0,0,1-4.83,2.14,6.5,6.5,0,0,1-5.1-2.25,8.35,8.35,0,0,1-2-5.7,8.78,8.78,0,0,1,1.86-5.66,6.5,6.5,0,0,1,5.28-2.47,6.18,6.18,0,0,1,4.79,2.14V2880h3.51Zm-3.37-7.22a5.12,5.12,0,0,0-1.19-3.54,3.92,3.92,0,0,0-3.08-1.36,3.8,3.8,0,0,0-3.16,1.48,6.16,6.16,0,0,0,0,6.85,3.82,3.82,0,0,0,3.16,1.45,3.87,3.87,0,0,0,3.19-1.47A5.22,5.22,0,0,0,1101.72,2887.68Z"/><path d="M1120.75,2880h3.53v15.22h-3.53v-1.59a6.75,6.75,0,0,1-9.89-.25,8.45,8.45,0,0,1-2-5.81,8.2,8.2,0,0,1,2-5.71,6.59,6.59,0,0,1,5.12-2.28,6.48,6.48,0,0,1,4.77,2.19Zm-8.35,7.57a5.26,5.26,0,0,0,1.18,3.56,3.82,3.82,0,0,0,3,1.39,4,4,0,0,0,3.15-1.34,5.77,5.77,0,0,0,0-7.07,4,4,0,0,0-3.12-1.36,3.87,3.87,0,0,0-3,1.38A5,5,0,0,0,1112.4,2887.61Z"/><path d="M1132.34,2883.32v11.94h-3.51v-11.94h-1.5V2880h1.5v-5.57h3.51V2880h2.74v3.28Z"/><path d="M1138.11,2868.87h3.51v12.44a6,6,0,0,1,4.14-1.69,5.37,5.37,0,0,1,4.13,1.67,6.84,6.84,0,0,1,1.31,4.64v9.33h-3.51v-9a4.31,4.31,0,0,0-.65-2.65,2.54,2.54,0,0,0-2.09-.82,2.86,2.86,0,0,0-2.59,1.14,7.85,7.85,0,0,0-.74,4v7.36h-3.51Z"/><path d="M1169.51,2888.48h-10.9a4.61,4.61,0,0,0,1.22,3,3.69,3.69,0,0,0,2.76,1.09,3.55,3.55,0,0,0,2.17-.63,8.56,8.56,0,0,0,1.93-2.31l3,1.66a11.56,11.56,0,0,1-1.45,2,8,8,0,0,1-1.64,1.37,6.58,6.58,0,0,1-1.89.79,9,9,0,0,1-2.2.25,7.16,7.16,0,0,1-5.47-2.19,8.17,8.17,0,0,1-2.06-5.84,8.43,8.43,0,0,1,2-5.85,7.62,7.62,0,0,1,10.65-.06,8.43,8.43,0,0,1,1.94,5.89Zm-3.61-2.87a3.37,3.37,0,0,0-3.54-2.82,3.7,3.7,0,0,0-1.21.2,3.63,3.63,0,0,0-1,.56,3.69,3.69,0,0,0-.79.88,4.33,4.33,0,0,0-.5,1.18Z"/><path d="M1173.36,2880h3.51v1.36a6.94,6.94,0,0,1,1.72-1.39,4,4,0,0,1,1.81-.39,5.63,5.63,0,0,1,2.91.91l-1.61,3.22a3.37,3.37,0,0,0-2-.72q-2.88,0-2.88,4.34v7.89h-3.51Z"/><path d="M1199,2888.48h-10.91a4.61,4.61,0,0,0,1.22,3,3.71,3.71,0,0,0,2.76,1.09,3.61,3.61,0,0,0,2.18-.63,8.75,8.75,0,0,0,1.92-2.31l3,1.66a12.13,12.13,0,0,1-1.46,2,7.76,7.76,0,0,1-1.64,1.37,6.58,6.58,0,0,1-1.89.79,9,9,0,0,1-2.2.25,7.17,7.17,0,0,1-5.47-2.19,8.21,8.21,0,0,1-2.06-5.84,8.43,8.43,0,0,1,2-5.85,7.62,7.62,0,0,1,10.65-.06,8.39,8.39,0,0,1,1.94,5.89Zm-3.61-2.87a3.37,3.37,0,0,0-3.55-2.82,3.6,3.6,0,0,0-1.2.2,3.55,3.55,0,0,0-1,.56,3.92,3.92,0,0,0-.79.88,4.66,4.66,0,0,0-.5,1.18Z"/><path d="M1202.81,2880h3.52v1.36A6.75,6.75,0,0,1,1208,2880a4,4,0,0,1,1.82-.39,5.63,5.63,0,0,1,2.9.91l-1.61,3.22a3.32,3.32,0,0,0-2-.72c-1.92,0-2.87,1.45-2.87,4.34v7.89h-3.52Z"/><path d="M1213.62,2893.51a2.18,2.18,0,0,1,4.35,0,2.11,2.11,0,0,1-.64,1.54,2.17,2.17,0,0,1-3.71-1.56Z"/><path d="M250.31,2929h10.41v-9.44h3.64v24.12h-3.64V2932.4H250.31v11.26h-3.64v-24.12h3.64Z"/><path d="M273,2928.44v8.74q0,3.78,3,3.78t3-3.78v-8.74h3.52v8.82a9.51,9.51,0,0,1-.46,3.15,5.23,5.23,0,0,1-1.51,2.14,7.38,7.38,0,0,1-9.05,0,5.44,5.44,0,0,1-1.55-2.14,8.76,8.76,0,0,1-.43-3.15v-8.82Z"/><path d="M286.9,2928.44h3.54v1.41a5.73,5.73,0,0,1,4.15-1.83,5.26,5.26,0,0,1,4.14,1.67c.86.95,1.28,2.5,1.28,4.64v9.33h-3.53v-8.5a5.66,5.66,0,0,0-.62-3.11,2.54,2.54,0,0,0-2.22-.87,2.72,2.72,0,0,0-2.49,1.15,8.12,8.12,0,0,0-.71,4v7.34H286.9Z"/><path d="M308.08,2931.73v11.93h-3.52v-11.93h-1.5v-3.29h1.5v-5.57h3.52v5.57h2.73v3.29Z"/><path d="M312.67,2922.12a2.18,2.18,0,0,1,.67-1.6,2.29,2.29,0,0,1,3.91,1.61,2.25,2.25,0,0,1-.67,1.63,2.21,2.21,0,0,1-1.61.67,2.29,2.29,0,0,1-2.3-2.31Zm4.05,6.32v15.22H313.2v-15.22Z"/><path d="M321.17,2928.44h3.53v1.41a5.77,5.77,0,0,1,4.16-1.83,5.26,5.26,0,0,1,4.14,1.67c.85.95,1.28,2.5,1.28,4.64v9.33h-3.53v-8.5a5.56,5.56,0,0,0-.63-3.11,2.52,2.52,0,0,0-2.22-.87,2.71,2.71,0,0,0-2.48,1.15,8,8,0,0,0-.72,4v7.34h-3.53Z"/><path d="M353.44,2943.3c0,.72,0,1.36-.07,1.9s-.12,1-.2,1.45a6.43,6.43,0,0,1-1.47,2.95A7.12,7.12,0,0,1,346,2952a7.57,7.57,0,0,1-5-1.65,6.71,6.71,0,0,1-2.34-4.67h3.53a4.14,4.14,0,0,0,.67,1.74,3.8,3.8,0,0,0,3.19,1.42q3.85,0,3.86-4.74V2942a6.57,6.57,0,0,1-4.83,2.14,6.48,6.48,0,0,1-5.09-2.25,8.3,8.3,0,0,1-2-5.7,8.78,8.78,0,0,1,1.86-5.66,6.47,6.47,0,0,1,5.28-2.47,6.15,6.15,0,0,1,4.78,2.14v-1.72h3.52Zm-3.38-7.22a5.12,5.12,0,0,0-1.19-3.54,3.9,3.9,0,0,0-3.07-1.36,3.78,3.78,0,0,0-3.16,1.48,6.11,6.11,0,0,0,0,6.85,3.78,3.78,0,0,0,3.16,1.45,3.85,3.85,0,0,0,3.18-1.47A5.22,5.22,0,0,0,350.06,2936.08Z"/><path d="M371.26,2917.27v12.94a6.49,6.49,0,0,1,4.79-2.19,6.57,6.57,0,0,1,5.12,2.3,8.23,8.23,0,0,1,2.05,5.69,8.35,8.35,0,0,1-2.07,5.81,6.76,6.76,0,0,1-9.89.25v1.59h-3.51v-26.39Zm8.36,18.89a5.26,5.26,0,0,0-1.18-3.56,3.82,3.82,0,0,0-3-1.41,4.09,4.09,0,0,0-3.16,1.36,5.08,5.08,0,0,0-1.2,3.5,5.13,5.13,0,0,0,1.19,3.55,3.93,3.93,0,0,0,3.12,1.36,3.86,3.86,0,0,0,3-1.36A5,5,0,0,0,379.62,2936.16Z"/><path d="M400.8,2936.88H389.89a4.61,4.61,0,0,0,1.22,3,3.71,3.71,0,0,0,2.76,1.09,3.61,3.61,0,0,0,2.18-.63A8.75,8.75,0,0,0,398,2938l3,1.66a12.13,12.13,0,0,1-1.46,2,7.76,7.76,0,0,1-1.64,1.37,6.58,6.58,0,0,1-1.89.79,9,9,0,0,1-2.2.25,7.16,7.16,0,0,1-5.47-2.19,8.17,8.17,0,0,1-2.06-5.84,8.38,8.38,0,0,1,2-5.84,7.61,7.61,0,0,1,10.65-.07,8.43,8.43,0,0,1,1.94,5.89Zm-3.61-2.87a3.38,3.38,0,0,0-3.55-2.82,3.6,3.6,0,0,0-1.2.2,3.55,3.55,0,0,0-1,.56,3.69,3.69,0,0,0-.79.88,4.33,4.33,0,0,0-.5,1.18Z"/><path d="M416.48,2929.1v4.67a8.47,8.47,0,0,0-2.15-2,4.18,4.18,0,0,0-2.21-.57,4.35,4.35,0,0,0-3.29,1.39,4.87,4.87,0,0,0-1.32,3.49,5,5,0,0,0,1.27,3.51,4.25,4.25,0,0,0,3.27,1.38,4.42,4.42,0,0,0,2.23-.55,8.79,8.79,0,0,0,2.2-2.06V2943a9.19,9.19,0,0,1-4.28,1.11,8.18,8.18,0,0,1-5.9-2.28,7.59,7.59,0,0,1-2.38-5.7,7.69,7.69,0,0,1,2.41-5.75,8.1,8.1,0,0,1,5.9-2.35A8.8,8.8,0,0,1,416.48,2929.1Z"/><path d="M431.11,2928.44h3.53v15.22h-3.53v-1.59a6.75,6.75,0,0,1-9.89-.25,8.45,8.45,0,0,1-2.05-5.81,8.22,8.22,0,0,1,2.05-5.71,6.59,6.59,0,0,1,5.12-2.28,6.48,6.48,0,0,1,4.77,2.19Zm-8.35,7.57a5.26,5.26,0,0,0,1.18,3.56,3.82,3.82,0,0,0,3,1.39,4,4,0,0,0,3.15-1.34,5.77,5.77,0,0,0,0-7.07,4,4,0,0,0-3.12-1.36,3.87,3.87,0,0,0-3,1.38A5,5,0,0,0,422.76,2936Z"/><path d="M442.59,2928.44v8.74q0,3.78,3,3.78t3-3.78v-8.74h3.52v8.82a9.51,9.51,0,0,1-.46,3.15,5.23,5.23,0,0,1-1.51,2.14,7.38,7.38,0,0,1-9.05,0,5.44,5.44,0,0,1-1.55-2.14,8.76,8.76,0,0,1-.43-3.15v-8.82Z"/><path d="M465.36,2931l-2.91,1.54c-.46-.93-1-1.4-1.7-1.4a1.2,1.2,0,0,0-.83.32,1.06,1.06,0,0,0-.34.82c0,.58.67,1.16,2,1.73a12.35,12.35,0,0,1,3.76,2.22,3.79,3.79,0,0,1,1,2.74,4.78,4.78,0,0,1-1.62,3.68,5.83,5.83,0,0,1-9.24-2.32l3-1.39a6.87,6.87,0,0,0,1,1.39,2.17,2.17,0,0,0,1.53.59c1.18,0,1.78-.54,1.78-1.63,0-.62-.46-1.2-1.38-1.75l-1.06-.51-1.08-.52a6.5,6.5,0,0,1-2.15-1.5,3.68,3.68,0,0,1-.8-2.45,4.32,4.32,0,0,1,1.36-3.28A4.75,4.75,0,0,1,461,2928,4.62,4.62,0,0,1,465.36,2931Z"/><path d="M483.36,2936.88H472.45a4.66,4.66,0,0,0,1.22,3,3.71,3.71,0,0,0,2.77,1.09,3.6,3.6,0,0,0,2.17-.63,8.75,8.75,0,0,0,1.92-2.31l3,1.66a12.1,12.1,0,0,1-1.45,2,8.06,8.06,0,0,1-1.65,1.37,6.58,6.58,0,0,1-1.89.79,9,9,0,0,1-2.2.25,7.17,7.17,0,0,1-5.47-2.19,8.21,8.21,0,0,1-2.06-5.84,8.43,8.43,0,0,1,2-5.84,7.62,7.62,0,0,1,10.66-.07,8.43,8.43,0,0,1,1.93,5.89Zm-3.61-2.87a3.37,3.37,0,0,0-3.55-2.82,3.6,3.6,0,0,0-1.2.2,3.37,3.37,0,0,0-1,.56,3.49,3.49,0,0,0-.79.88,4,4,0,0,0-.5,1.18Z"/><path d="M496.36,2935.94a7.56,7.56,0,0,1,2.36-5.61,8.32,8.32,0,0,1,11.53,0,7.75,7.75,0,0,1,2.34,5.72,7.67,7.67,0,0,1-2.36,5.73,8.06,8.06,0,0,1-5.83,2.3,7.73,7.73,0,0,1-5.73-2.34A7.89,7.89,0,0,1,496.36,2935.94Zm3.59.07a5.16,5.16,0,0,0,1.22,3.61,4.3,4.3,0,0,0,3.3,1.34,4.26,4.26,0,0,0,3.29-1.33,5.69,5.69,0,0,0,0-7.09,4.66,4.66,0,0,0-6.56,0A4.89,4.89,0,0,0,500,2936Z"/><path d="M520,2931.73v11.93h-3.53v-11.93h-1.25v-3.29h1.25v-5.87a6.33,6.33,0,0,1,1-4.06,4.89,4.89,0,0,1,4-1.66,6.76,6.76,0,0,1,2.36.55V2921l-.36-.19a4.48,4.48,0,0,0-1.87-.57,1.27,1.27,0,0,0-1.27.67,6.4,6.4,0,0,0-.33,2.53v5h3.83v3.29Z"/><path d="M535.69,2917.27h3.51v12.44a6,6,0,0,1,4.14-1.69,5.37,5.37,0,0,1,4.13,1.67,6.84,6.84,0,0,1,1.31,4.64v9.33h-3.52v-9a4.32,4.32,0,0,0-.64-2.65,2.54,2.54,0,0,0-2.09-.82,2.86,2.86,0,0,0-2.59,1.14,7.85,7.85,0,0,0-.74,4v7.36h-3.51Z"/><path d="M556.75,2928.44v8.74q0,3.78,3,3.78t3-3.78v-8.74h3.51v8.82a9.8,9.8,0,0,1-.45,3.15,5.26,5.26,0,0,1-1.52,2.14,7.37,7.37,0,0,1-9,0,5.34,5.34,0,0,1-1.55-2.14,8.72,8.72,0,0,1-.44-3.15v-8.82Z"/><path d="M570.67,2928.44h3.53v1.41a5.77,5.77,0,0,1,4.16-1.83,5.26,5.26,0,0,1,4.14,1.67c.85.95,1.28,2.5,1.28,4.64v9.33h-3.53v-8.5a5.56,5.56,0,0,0-.63-3.11,2.52,2.52,0,0,0-2.22-.87,2.71,2.71,0,0,0-2.48,1.15,8,8,0,0,0-.72,4v7.34h-3.53Z"/><path d="M602.94,2943.3c0,.72,0,1.36-.07,1.9s-.12,1-.2,1.45a6.43,6.43,0,0,1-1.47,2.95,7.12,7.12,0,0,1-5.67,2.38,7.57,7.57,0,0,1-5-1.65,6.71,6.71,0,0,1-2.34-4.67h3.53a4.14,4.14,0,0,0,.67,1.74,3.8,3.8,0,0,0,3.19,1.42q3.86,0,3.86-4.74V2942a6.57,6.57,0,0,1-4.83,2.14,6.48,6.48,0,0,1-5.09-2.25,8.3,8.3,0,0,1-2-5.7,8.78,8.78,0,0,1,1.86-5.66,6.47,6.47,0,0,1,5.28-2.47,6.15,6.15,0,0,1,4.78,2.14v-1.72h3.52Zm-3.38-7.22a5.12,5.12,0,0,0-1.19-3.54,3.9,3.9,0,0,0-3.07-1.36,3.78,3.78,0,0,0-3.16,1.48,6.11,6.11,0,0,0,0,6.85,3.78,3.78,0,0,0,3.16,1.45,3.85,3.85,0,0,0,3.18-1.47A5.22,5.22,0,0,0,599.56,2936.08Z"/><path d="M621.23,2936.88h-10.9a4.61,4.61,0,0,0,1.22,3,3.69,3.69,0,0,0,2.76,1.09,3.55,3.55,0,0,0,2.17-.63,8.38,8.38,0,0,0,1.92-2.31l3,1.66a12.1,12.1,0,0,1-1.45,2,8,8,0,0,1-1.64,1.37,6.58,6.58,0,0,1-1.89.79,9,9,0,0,1-2.2.25,7.14,7.14,0,0,1-5.47-2.19,8.18,8.18,0,0,1-2.07-5.84,8.43,8.43,0,0,1,2-5.84,7.62,7.62,0,0,1,10.66-.07,8.43,8.43,0,0,1,1.94,5.89Zm-3.61-2.87a3.37,3.37,0,0,0-3.54-2.82,3.7,3.7,0,0,0-1.21.2,3.63,3.63,0,0,0-1,.56,3.69,3.69,0,0,0-.79.88,4.33,4.33,0,0,0-.5,1.18Z"/><path d="M625.08,2928.44h3.51v1.36a6.94,6.94,0,0,1,1.72-1.39,4,4,0,0,1,1.81-.39,5.63,5.63,0,0,1,2.91.91l-1.61,3.22a3.37,3.37,0,0,0-1.95-.72q-2.88,0-2.88,4.34v7.89h-3.51Z"/><path d="M637.94,2939.15l3.12,1.22-4.45,8.92-2.38-1Z"/><path d="M664.36,2931l-2.91,1.54c-.46-.93-1-1.4-1.7-1.4a1.18,1.18,0,0,0-.83.32,1.06,1.06,0,0,0-.34.82c0,.58.67,1.16,2,1.73a12.35,12.35,0,0,1,3.76,2.22,3.79,3.79,0,0,1,1,2.74,4.78,4.78,0,0,1-1.62,3.68,5.83,5.83,0,0,1-9.24-2.32l3-1.39a6.87,6.87,0,0,0,1,1.39,2.17,2.17,0,0,0,1.53.59c1.18,0,1.78-.54,1.78-1.63,0-.62-.46-1.2-1.38-1.75l-1.06-.51-1.08-.52a6.5,6.5,0,0,1-2.15-1.5,3.63,3.63,0,0,1-.8-2.45,4.32,4.32,0,0,1,1.36-3.28A4.75,4.75,0,0,1,660,2928,4.62,4.62,0,0,1,664.36,2931Z"/><path d="M672,2928.44v8.74q0,3.78,3,3.78t3-3.78v-8.74h3.52v8.82a9.51,9.51,0,0,1-.46,3.15,5.23,5.23,0,0,1-1.51,2.14,7.38,7.38,0,0,1-9,0,5.31,5.31,0,0,1-1.54-2.14,8.51,8.51,0,0,1-.44-3.15v-8.82Z"/><path d="M685.94,2928.44h3.51v1.36a6.94,6.94,0,0,1,1.72-1.39A3.93,3.93,0,0,1,693,2928a5.63,5.63,0,0,1,2.91.91l-1.61,3.22a3.37,3.37,0,0,0-1.95-.72q-2.88,0-2.88,4.34v7.89h-3.51Z"/><path d="M701.17,2928.44l3.94,8.55,3.92-8.55h4l-7.9,16.27-7.85-16.27Z"/><path d="M714.83,2922.12a2.29,2.29,0,0,1,2.28-2.27,2.2,2.2,0,0,1,1.62.67,2.17,2.17,0,0,1,.67,1.61,2.21,2.21,0,0,1-.67,1.63,2.19,2.19,0,0,1-1.61.67,2.29,2.29,0,0,1-2.29-2.31Zm4,6.32v15.22h-3.51v-15.22Z"/><path d="M725.22,2928.44l3.93,8.55,3.93-8.55H737l-7.91,16.27-7.84-16.27Z"/><path d="M750.08,2928.44h3.53v15.22h-3.53v-1.59a6.75,6.75,0,0,1-9.89-.25,8.45,8.45,0,0,1-2.05-5.81,8.22,8.22,0,0,1,2.05-5.71,6.59,6.59,0,0,1,5.12-2.28,6.48,6.48,0,0,1,4.77,2.19Zm-8.35,7.57a5.3,5.3,0,0,0,1.17,3.56,3.86,3.86,0,0,0,3,1.39,4,4,0,0,0,3.15-1.34,5.81,5.81,0,0,0,0-7.07,4,4,0,0,0-3.12-1.36,3.87,3.87,0,0,0-3,1.38A5,5,0,0,0,741.73,2936Z"/><path d="M761.56,2917.27v26.39H758v-26.39Z"/><path d="M775.17,2935.94a7.6,7.6,0,0,1,2.36-5.61,8.32,8.32,0,0,1,11.53,0,7.75,7.75,0,0,1,2.34,5.72,7.67,7.67,0,0,1-2.36,5.73,8.05,8.05,0,0,1-5.82,2.3,7.75,7.75,0,0,1-5.74-2.34A7.89,7.89,0,0,1,775.17,2935.94Zm3.59.07a5.16,5.16,0,0,0,1.22,3.61,4.75,4.75,0,0,0,6.6,0,5.72,5.72,0,0,0,0-7.09,4.67,4.67,0,0,0-6.57,0A4.89,4.89,0,0,0,778.76,2936Z"/><path d="M795.12,2928.44h3.52v1.36a6.77,6.77,0,0,1,1.72-1.39,3.93,3.93,0,0,1,1.81-.39,5.63,5.63,0,0,1,2.91.91l-1.61,3.22a3.37,3.37,0,0,0-2-.72q-2.87,0-2.87,4.34v7.89h-3.52Z"/><path d="M825.81,2931l-2.91,1.54c-.45-.93-1-1.4-1.7-1.4a1.2,1.2,0,0,0-.83.32,1.06,1.06,0,0,0-.34.82c0,.58.68,1.16,2,1.73a12.56,12.56,0,0,1,3.77,2.22,3.83,3.83,0,0,1,1,2.74,4.78,4.78,0,0,1-1.62,3.68,5.82,5.82,0,0,1-9.23-2.32l3-1.39a6.55,6.55,0,0,0,.95,1.39,2.21,2.21,0,0,0,1.53.59c1.19,0,1.78-.54,1.78-1.63,0-.62-.46-1.2-1.37-1.75l-1.07-.51-1.07-.52a6.56,6.56,0,0,1-2.16-1.5,3.68,3.68,0,0,1-.8-2.45,4.36,4.36,0,0,1,1.36-3.28,4.75,4.75,0,0,1,3.38-1.3A4.61,4.61,0,0,1,825.81,2931Z"/><path d="M829.42,2922.12a2.18,2.18,0,0,1,.67-1.6,2.29,2.29,0,0,1,3.91,1.61,2.25,2.25,0,0,1-.67,1.63,2.21,2.21,0,0,1-1.61.67,2.29,2.29,0,0,1-2.3-2.31Zm4.05,6.32v15.22H830v-15.22Z"/><path d="M837.92,2928.44h3.52v1.41a7.17,7.17,0,0,1,1.73-1.44,4.21,4.21,0,0,1,1.92-.39,4.67,4.67,0,0,1,4.08,2.25,5.27,5.27,0,0,1,4.48-2.25q5.15,0,5.14,6.24v9.4h-3.53v-8.45a6.42,6.42,0,0,0-.53-3.09,1.91,1.91,0,0,0-1.79-.93,2.3,2.3,0,0,0-2.12,1.1,6.94,6.94,0,0,0-.67,3.51v7.86h-3.53v-8.4q0-4.07-2.34-4.07a2.34,2.34,0,0,0-2.16,1.11,6.86,6.86,0,0,0-.68,3.5v7.86h-3.52Z"/><path d="M867.14,2951.94h-3.52v-23.5h3.52v1.66a6.52,6.52,0,0,1,4.72-2.08,6.59,6.59,0,0,1,5.17,2.31,8.4,8.4,0,0,1,2.06,5.8,8.19,8.19,0,0,1-2.05,5.7,6.66,6.66,0,0,1-9.9.13Zm8.36-15.79a5.29,5.29,0,0,0-1.19-3.57,3.85,3.85,0,0,0-3-1.39,4,4,0,0,0-3.14,1.35,5.09,5.09,0,0,0-1.2,3.53,5.21,5.21,0,0,0,1.2,3.53,3.93,3.93,0,0,0,3.12,1.36,3.81,3.81,0,0,0,3-1.38A5,5,0,0,0,875.5,2936.15Z"/><path d="M886.33,2917.27v26.39h-3.52v-26.39Z"/><path d="M895.86,2940.83,889,2928.44h4.08l4.66,8.75,4.34-8.75h4l-12.12,23.5h-4Z"/><path d="M922,2931.73v11.93h-3.53v-11.93h-1.25v-3.29h1.25v-5.87a6.33,6.33,0,0,1,1-4.06,4.88,4.88,0,0,1,4-1.66,6.71,6.71,0,0,1,2.35.55V2921l-.35-.19a4.52,4.52,0,0,0-1.88-.57,1.28,1.28,0,0,0-1.27.67,6.66,6.66,0,0,0-.32,2.53v5h3.82v3.29Z"/><path d="M927.5,2935.94a7.56,7.56,0,0,1,2.36-5.61,8.32,8.32,0,0,1,11.53,0,7.75,7.75,0,0,1,2.34,5.72,7.67,7.67,0,0,1-2.36,5.73,8.06,8.06,0,0,1-5.83,2.3,7.73,7.73,0,0,1-5.73-2.34A7.89,7.89,0,0,1,927.5,2935.94Zm3.59.07a5.16,5.16,0,0,0,1.22,3.61,4.3,4.3,0,0,0,3.3,1.34,4.26,4.26,0,0,0,3.29-1.33,5.69,5.69,0,0,0,0-7.09,4.66,4.66,0,0,0-6.56,0A4.89,4.89,0,0,0,931.09,2936Z"/><path d="M947.45,2928.44H951v1.36a6.77,6.77,0,0,1,1.72-1.39,3.93,3.93,0,0,1,1.81-.39,5.63,5.63,0,0,1,2.9.91l-1.61,3.22a3.32,3.32,0,0,0-1.95-.72c-1.92,0-2.87,1.45-2.87,4.34v7.89h-3.52Z"/><path d="M978.14,2931l-2.91,1.54c-.46-.93-1-1.4-1.7-1.4a1.2,1.2,0,0,0-.83.32,1.06,1.06,0,0,0-.34.82c0,.58.67,1.16,2,1.73a12.35,12.35,0,0,1,3.76,2.22,3.79,3.79,0,0,1,1,2.74,4.78,4.78,0,0,1-1.62,3.68,5.83,5.83,0,0,1-9.24-2.32l3-1.39a6.87,6.87,0,0,0,1,1.39,2.17,2.17,0,0,0,1.53.59c1.19,0,1.78-.54,1.78-1.63,0-.62-.46-1.2-1.38-1.75l-1.06-.51-1.08-.52a6.5,6.5,0,0,1-2.15-1.5,3.68,3.68,0,0,1-.8-2.45,4.32,4.32,0,0,1,1.36-3.28,4.75,4.75,0,0,1,3.37-1.3A4.62,4.62,0,0,1,978.14,2931Z"/><path d="M985.79,2951.94h-3.51v-23.5h3.51v1.66a6.68,6.68,0,0,1,9.9.23,8.4,8.4,0,0,1,2.06,5.8,8.19,8.19,0,0,1-2,5.7,6.67,6.67,0,0,1-9.91.13Zm8.36-15.79a5.28,5.28,0,0,0-1.18-3.57,3.88,3.88,0,0,0-3-1.39,4,4,0,0,0-3.15,1.35,5.09,5.09,0,0,0-1.2,3.53,5.21,5.21,0,0,0,1.2,3.53,4,4,0,0,0,3.13,1.36,3.82,3.82,0,0,0,3-1.38A5,5,0,0,0,994.15,2936.15Z"/><path d="M1000.75,2935.94a7.56,7.56,0,0,1,2.36-5.61,8.32,8.32,0,0,1,11.53,0,7.75,7.75,0,0,1,2.34,5.72,7.67,7.67,0,0,1-2.36,5.73,8.06,8.06,0,0,1-5.83,2.3,7.73,7.73,0,0,1-5.73-2.34A7.89,7.89,0,0,1,1000.75,2935.94Zm3.59.07a5.16,5.16,0,0,0,1.22,3.61,4.3,4.3,0,0,0,3.3,1.34,4.26,4.26,0,0,0,3.29-1.33,5.69,5.69,0,0,0,0-7.09,4.66,4.66,0,0,0-6.56,0A4.89,4.89,0,0,0,1004.34,2936Z"/><path d="M1020.7,2928.44h3.52v1.36a6.77,6.77,0,0,1,1.72-1.39,3.93,3.93,0,0,1,1.81-.39,5.63,5.63,0,0,1,2.9.91l-1.61,3.22a3.32,3.32,0,0,0-2-.72c-1.92,0-2.87,1.45-2.87,4.34v7.89h-3.52Z"/><path d="M1037.45,2931.73v11.93h-3.51v-11.93h-1.5v-3.29h1.5v-5.57h3.51v5.57h2.74v3.29Z"/><path d="M1043.12,2941.91a2.18,2.18,0,0,1,4.35,0,2.15,2.15,0,0,1-.64,1.55,2.17,2.17,0,0,1-3.71-1.57Z"/><path d="M1076.64,2923.13l-3,1.75a5.1,5.1,0,0,0-1.58-1.87,4.19,4.19,0,0,0-4.53.36,2.65,2.65,0,0,0-1,2.12c0,1.18.87,2.13,2.62,2.84l2.41,1a10.19,10.19,0,0,1,4.29,2.9,6.51,6.51,0,0,1,1.36,4.19,7.35,7.35,0,0,1-2.22,5.5,7.59,7.59,0,0,1-5.54,2.19,7.41,7.41,0,0,1-5.19-1.86,8.61,8.61,0,0,1-2.52-5.23l3.69-.82a6.25,6.25,0,0,0,.88,2.94,4.16,4.16,0,0,0,6.11.42,3.93,3.93,0,0,0,1.12-2.89,4.06,4.06,0,0,0-.19-1.29,3.26,3.26,0,0,0-.61-1.07,5.22,5.22,0,0,0-1.07-.93,10.82,10.82,0,0,0-1.57-.82l-2.32-1q-5-2.09-5-6.12a5.84,5.84,0,0,1,2.08-4.55,7.51,7.51,0,0,1,5.17-1.84A7.22,7.22,0,0,1,1076.64,2923.13Z"/><path d="M1080.26,2935.94a7.6,7.6,0,0,1,2.36-5.61,8.32,8.32,0,0,1,11.53,0,8.14,8.14,0,0,1,0,11.45,8.09,8.09,0,0,1-5.83,2.3,7.73,7.73,0,0,1-5.73-2.34A7.86,7.86,0,0,1,1080.26,2935.94Zm3.6.07a5.11,5.11,0,0,0,1.22,3.61,4.73,4.73,0,0,0,6.59,0,5.72,5.72,0,0,0,0-7.09,4.27,4.27,0,0,0-3.3-1.35,4.23,4.23,0,0,0-3.26,1.35A4.85,4.85,0,0,0,1083.86,2936Z"/><path d="M1100.22,2928.44h3.51v1.41a7.37,7.37,0,0,1,1.74-1.44,4.21,4.21,0,0,1,1.92-.39,4.67,4.67,0,0,1,4.08,2.25A5.27,5.27,0,0,1,1116,2928q5.15,0,5.14,6.24v9.4h-3.53v-8.45a6.54,6.54,0,0,0-.53-3.09,1.93,1.93,0,0,0-1.8-.93,2.28,2.28,0,0,0-2.11,1.1,6.94,6.94,0,0,0-.67,3.51v7.86h-3.53v-8.4q0-4.07-2.34-4.07a2.37,2.37,0,0,0-2.17,1.11,7,7,0,0,0-.68,3.5v7.86h-3.51Z"/><path d="M1139.39,2936.88h-10.91a4.66,4.66,0,0,0,1.22,3,3.71,3.71,0,0,0,2.77,1.09,3.58,3.58,0,0,0,2.17-.63,8.75,8.75,0,0,0,1.92-2.31l3,1.66a12.1,12.1,0,0,1-1.45,2,8,8,0,0,1-1.64,1.37,6.76,6.76,0,0,1-1.9.79,9,9,0,0,1-2.2.25,7.17,7.17,0,0,1-5.47-2.19,8.21,8.21,0,0,1-2.06-5.84,8.43,8.43,0,0,1,2-5.84,7.62,7.62,0,0,1,10.66-.07,8.43,8.43,0,0,1,1.93,5.89Zm-3.61-2.87a3.37,3.37,0,0,0-3.55-2.82,3.6,3.6,0,0,0-1.2.2,3.37,3.37,0,0,0-1,.56,3.69,3.69,0,0,0-.79.88,4,4,0,0,0-.5,1.18Z"/><path d="M1147.14,2931.73v11.93h-3.52v-11.93h-1.5v-3.29h1.5v-5.57h3.52v5.57h2.73v3.29Z"/><path d="M1151.73,2922.12a2.29,2.29,0,0,1,3.91-1.6,2.17,2.17,0,0,1,.67,1.61,2.29,2.29,0,0,1-2.28,2.3,2.25,2.25,0,0,1-1.63-.67A2.27,2.27,0,0,1,1151.73,2922.12Zm4,6.32v15.22h-3.52v-15.22Z"/><path d="M1160.23,2928.44h3.52v1.41a7.17,7.17,0,0,1,1.73-1.44,4.21,4.21,0,0,1,1.92-.39,4.67,4.67,0,0,1,4.08,2.25A5.29,5.29,0,0,1,1176,2928c3.42,0,5.14,2.08,5.14,6.24v9.4h-3.53v-8.45a6.4,6.4,0,0,0-.54-3.09,1.91,1.91,0,0,0-1.79-.93,2.3,2.3,0,0,0-2.12,1.1,7.07,7.07,0,0,0-.66,3.51v7.86h-3.53v-8.4c0-2.71-.79-4.07-2.35-4.07a2.34,2.34,0,0,0-2.16,1.11,6.86,6.86,0,0,0-.68,3.5v7.86h-3.52Z"/><path d="M1199.4,2936.88h-10.9a4.61,4.61,0,0,0,1.22,3,3.71,3.71,0,0,0,2.76,1.09,3.55,3.55,0,0,0,2.17-.63,8.56,8.56,0,0,0,1.93-2.31l3,1.66a11.56,11.56,0,0,1-1.45,2,8,8,0,0,1-1.64,1.37,6.58,6.58,0,0,1-1.89.79,9,9,0,0,1-2.2.25,7.16,7.16,0,0,1-5.47-2.19,8.17,8.17,0,0,1-2.06-5.84,8.38,8.38,0,0,1,2-5.84,7.61,7.61,0,0,1,10.65-.07,8.43,8.43,0,0,1,1.94,5.89Zm-3.61-2.87a3.37,3.37,0,0,0-3.54-2.82,3.7,3.7,0,0,0-1.21.2,3.63,3.63,0,0,0-1,.56,3.69,3.69,0,0,0-.79.88,4.33,4.33,0,0,0-.5,1.18Z"/><path d="M1212.09,2931l-2.9,1.54c-.46-.93-1-1.4-1.71-1.4a1.2,1.2,0,0,0-.83.32,1.06,1.06,0,0,0-.34.82c0,.58.68,1.16,2,1.73a12.43,12.43,0,0,1,3.77,2.22,3.84,3.84,0,0,1,1,2.74,4.79,4.79,0,0,1-1.63,3.68,5.82,5.82,0,0,1-9.23-2.32l3-1.39a6.55,6.55,0,0,0,1,1.39,2.21,2.21,0,0,0,1.53.59c1.19,0,1.78-.54,1.78-1.63,0-.62-.46-1.2-1.37-1.75l-1.07-.51-1.07-.52a6.67,6.67,0,0,1-2.16-1.5,3.68,3.68,0,0,1-.8-2.45,4.36,4.36,0,0,1,1.36-3.28,4.75,4.75,0,0,1,3.38-1.3A4.6,4.6,0,0,1,1212.09,2931Z"/><path d="M1237.33,2928.44h3.53v15.22h-3.53v-1.59a6.75,6.75,0,0,1-9.89-.25,8.45,8.45,0,0,1-2-5.81,8.22,8.22,0,0,1,2-5.71,6.59,6.59,0,0,1,5.12-2.28,6.48,6.48,0,0,1,4.77,2.19ZM1229,2936a5.3,5.3,0,0,0,1.17,3.56,3.86,3.86,0,0,0,3,1.39,4,4,0,0,0,3.15-1.34,5.81,5.81,0,0,0,0-7.07,4,4,0,0,0-3.12-1.36,3.87,3.87,0,0,0-3,1.38A5,5,0,0,0,1229,2936Z"/><path d="M1245.29,2928.44h3.54v1.41A5.73,5.73,0,0,1,1253,2928a5.26,5.26,0,0,1,4.14,1.67c.86.95,1.28,2.5,1.28,4.64v9.33h-3.53v-8.5a5.66,5.66,0,0,0-.62-3.11,2.54,2.54,0,0,0-2.22-.87,2.72,2.72,0,0,0-2.49,1.15,8.12,8.12,0,0,0-.71,4v7.34h-3.54Z"/><path d="M1262.31,2922.12a2.18,2.18,0,0,1,.67-1.6,2.29,2.29,0,0,1,3.91,1.61,2.25,2.25,0,0,1-.67,1.63,2.21,2.21,0,0,1-1.61.67,2.29,2.29,0,0,1-2.3-2.31Zm4,6.32v15.22h-3.52v-15.22Z"/><path d="M1268.59,2934.4h7v3.06h-7Z"/><path d="M246,2976.84h3.51v1.41a7.37,7.37,0,0,1,1.74-1.44,4.21,4.21,0,0,1,1.92-.39,4.67,4.67,0,0,1,4.08,2.25,5.27,5.27,0,0,1,4.48-2.25q5.14,0,5.14,6.24v9.4h-3.53v-8.45a6.54,6.54,0,0,0-.53-3.09,1.91,1.91,0,0,0-1.8-.93,2.29,2.29,0,0,0-2.11,1.1,6.94,6.94,0,0,0-.67,3.51v7.86H254.7v-8.4q0-4.07-2.34-4.07a2.37,2.37,0,0,0-2.17,1.11,7,7,0,0,0-.68,3.5v7.86H246Z"/><path d="M282.53,2976.84h3.53v15.22h-3.53v-1.59a6.75,6.75,0,0,1-9.89-.25,8.45,8.45,0,0,1-2.05-5.81,8.2,8.2,0,0,1,2.05-5.71,6.59,6.59,0,0,1,5.12-2.28,6.48,6.48,0,0,1,4.77,2.19Zm-8.34,7.57a5.32,5.32,0,0,0,1.17,3.56,3.82,3.82,0,0,0,3,1.39,4.07,4.07,0,0,0,3.16-1.34,5.81,5.81,0,0,0,0-7.07,4,4,0,0,0-3.13-1.36,3.87,3.87,0,0,0-3,1.38A5.08,5.08,0,0,0,274.19,2984.41Z"/><path d="M294,2965.67v26.39H290.5v-26.39Z"/><path d="M307.31,2979.44,304.4,2981c-.45-.93-1-1.4-1.7-1.4a1.2,1.2,0,0,0-.83.32,1.06,1.06,0,0,0-.34.82c0,.58.68,1.16,2,1.73a12.22,12.22,0,0,1,3.77,2.22,3.84,3.84,0,0,1,1,2.74,4.81,4.81,0,0,1-1.63,3.68,5.82,5.82,0,0,1-9.23-2.32l3-1.4a6.43,6.43,0,0,0,.95,1.4,2.21,2.21,0,0,0,1.53.59c1.19,0,1.78-.54,1.78-1.63,0-.62-.46-1.2-1.37-1.75l-1.07-.51-1.07-.52a6.56,6.56,0,0,1-2.16-1.5,3.68,3.68,0,0,1-.8-2.45,4.36,4.36,0,0,1,1.36-3.28,4.75,4.75,0,0,1,3.38-1.3A4.61,4.61,0,0,1,307.31,2979.44Z"/><path d="M332.55,2976.84h3.53v15.22h-3.53v-1.59a6.77,6.77,0,0,1-9.9-.25,8.5,8.5,0,0,1-2-5.81,8.24,8.24,0,0,1,2-5.71,6.62,6.62,0,0,1,5.13-2.28,6.48,6.48,0,0,1,4.77,2.19Zm-8.35,7.57a5.32,5.32,0,0,0,1.17,3.56,3.85,3.85,0,0,0,3,1.39,4,4,0,0,0,3.16-1.34,5.81,5.81,0,0,0,0-7.07,4,4,0,0,0-3.12-1.36,3.91,3.91,0,0,0-3,1.38A5.08,5.08,0,0,0,324.2,2984.41Z"/><path d="M340.51,2976.84H344v1.36a6.94,6.94,0,0,1,1.72-1.39,3.93,3.93,0,0,1,1.81-.39,5.63,5.63,0,0,1,2.91.91l-1.61,3.22a3.37,3.37,0,0,0-2-.72q-2.86,0-2.87,4.34v7.89h-3.52Z"/><path d="M366.12,2985.28h-10.9a4.61,4.61,0,0,0,1.22,3,3.73,3.73,0,0,0,2.76,1.09,3.55,3.55,0,0,0,2.17-.63,8.56,8.56,0,0,0,1.93-2.31l3,1.66a11.56,11.56,0,0,1-1.45,2,8,8,0,0,1-1.64,1.37,6.58,6.58,0,0,1-1.89.79,9,9,0,0,1-2.2.25,7.16,7.16,0,0,1-5.47-2.19,8.17,8.17,0,0,1-2.06-5.84,8.41,8.41,0,0,1,2-5.85,7.62,7.62,0,0,1,10.65-.06,8.43,8.43,0,0,1,1.94,5.89Zm-3.61-2.87a3.37,3.37,0,0,0-3.54-2.82,3.7,3.7,0,0,0-1.21.2,3.63,3.63,0,0,0-1,.56,3.69,3.69,0,0,0-.79.88,4.33,4.33,0,0,0-.5,1.18Z"/><path d="M392.56,2971.36h-8.41v5.8h8.11v3.42h-8.11v11.48h-3.64v-24.12h12.05Z"/><path d="M395.11,2984.34a7.56,7.56,0,0,1,2.36-5.61,8.32,8.32,0,0,1,11.53,0,7.75,7.75,0,0,1,2.34,5.72,7.67,7.67,0,0,1-2.36,5.73,8.06,8.06,0,0,1-5.83,2.3,7.73,7.73,0,0,1-5.73-2.34A7.91,7.91,0,0,1,395.11,2984.34Zm3.59.07a5.16,5.16,0,0,0,1.22,3.61,4.3,4.3,0,0,0,3.3,1.34,4.26,4.26,0,0,0,3.29-1.33,5.69,5.69,0,0,0,0-7.09,4.66,4.66,0,0,0-6.56,0A4.89,4.89,0,0,0,398.7,2984.41Z"/><path d="M414.34,2984.34a7.6,7.6,0,0,1,2.36-5.61,8.32,8.32,0,0,1,11.53,0,8.14,8.14,0,0,1,0,11.45,8.09,8.09,0,0,1-5.83,2.3,7.77,7.77,0,0,1-5.74-2.34A7.91,7.91,0,0,1,414.34,2984.34Zm3.6.07a5.15,5.15,0,0,0,1.21,3.61,4.33,4.33,0,0,0,3.3,1.34,4.27,4.27,0,0,0,3.3-1.33,5.72,5.72,0,0,0,0-7.09,4.29,4.29,0,0,0-3.3-1.35,4.23,4.23,0,0,0-3.26,1.35A4.85,4.85,0,0,0,417.94,2984.41Z"/><path d="M445.51,2965.67h3.54v26.39h-3.54v-1.59a6.56,6.56,0,0,1-4.7,2,6.72,6.72,0,0,1-5.19-2.28,8.5,8.5,0,0,1-2-5.81,8.22,8.22,0,0,1,2-5.69,6.55,6.55,0,0,1,5.11-2.3,6.47,6.47,0,0,1,4.78,2.19Zm-8.34,18.74a5.32,5.32,0,0,0,1.17,3.56,3.82,3.82,0,0,0,3,1.39,4,4,0,0,0,3.16-1.34,5.81,5.81,0,0,0,0-7.07,4,4,0,0,0-3.13-1.36,3.9,3.9,0,0,0-3,1.38A5.08,5.08,0,0,0,437.17,2984.41Z"/><path d="M474.58,2976.84h3.53v15.22h-3.53v-1.59a6.75,6.75,0,0,1-9.89-.25,8.45,8.45,0,0,1-2.05-5.81,8.2,8.2,0,0,1,2.05-5.71,6.59,6.59,0,0,1,5.12-2.28,6.48,6.48,0,0,1,4.77,2.19Zm-8.35,7.57a5.32,5.32,0,0,0,1.17,3.56,3.86,3.86,0,0,0,3,1.39,4,4,0,0,0,3.15-1.34,5.77,5.77,0,0,0,0-7.07,4,4,0,0,0-3.12-1.36,3.87,3.87,0,0,0-3,1.38A5,5,0,0,0,466.23,2984.41Z"/><path d="M482.55,2976.84h3.53v1.41a5.75,5.75,0,0,1,4.15-1.83,5.26,5.26,0,0,1,4.14,1.67c.86.95,1.28,2.5,1.28,4.64v9.33h-3.53v-8.5a5.66,5.66,0,0,0-.62-3.11,2.54,2.54,0,0,0-2.22-.87,2.69,2.69,0,0,0-2.48,1.15,8,8,0,0,0-.72,4v7.34h-3.53Z"/><path d="M511.31,2965.67h3.53v26.39h-3.53v-1.59a6.56,6.56,0,0,1-4.7,2,6.7,6.7,0,0,1-5.19-2.28,8.5,8.5,0,0,1-2.05-5.81,8.23,8.23,0,0,1,2.05-5.69,6.57,6.57,0,0,1,9.89-.11ZM503,2984.41a5.32,5.32,0,0,0,1.17,3.56,3.82,3.82,0,0,0,3,1.39,4.07,4.07,0,0,0,3.16-1.34,5.81,5.81,0,0,0,0-7.07,4,4,0,0,0-3.13-1.36,3.87,3.87,0,0,0-3,1.38A5.08,5.08,0,0,0,503,2984.41Z"/><path d="M538,2979.44l-2.91,1.54c-.46-.93-1-1.4-1.7-1.4a1.2,1.2,0,0,0-.83.32,1.06,1.06,0,0,0-.34.82c0,.58.67,1.16,2,1.73a12.15,12.15,0,0,1,3.76,2.22,3.79,3.79,0,0,1,1,2.74,4.8,4.8,0,0,1-1.62,3.68,5.83,5.83,0,0,1-9.24-2.32l3-1.4a6.73,6.73,0,0,0,1,1.4,2.17,2.17,0,0,0,1.53.59c1.19,0,1.78-.54,1.78-1.63,0-.62-.46-1.2-1.38-1.75l-1.06-.51-1.08-.52a6.5,6.5,0,0,1-2.15-1.5,3.68,3.68,0,0,1-.8-2.45,4.32,4.32,0,0,1,1.36-3.28,4.75,4.75,0,0,1,3.37-1.3A4.62,4.62,0,0,1,538,2979.44Z"/><path d="M541.42,2984.34a7.6,7.6,0,0,1,2.36-5.61,8.32,8.32,0,0,1,11.53,0,8.16,8.16,0,0,1,0,11.45,8.09,8.09,0,0,1-5.83,2.3,7.75,7.75,0,0,1-5.74-2.34A7.91,7.91,0,0,1,541.42,2984.34Zm3.59.07a5.16,5.16,0,0,0,1.22,3.61,4.75,4.75,0,0,0,6.6,0,5.72,5.72,0,0,0,0-7.09,4.67,4.67,0,0,0-6.57,0A4.89,4.89,0,0,0,545,2984.41Z"/><path d="M561.37,2976.84h3.52v1.41a7.36,7.36,0,0,1,1.73-1.44,4.22,4.22,0,0,1,1.93-.39,4.66,4.66,0,0,1,4.07,2.25,5.29,5.29,0,0,1,4.49-2.25c3.42,0,5.14,2.08,5.14,6.24v9.4h-3.53v-8.45a6.54,6.54,0,0,0-.53-3.09,1.94,1.94,0,0,0-1.8-.93,2.3,2.3,0,0,0-2.12,1.1,7.07,7.07,0,0,0-.66,3.51v7.86h-3.53v-8.4q0-4.07-2.35-4.07a2.34,2.34,0,0,0-2.16,1.11,7,7,0,0,0-.68,3.5v7.86h-3.52Z"/><path d="M600.55,2985.28H589.64a4.61,4.61,0,0,0,1.22,3,3.75,3.75,0,0,0,2.76,1.09,3.61,3.61,0,0,0,2.18-.63,8.75,8.75,0,0,0,1.92-2.31l3,1.66a12.13,12.13,0,0,1-1.46,2,7.76,7.76,0,0,1-1.64,1.37,6.58,6.58,0,0,1-1.89.79,9,9,0,0,1-2.2.25,7.16,7.16,0,0,1-5.47-2.19,8.17,8.17,0,0,1-2.06-5.84,8.41,8.41,0,0,1,2-5.85,7.62,7.62,0,0,1,10.65-.06,8.43,8.43,0,0,1,1.94,5.89Zm-3.61-2.87a3.38,3.38,0,0,0-3.55-2.82,3.6,3.6,0,0,0-1.2.2,3.55,3.55,0,0,0-1,.56,3.69,3.69,0,0,0-.79.88,4.33,4.33,0,0,0-.5,1.18Z"/><path d="M608.3,2980.12v11.94h-3.52v-11.94h-1.5v-3.28h1.5v-5.57h3.52v5.57H611v3.28Z"/><path d="M612.89,2970.52a2.18,2.18,0,0,1,.67-1.6,2.29,2.29,0,0,1,3.91,1.61,2.25,2.25,0,0,1-.67,1.63,2.21,2.21,0,0,1-1.61.67,2.29,2.29,0,0,1-2.3-2.31Zm4.05,6.32v15.22h-3.52v-15.22Z"/><path d="M621.39,2976.84h3.51v1.41a7.37,7.37,0,0,1,1.74-1.44,4.21,4.21,0,0,1,1.92-.39,4.67,4.67,0,0,1,4.08,2.25,5.27,5.27,0,0,1,4.48-2.25q5.14,0,5.14,6.24v9.4h-3.53v-8.45a6.54,6.54,0,0,0-.53-3.09,1.91,1.91,0,0,0-1.8-.93,2.29,2.29,0,0,0-2.11,1.1,6.94,6.94,0,0,0-.67,3.51v7.86h-3.53v-8.4q0-4.07-2.34-4.07a2.37,2.37,0,0,0-2.17,1.11,7,7,0,0,0-.68,3.5v7.86h-3.51Z"/><path d="M660.56,2985.28H649.65a4.66,4.66,0,0,0,1.22,3,3.75,3.75,0,0,0,2.77,1.09,3.58,3.58,0,0,0,2.17-.63,8.75,8.75,0,0,0,1.92-2.31l3,1.66a12.1,12.1,0,0,1-1.45,2,8,8,0,0,1-1.64,1.37,6.82,6.82,0,0,1-1.89.79,9.12,9.12,0,0,1-2.21.25,7.17,7.17,0,0,1-5.47-2.19,8.21,8.21,0,0,1-2.06-5.84,8.46,8.46,0,0,1,2-5.85,6.94,6.94,0,0,1,5.35-2.2,6.85,6.85,0,0,1,5.31,2.14,8.43,8.43,0,0,1,1.94,5.89Zm-3.61-2.87a3.37,3.37,0,0,0-3.55-2.82,3.68,3.68,0,0,0-1.2.2,3.49,3.49,0,0,0-1,.56,3.69,3.69,0,0,0-.79.88,4,4,0,0,0-.5,1.18Z"/><path d="M673.25,2979.44l-2.91,1.54c-.46-.93-1-1.4-1.7-1.4a1.2,1.2,0,0,0-.83.32,1.06,1.06,0,0,0-.34.82c0,.58.67,1.16,2,1.73a12.15,12.15,0,0,1,3.76,2.22,3.79,3.79,0,0,1,1,2.74,4.8,4.8,0,0,1-1.62,3.68,5.83,5.83,0,0,1-9.24-2.32l3-1.4a6.73,6.73,0,0,0,1,1.4,2.17,2.17,0,0,0,1.53.59c1.18,0,1.78-.54,1.78-1.63,0-.62-.46-1.2-1.38-1.75l-1.06-.51-1.08-.52a6.5,6.5,0,0,1-2.15-1.5,3.68,3.68,0,0,1-.8-2.45,4.32,4.32,0,0,1,1.36-3.28,4.75,4.75,0,0,1,3.37-1.3A4.62,4.62,0,0,1,673.25,2979.44Z"/><path d="M691.58,2982.27v9.79h-3.64v-24.12h4.12a18.7,18.7,0,0,1,4.58.42,6.13,6.13,0,0,1,2.75,1.59,6.91,6.91,0,0,1,2.08,5.13,6.61,6.61,0,0,1-2.22,5.25,8.81,8.81,0,0,1-6,1.94Zm0-3.38h1.36q5,0,5-3.86t-5.17-3.73h-1.2Z"/><path d="M717.61,2985.28H706.7a4.61,4.61,0,0,0,1.22,3,3.75,3.75,0,0,0,2.77,1.09,3.6,3.6,0,0,0,2.17-.63,8.75,8.75,0,0,0,1.92-2.31l3,1.66a12.13,12.13,0,0,1-1.46,2,7.76,7.76,0,0,1-1.64,1.37,6.58,6.58,0,0,1-1.89.79,9,9,0,0,1-2.2.25,7.17,7.17,0,0,1-5.47-2.19,8.21,8.21,0,0,1-2.06-5.84,8.46,8.46,0,0,1,2-5.85,7.63,7.63,0,0,1,10.66-.06,8.43,8.43,0,0,1,1.93,5.89Zm-3.61-2.87a3.37,3.37,0,0,0-3.55-2.82,3.6,3.6,0,0,0-1.2.2,3.55,3.55,0,0,0-1,.56,3.65,3.65,0,0,0-.78.88,4,4,0,0,0-.5,1.18Z"/><path d="M725.36,2980.12v11.94h-3.52v-11.94h-1.5v-3.28h1.5v-5.57h3.52v5.57h2.73v3.28Z"/><path d="M739.33,2979.44l-2.91,1.54c-.46-.93-1-1.4-1.7-1.4a1.18,1.18,0,0,0-.83.32,1.07,1.07,0,0,0-.35.82c0,.58.68,1.16,2,1.73a12.15,12.15,0,0,1,3.76,2.22,3.79,3.79,0,0,1,1,2.74,4.8,4.8,0,0,1-1.62,3.68,5.83,5.83,0,0,1-9.24-2.32l3-1.4a7.26,7.26,0,0,0,.95,1.4,2.21,2.21,0,0,0,1.54.59c1.18,0,1.78-.54,1.78-1.63,0-.62-.46-1.2-1.38-1.75l-1.06-.51-1.08-.52a6.67,6.67,0,0,1-2.16-1.5,3.68,3.68,0,0,1-.79-2.45,4.32,4.32,0,0,1,1.36-3.28,4.73,4.73,0,0,1,3.37-1.3A4.62,4.62,0,0,1,739.33,2979.44Z"/><path d="M744,2990.31a2.18,2.18,0,0,1,4.35,0,2.11,2.11,0,0,1-.64,1.54,2.17,2.17,0,0,1-3.71-1.56Z"/><path d="M1831.27,2802.22a1.64,1.64,0,0,0-1.9,1.33c-.15.89.58.92,1.47,1.07s1.61.39,1.76-.5A1.63,1.63,0,0,0,1831.27,2802.22Z"/><path d="M1847.85,2828.26c3.22-9.45,12.76-17.49,12.28-29.44,1.23,6.81,5.8,17.14,12,13.91l-.05-.56c-8.11-.23-1-14.43-2.7-19.2-1.35-3.75-7.64-6.4-10.75-3.5-2.57-5.11-11.13-9.56-16.85-9.53-17.23.07-17.37,11.82-13.32,12.58l.71-.83c-1.45-1.11.14-2.56,1.6-1.71a1.94,1.94,0,0,1,1,1.28c-4.44,2.52-4.84,4.31-5.44,7a23.15,23.15,0,0,1-4.45,9.73,1.27,1.27,0,0,0-.18,1.13c.28.91,1.6,1.6,2.61,2a15,15,0,0,0,0,2.32.87.87,0,0,0,.36.62c.49.36,1.27.2,2.68-.07l1.36-.26c-.26.37-1.09,1.12-3.62,2.24l-.52.23.11.55c.89,4.5,2.09,5.38,4.62,6.43a21.42,21.42,0,0,1-.59,4.95c-.4-.29-.81-.57-1.2-.86a34.45,34.45,0,0,1-5.57,7.16c-5.11,2.29-6.94,1.08-6.94,1.08l-.45.54c-10.41-8.92-12.6-15.69-12.62-15.73,0-.2-1.2-5-3.11-7.14a.69.69,0,0,0-.93-.1l-.18.12a.7.7,0,0,0-.27.78,5.35,5.35,0,0,1,.27,2,6.39,6.39,0,0,1-2.32-3.32.72.72,0,0,0-.41-.41.71.71,0,0,0-.57,0l-2.23,1.13a.7.7,0,0,0-.38.7,15.86,15.86,0,0,0,1.75,5.79,4.7,4.7,0,0,0,1.43,1.45,2.28,2.28,0,0,1,1,1.19c1.61,5,3.72,10.45,7.23,14.62-8.78-4.54-16.47-11.87-17.55-12.92a19.83,19.83,0,0,0-2.94-6.18.71.71,0,0,0-.94-.13l-.2.14a.72.72,0,0,0-.29.78,5.09,5.09,0,0,1,.12,2c-.88-.57-1.74-2.12-2.54-3.74a.74.74,0,0,0-.42-.36.73.73,0,0,0-.56.05l-2.88,1.59a.7.7,0,0,0-.36.73,14,14,0,0,0,2.48,5.79,6,6,0,0,0,2.41,1.58,4.45,4.45,0,0,1,1.26.7,94.47,94.47,0,0,0,21.24,22.77l-.36.62s4.28,4.15,14.53,6.09c-4.09,1.76-7.21.45-10.17-.42a33.67,33.67,0,0,1-10.77,11.11c5.76,14.26,15.63,20.19,27,22.89,24.88-28.51,19.59-58,19.59-58-.3,0-.59.06-.88.08a11.83,11.83,0,0,1,3.56-4.86,6.18,6.18,0,0,0,.43-.56A6.58,6.58,0,0,0,1847.85,2828.26Zm-50.49-6.19a3.65,3.65,0,0,0-1.56-1.92,3.37,3.37,0,0,1-1-1,14,14,0,0,1-1.49-4.73l1.1-.56c.77,1.69,2,3.34,3.36,3.57a1.09,1.09,0,0,0,1-.36,1.68,1.68,0,0,0,.34-.74,28.7,28.7,0,0,1,1.48,4.38c.09.32,2.31,7.24,13.07,16.45l-2.17,2.58a11.52,11.52,0,0,1-4.19-.59.63.63,0,0,0-.18-.22C1802,2834.89,1799.32,2828.14,1797.36,2822.07Zm-15.35,4.27a4.12,4.12,0,0,0-1.86-1.21,5.1,5.1,0,0,1-1.86-1.14,12.69,12.69,0,0,1-2.12-4.68l1.79-1c1.07,2.07,2,3.45,3.26,3.92a1,1,0,0,0,1.12-.2,2,2,0,0,0,.52-1.22,24.83,24.83,0,0,1,1.52,3.93.68.68,0,0,0,.18.32c.1.1,10.57,10.48,21.66,15a52.9,52.9,0,0,1-3.45,8.58A92.73,92.73,0,0,1,1782,2826.34Zm57.47,6a17.77,17.77,0,0,1-9.55-3.37,22.23,22.23,0,0,0,.78-6.27v-.47l-.44-.17c-2.34-.95-3.28-1.33-4.08-5,2.69-1.24,4-2.34,4.07-3.45a1.38,1.38,0,0,0-.62-1.25l-.22-.13-.25,0c-.74.1-1.46.24-2.09.37-.48.09-1,.2-1.4.24a19.82,19.82,0,0,1,.09-2.12l0-.55-.52-.19a5.34,5.34,0,0,1-2.22-1.24,24.81,24.81,0,0,0,4.64-10.18c.51-2.32.81-3.68,4-5.64,1.31.82,10.21,6.67,6.79,12.59l.88,1.23c1.43-1.9,4-5.8,6.1-2.69,1,1.55-.31,5.68-4.19,7.6h0c2,.43,1.89,5,1.8,6.59-.18,3.49,0,5.89,1,7.51a4.13,4.13,0,0,1-.46.63A13.13,13.13,0,0,0,1839.48,2832.34Z"/><path d="M1794,2867.82a1.42,1.42,0,0,1,.54-1.72c1-.63,1.84-1.25,2.65-1.85-14.94-9.35-27.41-16.7-27.41-16.7a176.25,176.25,0,0,0-41.53,19.4l.46,1.67s-5.68-5.85-10.55-4.79c2.39,3.91,11.39,11.26,11.39,11.26.83-1,.79-2.15,1.15-2.42s7.52-2.84,12-4.45c12.41-12.15,20.87-14.72,21.36-14.86l.43-.12.43.15c.16.06,13.27,4.71,23.92,9.32,1.23.51.63,1.73-1.61.84h0c-10.48-4.48-22.78-8.83-22.78-8.83s-15.88,4.55-36.31,32.85l1.33,1.17s-7-2.47-11.54-1.39c1.8,3.21,13.79,6.89,13.79,6.89.95-1.37.21-2.36.75-2.87,2.45-2.31,13.56-10.78,31.85-18.27,0,0,27.22,27.61,36.27,26.26,3.93-.58,14-2.23,20.58-8C1807.72,2887.93,1799.08,2880.45,1794,2867.82Z"/><path d="M1721.77,2828.43c.71.82,2.64,13.5-2.2,19.92l2,1.81c5.84-3.11,13.28-11.12,17.81-21.53a40.35,40.35,0,0,0,3.22-11.18,1.63,1.63,0,0,1,1.52-1.43,19,19,0,0,1-.27,3.77c18.46-16.06,37.75-19.5,51.14-18.88l.82-3.57s-11-3.37-18.5-4.2a18.5,18.5,0,0,0-.06-4.4,71.8,71.8,0,0,0,12.32-.72c-1.34-.66-4.64-3-5.21-4.39l.43-.32c.48,1,4.66,3.84,7.3,4.1a15.59,15.59,0,0,0,2.36-.86c2.13-1,2.72-2.39,2.46-4.65,0,0-6-1.5-9.81-4.92,0,0-1.11-6.05-3.36-7s-13.85-1.49-15-1.78c-1.92-.46-4.16-2.52-7.06-5.92-3.21,3.92.75,7.38,1.73,10.29.42,1.42,1.68,4.77-3.79,7.4-11.52,5.53-20.79,17.36-32.54,35.24-2.36,3.58-6.06,5-9.84,3a5.48,5.48,0,0,1-3.16-5.25l-.87-.31C1710.29,2820.93,1719.52,2825.82,1721.77,2828.43Zm60.42-53a1.34,1.34,0,0,1,1.44,1.19c.07.73-.59.78-1.32.85s-1.24.13-1.31-.6A1.32,1.32,0,0,1,1782.19,2775.44Z"/><polygon points="1684.44 2931.02 1724.12 2931.02 1724.12 2936.69 1729.79 2936.69 1729.79 2925.35 1709.95 2925.35 1711.52 2923 1703.02 2917.33 1699.87 2922.04 1704.84 2925.35 1678.77 2925.35 1678.77 2936.69 1684.44 2936.69 1684.44 2931.02"/><path d="M1769.51,2919.28c-1.38,9.65-2.07,14.5-3.33,17.32-1,2.33-2.45,3.35-6.78,6.24l3.15,4.71c1.61-1.07,3-2,4.09-2.9v31.73h5.67v-39.69h-.15c1.09-3.51,1.8-8.51,3-16.6Z"/><path d="M1732.63,2966.42a9.79,9.79,0,0,0-4-8,10.08,10.08,0,0,0-9-1.51,57.26,57.26,0,0,0-9.09,3.75,22.44,22.44,0,0,1,1.29-12.67h18v-5.67h-11.34L1720,2940l-8.51-5.67-3.14,4.72,5,3.31h-14.89c.1-1.78.16-3.66.16-5.67h-5.67c0,2,0,3.91-.15,5.67h-14V2948h13.47c-2,14.08-8.32,18.35-17.57,23l2.53,5.07c10.19-5.09,18.36-10.67,20.72-28h7.84a27.29,27.29,0,0,0-.4,15.53,134.56,134.56,0,0,0-11.28,7.72l3.4,4.53c3.93-2.95,7.3-5.24,10.23-7,3.2,4.91,8.49,7.61,15,7.61A9.74,9.74,0,0,0,1732.63,2966.42Zm-20-.46a49.73,49.73,0,0,1,8.6-3.59,4.47,4.47,0,0,1,4,.65,4.17,4.17,0,0,1,1.71,3.4,4.07,4.07,0,0,1-4.29,4.29C1718.19,2970.71,1714.82,2969.11,1712.65,2966Z"/><path d="M1800.66,2976.38v-9.7l16.81,1.19.4-5.66-12.27-.87c4.41-1.27,8.17-3,10.19-5.28a7.07,7.07,0,0,0,1.86-5.48,6.82,6.82,0,0,0-2.88-4.86c-3-2.22-8.34-3-14.11-3v-3.33c8.73-.73,14.13-5,16.86-13.15l-5.38-1.79c-2,5.92-5.29,8.67-11.48,9.27v-14H1795v14c-6.19-.6-9.51-3.35-11.48-9.27l-5.38,1.79c2.73,8.2,8.13,12.42,16.86,13.15v3.52a143.9,143.9,0,0,0-17.56,2.33l1.1,5.56a125.28,125.28,0,0,1,16.46-2.21v9.21a146.58,146.58,0,0,1-17.43,1.56l-.13,5.66,17.56,1.25v10.1Zm0-27.94c5.86.06,9.47.9,10.74,1.84.56.41.6.71.61.88s.06.55-.48,1.16c-1.65,1.88-5.8,3.35-10.87,4.46Z"/><path d="M1885.12,2953.88c5-.18,10-.18,14.75-.18V2948c-5.24,0-10.65,0-15.92.21-.27-1.83-.48-3.78-.63-5.88h16.55v-5.67H1883c-.16-5-.17-10.59-.17-17h-5.67c0,6.27,0,11.91.18,17h-11.6c-1-3.91-2-6.86-2.51-8.39a38.16,38.16,0,0,0,7-3.42l-3.14-4.72a36.4,36.4,0,0,1-18.25,5.21V2931a38.61,38.61,0,0,0,8.94-1.08c.41,1.11,1.22,3.47,2.08,6.73h-11.05v5.67h12.38c.54,2.67,1,5.64,1.36,8.81-6.19,1.89-11,4.92-13.44,9.77a10.7,10.7,0,0,0,1.35,12.26,9.72,9.72,0,0,0,7.16,3.27,9,9,0,0,0,3.25-.61c2.9-1.12,7.78-4.76,7.78-16.49,0-1.31,0-2.6-.09-3.86a87,87,0,0,1,10.74-1.33c2.48,10.15,7.83,17,19.42,22l2.23-5.21C1891.91,2967.05,1887.38,2961.91,1885.12,2953.88Zm-26.26,16.7a3.85,3.85,0,0,1-4.17-1.19c-.66-.74-2-2.78-.47-5.92,1.49-3,4.62-5,8.76-6.48,0,.79,0,1.58,0,2.38C1863,2965.38,1861.47,2969.57,1858.86,2970.58Zm9.29-20.75c-.29-2.66-.69-5.15-1.13-7.47h10.63q.22,3.27.63,6.21A91.29,91.29,0,0,0,1868.15,2949.83Z"/><rect x="1889.95" y="2923.08" width="5.67" height="10.22" transform="translate(-1593.55 2878.91) rotate(-56.31)"/><polygon points="1726.56 3012.66 1722.93 3004.22 1719.33 3012.66 1715.99 3005.38 1712.68 3005.38 1719.34 3019.09 1722.93 3010.88 1726.48 3019.09 1733.16 3005.38 1729.86 3005.38 1726.56 3012.66"/><path d="M1739.3,2998.18a1.87,1.87,0,0,0-1.35.56,1.85,1.85,0,0,0-.56,1.34,1.87,1.87,0,0,0,.56,1.37,1.85,1.85,0,0,0,1.36.57,1.8,1.8,0,0,0,1.35-.57,1.83,1.83,0,0,0,.56-1.36,1.8,1.8,0,0,0-.56-1.35A1.86,1.86,0,0,0,1739.3,2998.18Z"/><rect x="1737.83" y="3005.38" width="2.95" height="12.76"/><polygon points="1750.23 3000.71 1747.29 3000.71 1747.29 3005.38 1746.03 3005.38 1746.03 3008.13 1747.29 3008.13 1747.29 3018.14 1750.23 3018.14 1750.23 3008.13 1752.52 3008.13 1752.52 3005.38 1750.23 3005.38 1750.23 3000.71"/><path d="M1764.16,3005a5.1,5.1,0,0,0-3.47,1.41V2996h-2.94v22.12h2.94V3012a6.58,6.58,0,0,1,.62-3.33,2.41,2.41,0,0,1,2.17-.95,2.08,2.08,0,0,1,1.75.69,3.58,3.58,0,0,1,.55,2.22v7.54h2.94v-7.82a5.67,5.67,0,0,0-1.1-3.89A4.48,4.48,0,0,0,1764.16,3005Z"/><path d="M1788.33,3005a4.42,4.42,0,0,0-3.76,1.88,3.93,3.93,0,0,0-3.42-1.88,3.49,3.49,0,0,0-1.61.33,6.31,6.31,0,0,0-1.46,1.2v-1.18h-2.94v12.76h2.94v-6.59a5.8,5.8,0,0,1,.57-2.93,2,2,0,0,1,1.82-.93c1.31,0,2,1.13,2,3.4v7h3v-6.59a6,6,0,0,1,.56-3,1.91,1.91,0,0,1,1.77-.91,1.61,1.61,0,0,1,1.51.77,5.44,5.44,0,0,1,.44,2.59v7.09h3v-7.89Q1792.63,3005,1788.33,3005Z"/><path d="M1806.67,3015.35a3,3,0,0,1-1.82.52,3.12,3.12,0,0,1-2.32-.91,3.91,3.91,0,0,1-1-2.51h9.14v-.69a7.09,7.09,0,0,0-1.62-4.94,6.39,6.39,0,0,0-8.93.06,7,7,0,0,0-1.68,4.89,6.88,6.88,0,0,0,1.73,4.9,6,6,0,0,0,4.58,1.84,7.7,7.7,0,0,0,1.85-.21,5.32,5.32,0,0,0,1.59-.67,6.59,6.59,0,0,0,1.37-1.15,9.46,9.46,0,0,0,1.22-1.68l-2.49-1.39A7.51,7.51,0,0,1,1806.67,3015.35Zm-4.54-6.29a2.92,2.92,0,0,1,.66-.74,2.87,2.87,0,0,1,.86-.47,3,3,0,0,1,1-.16,2.82,2.82,0,0,1,3,2.35h-5.92A3.19,3.19,0,0,1,1802.13,3009.06Z"/><path d="M1818.83,3014.86a1.75,1.75,0,0,0-1.28.54,1.73,1.73,0,0,0-.54,1.27,1.82,1.82,0,1,0,1.82-1.81Z"/><path d="M1834.42,3005a5.46,5.46,0,0,0-4,1.74v-1.39h-2.94v19.7h2.94v-8.37a5.58,5.58,0,0,0,8.3-.1,6.88,6.88,0,0,0,1.72-4.78,7,7,0,0,0-1.73-4.86A5.51,5.51,0,0,0,1834.42,3005Zm2,9.69a3.2,3.2,0,0,1-2.53,1.15,3.31,3.31,0,0,1-2.62-1.14,4.35,4.35,0,0,1-1-3,4.28,4.28,0,0,1,1-3,3.36,3.36,0,0,1,2.63-1.12,3.23,3.23,0,0,1,2.54,1.16,4.39,4.39,0,0,1,1,3A4.19,4.19,0,0,1,1836.45,3014.72Z"/><path d="M1853.91,3015.35a3,3,0,0,1-1.82.52,3.1,3.1,0,0,1-2.31-.91,3.87,3.87,0,0,1-1-2.51h9.15v-.69a7,7,0,0,0-1.63-4.94,6.39,6.39,0,0,0-8.93.06,7.08,7.08,0,0,0-1.67,4.89,6.84,6.84,0,0,0,1.73,4.9,6,6,0,0,0,4.58,1.84,7.76,7.76,0,0,0,1.85-.21,5.37,5.37,0,0,0,1.58-.67,6.39,6.39,0,0,0,1.38-1.15,10,10,0,0,0,1.21-1.68l-2.48-1.39A7.51,7.51,0,0,1,1853.91,3015.35Zm-4.54-6.29a2.92,2.92,0,0,1,.66-.74,3.13,3.13,0,0,1,.86-.47,3,3,0,0,1,1-.16,2.82,2.82,0,0,1,3,2.35H1849A3.76,3.76,0,0,1,1849.37,3009.06Z"/><polygon points="1867.07 3000.71 1864.13 3000.71 1864.13 3005.38 1862.87 3005.38 1862.87 3008.13 1864.13 3008.13 1864.13 3018.14 1867.07 3018.14 1867.07 3008.13 1869.37 3008.13 1869.37 3005.38 1867.07 3005.38 1867.07 3000.71"/></svg>