<?xml version="1.0" encoding="utf-8"?>
<!-- Generator: Adobe Illustrator 23.0.3, SVG Export Plug-In . SVG Version: 6.00 Build 0)  -->
<svg version="1.1" id="图层_1" xmlns="http://www.w3.org/2000/svg" xmlns:xlink="http://www.w3.org/1999/xlink" x="0px" y="0px"
	 viewBox="0 0 24 24" style="enable-background:new 0 0 24 24;" xml:space="preserve">
<title>insta</title>
<desc>Created with Sketch.</desc>
<path d="M11.6,6.8c0.9,0,1.7,0.2,2.5,0.7c0.8,0.4,1.4,1,1.8,1.8c0.4,0.8,0.7,1.6,0.7,2.5c0,0.9-0.2,1.7-0.7,2.5
	c-0.4,0.8-1,1.4-1.8,1.8c-0.8,0.4-1.6,0.7-2.5,0.7S9.9,16.5,9.2,16c-0.8-0.4-1.4-1-1.8-1.8c-0.4-0.8-0.7-1.6-0.7-2.5
	c0-0.9,0.2-1.7,0.7-2.5c0.4-0.8,1-1.4,1.8-1.8C9.9,7,10.7,6.8,11.6,6.8z M11.6,15c0.9,0,1.6-0.3,2.3-0.9s0.9-1.4,0.9-2.3
	c0-0.9-0.3-1.6-0.9-2.3s-1.4-0.9-2.3-0.9S10,8.8,9.3,9.5s-0.9,1.4-0.9,2.3c0,0.9,0.3,1.6,0.9,2.3S10.7,15,11.6,15z M17.9,6.6
	c0,0.3-0.2,0.6-0.4,0.8c-0.2,0.2-0.5,0.3-0.8,0.3c-0.3,0-0.6-0.1-0.8-0.3c-0.2-0.2-0.3-0.5-0.3-0.8S15.7,6,16,5.8
	c0.2-0.2,0.5-0.3,0.8-0.3c0.3,0,0.6,0.1,0.8,0.3C17.8,6,17.9,6.3,17.9,6.6z M21.2,7.8c0,0.8,0,2.1,0,4s0,3.2-0.1,4
	c0,0.8-0.2,1.5-0.4,2.1c-0.3,0.7-0.7,1.3-1.2,1.9c-0.5,0.5-1.2,0.9-1.9,1.2c-0.6,0.2-1.3,0.3-2.1,0.4s-2.2,0.1-4,0.1s-3.2,0-4-0.1
	s-1.5-0.2-2.1-0.4c-0.7-0.2-1.3-0.6-1.9-1.1c-0.5-0.5-0.9-1.2-1.2-1.9c-0.2-0.6-0.3-1.3-0.4-2.1C2,15,2,13.6,2,11.8s0-3.2,0.1-4
	c0-0.8,0.2-1.5,0.4-2.1c0.3-0.7,0.7-1.3,1.2-1.9s1.2-0.9,1.9-1.2c0.6-0.2,1.3-0.3,2.1-0.4c0.8,0,2.2-0.1,4-0.1s3.2,0,4,0.1
	c0.8,0,1.5,0.2,2.1,0.4c0.7,0.3,1.3,0.7,1.9,1.2s0.9,1.2,1.2,1.9C21,6.2,21.1,6.9,21.2,7.8z M19.1,17.4c0.2-0.5,0.3-1.3,0.3-2.3
	c0-0.6,0-1.5,0-2.7v-1.4c0-1.2,0-2.1,0-2.7c-0.1-1.1-0.2-1.9-0.3-2.3c-0.3-0.9-1-1.5-1.8-1.8c-0.5-0.2-1.2-0.3-2.3-0.3
	c-0.6,0-1.5,0-2.7,0h-1.4c-1.1,0-2,0-2.7,0C7.2,3.9,6.4,4.1,6,4.2c-0.9,0.3-1.5,1-1.8,1.8C3.9,6.5,3.8,7.3,3.8,8.4
	c0,0.6,0,1.5,0,2.7v1.4c0,1.1,0,2,0,2.7c0.1,1.1,0.2,1.8,0.3,2.3c0.4,0.9,1,1.5,1.8,1.8c0.5,0.2,1.3,0.3,2.3,0.3c0.6,0,1.5,0,2.7,0
	h1.4c1.2,0,2.1,0,2.7,0c1.1-0.1,1.9-0.2,2.3-0.3C18.2,18.9,18.8,18.3,19.1,17.4z"/>
</svg>
