<?xml version="1.0" encoding="utf-8"?>
<!-- Generator: Adobe Illustrator 23.0.4, SVG Export Plug-In . SVG Version: 6.00 Build 0)  -->
<svg version="1.1" id="图层_1" xmlns="http://www.w3.org/2000/svg" xmlns:xlink="http://www.w3.org/1999/xlink" x="0px" y="0px"
	 viewBox="0 0 64 64" style="enable-background:new 0 0 64 64;" xml:space="preserve">
<g>
	<path d="M61.09,17.37c-1.13-0.75-2.43-0.82-3.65-0.21c-6.73,3.36-10.85,4.88-13.36,3.29c-1.46-0.92-2.27-2.83-3.13-4.85
		c-2.06-4.82-4.61-10.81-17.3-6.59c-5.58,1.86-10.12,4.98-13.35,9c-2.74-2.87-5.8-5.38-9.1-7.28L0,12.83
		c3.09,1.78,6.09,4.23,8.87,7.18c-2.49,3.83-3.91,8.33-4.09,13.27C4.44,43.37,9.51,52.61,17.12,55.74c1.18,0.49,2.19,0.68,3.04,0.68
		c2.53,0,3.72-1.72,4.17-2.64c3.03-6.17-2.25-22.34-12.37-33.96c2.98-3.88,7.17-6.74,12.47-8.51c10.56-3.52,12.29,0.54,14.3,5.24
		c0.97,2.27,1.97,4.62,4.07,5.95c3.12,1.97,7.22,0.82,12.16-1.45c0.45,2.12,1.86,6.41,5.94,7.46c-1.03,3.13-3.6,7.31-9.92,10.47
		c-2.29,1.14-4.74,1.03-7.3-0.35c-2.02-1.09-3.35-2.58-3.36-2.59l-1.82,1.6c1.4,1.6,4.24,3.79,7.62,4.38
		c-4.29,3.49-5.08,7.61-3.01,13.79l2.3-0.77c-2.28-6.85-0.66-10.22,6.67-13.89c10.2-5.1,11.73-12.76,11.91-15.82
		C64.19,21.79,63.06,18.67,61.09,17.37z M18.38,33.96c4.44,9.13,5.07,16.12,3.77,18.75c-0.28,0.56-1.01,2.06-4.11,0.78
		C11.35,50.74,6.89,42.46,7.21,33.37c0.14-4.15,1.29-8.09,3.34-11.48C13.54,25.4,16.21,29.49,18.38,33.96z"/>
	<ellipse cx="32.93" cy="23.89" rx="2.42" ry="2.42"/>
	<path d="M51.52,27.14c0.45,0,0.81-0.36,0.81-0.81s-0.36-0.81-0.81-0.81c-0.45,0-0.81,0.36-0.81,0.81S51.08,27.14,51.52,27.14z"/>
	<circle cx="54.75" cy="29.56" r="0.81"/>
	<path d="M51.52,31.99c0.45,0,0.81-0.36,0.81-0.81s-0.36-0.81-0.81-0.81c-0.45,0-0.81,0.36-0.81,0.81S51.08,31.99,51.52,31.99z"/>
</g>
</svg>
