<?xml version="1.0" encoding="utf-8"?>
<!-- Generator: Adobe Illustrator 23.0.4, SVG Export Plug-In . SVG Version: 6.00 Build 0)  -->
<svg version="1.1" id="图层_1" xmlns="http://www.w3.org/2000/svg" xmlns:xlink="http://www.w3.org/1999/xlink" x="0px" y="0px"
	 viewBox="0 0 283.46 283.46" style="enable-background:new 0 0 283.46 283.46;" xml:space="preserve">
<style type="text/css">
	.st0{fill:#FAE300;}
	.st1{fill:none;stroke:#040000;stroke-width:8.5;stroke-linecap:round;stroke-linejoin:round;}
	.st2{fill:#040000;}
</style>
<title>ICONS</title>
<path class="st0" d="M255.29,138.81c11.34-59.53-51-59.53-51-59.53V42.43c-28.34,0-36.85,28.35-39.68,34
	c-16.85,0-28.15,25-33.87,58.57c-50.54-9-94.33,43-99.36,83.16c-5.67,45.35,57.84,59.82,68,17c24.08-109.42,30.41-89.82,25.51,11.34
	c62.37,39.68,90.71-19.85,82.21-34c-4.13-6.88-28.35-17-28.35-17c-0.21-7.04-1.31-14.01-3.29-20.77l37.31,6.6
	c42.52,5.67,53.86-25.51,53.86-31.18S255.29,138.81,255.29,138.81z"/>
<path class="st1" d="M107.9,136.07c0,0-8.5,19.84-22.67,79.37c-10.2,42.81-73.7,28.35-68-17S77.88,92.71,136.25,121.9
	c28.35,14.17,28.35,53.86,28.35,53.86s24.22,10.13,28.34,17c8.51,14.18-19.84,73.71-82.2,34"/>
<path class="st1" d="M198.61,161.58c42.52,5.67,53.86-25.51,53.86-31.18c0-5.67-11.34-11.34-11.34-11.34
	c11.34-59.52-51-59.52-51-59.52V22.69c-28.35,0-36.85,28.34-39.69,34c-17,0-25.51,25.51-28.34,39.69"/>
<circle class="st2" cx="141.92" cy="178.59" r="5.67"/>
<circle class="st2" cx="221.29" cy="110.56" r="5.67"/>
</svg>
