<?xml version="1.0" encoding="utf-8"?>
<!-- Generator: Adobe Illustrator 23.0.4, SVG Export Plug-In . SVG Version: 6.00 Build 0)  -->
<svg version="1.1" id="图层_1" xmlns="http://www.w3.org/2000/svg" xmlns:xlink="http://www.w3.org/1999/xlink" x="0px" y="0px"
	 viewBox="0 0 283.46 283.46" style="enable-background:new 0 0 283.46 283.46;" xml:space="preserve">
<style type="text/css">
	.st0{fill:#FAE300;}
	.st1{fill:none;stroke:#040000;stroke-width:8.5;stroke-linecap:round;stroke-linejoin:round;}
</style>
<title>ICONS</title>
<circle class="st0" cx="68.01" cy="149.76" r="28.35"/>
<path class="st1" d="M203.48,25.06L124,243.48c-4.29,11.76-17.3,17.82-29.07,13.53c-0.01,0-0.02-0.01-0.02-0.01l0,0
	c-11.74-4.28-17.8-17.25-13.55-29l0,0c4.29-11.77,17.3-17.84,29.07-13.56l5.32,1.94"/>
<path class="st1" d="M80,25.06l79.5,218.42c4.29,11.75,17.29,17.81,29.05,13.52l0,0c11.74-4.28,17.8-17.25,13.55-29l0,0
	c-4.25-11.78-17.25-17.87-29.02-13.62c-0.03,0.01-0.05,0.02-0.08,0.03l-5.33,1.94"/>
<circle class="st1" cx="56.69" cy="138.44" r="28.35"/>
<path class="st1" d="M45.35,138.44c0-6.26,5.08-11.34,11.34-11.34h0"/>
<path class="st1" d="M141.73,53.4c28.35-28.34,85,56.7,113.39,28.35"/>
<path class="st1" d="M195.59,94.24c22.19,14.74,44.72,30.86,59.53,16.06"/>
<path class="st1" d="M141.73,82c10.37-10.36,24.52-5.57,39.69,3.3"/>
<path class="st1" d="M198.43,124.47c21.25,14.17,42.51,28.35,56.69,14.17"/>
<path class="st1" d="M141.73,110.3c8.4-8.4,19.28-6.85,31.18-1.24"/>
</svg>
