<?xml version="1.0" encoding="utf-8"?>
<!-- Generator: Adobe Illustrator 23.0.4, SVG Export Plug-In . SVG Version: 6.00 Build 0)  -->
<svg version="1.1" id="图层_1" xmlns="http://www.w3.org/2000/svg" xmlns:xlink="http://www.w3.org/1999/xlink" x="0px" y="0px"
	 viewBox="0 0 283.46 283.46" style="enable-background:new 0 0 283.46 283.46;" xml:space="preserve">
<style type="text/css">
	.st0{fill:#FAE300;}
	.st1{fill:none;stroke:#040000;stroke-width:8.5;stroke-linecap:round;stroke-linejoin:round;}
	.st2{fill:#040000;}
</style>
<title>ICONS</title>
<path class="st0" d="M263.07,230.76c-16-8-90.19-22-146.32-78.18c-40.08-40.08-52.11-92.2-52.11-92.2s52.11,12,92.2,52.12
	C213,168.62,227,242.78,235,258.82C239,246.79,251.05,234.76,263.07,230.76z"/>
<path class="st1" d="M241.76,218c-16-8-90.2-22-146.33-78.17c-40.08-40.09-52.11-92.2-52.11-92.2s52.11,12,92.2,52.11
	C191.65,155.81,205.68,230,213.69,246C217.7,234,229.73,222,241.76,218z"/>
<circle class="st2" cx="75.39" cy="79.65" r="5.67"/>
<path class="st1" d="M223.64,51.66c-2-38.08-54.12-38.08-38.08,14l-42.22,42.22c7.66,8.49,14.7,17.52,21.09,27l45.18-45.17
	C261.72,105.78,261.72,53.67,223.64,51.66z"/>
<path class="st1" d="M130.67,168.69c-9.48-6.39-18.51-13.44-27-21.1l-42.23,42.22c-52.12-16-52.12,36.08-14,38.09
	c2,38.08,54.12,38.08,38.09-14L130.67,168.69z"/>
</svg>
