<?xml version="1.0" encoding="UTF-8"?>
<svg width="24px" height="24px" viewBox="0 0 24 24" version="1.1" xmlns="http://www.w3.org/2000/svg" xmlns:xlink="http://www.w3.org/1999/xlink">
    <!-- Generator: Sketch 55.1 (78136) - https://sketchapp.com -->
    <title>wechat</title>
    <desc>Created with Sketch.</desc>
    <g id="wechat" stroke="none" stroke-width="1" fill="none" fill-rule="evenodd">
        <path d="M15.790978,8.51565238 C14.5605122,8.51565238 13.425749,8.79592494 12.3866892,9.35647069 C11.3476294,9.91701644 10.5273189,10.6826392 9.92575759,11.6533402 C9.32419631,12.6240412 9.02341599,13.6836088 9.02341599,14.8320436 C9.02341599,15.3789171 9.10544704,15.9257912 9.26950915,16.4726647 C8.99607209,16.5000086 8.74997893,16.5136802 8.53122966,16.5136802 C7.95701228,16.5136802 7.17771726,16.4179775 6.19334461,16.2265715 L5.74217381,16.1035249 L2.95311796,17.5390684 L3.73241298,15.1191523 C1.59960556,13.6152494 0.533201854,11.8105662 0.533201854,9.70510267 C0.533201854,8.47463685 0.888669965,7.33987373 1.59960556,6.30081391 C2.31054116,5.2617541 3.28124218,4.44144355 4.51170799,3.83988228 C5.74217381,3.238321 7.08201457,2.93754068 8.53122966,2.93754068 C9.81638264,2.93754068 11.0331768,3.18363384 12.1816116,3.67582017 C13.3300463,4.1680065 14.2939112,4.83792657 15.0732063,5.685581 C15.8525013,6.53323544 16.3515237,7.4902642 16.570273,8.55666791 C16.3241798,8.52932401 16.064415,8.51565238 15.790978,8.51565238 Z M11.5253631,6.34182944 C11.1972389,6.34182944 10.9101302,6.43069662 10.6640371,6.60843037 C10.4179439,6.78616411 10.2948973,7.02542177 10.2948973,7.32620209 C10.2948973,7.62698242 10.4179439,7.86624008 10.6640371,8.04397382 C10.9101302,8.22170756 11.1904028,8.31057474 11.5048554,8.31057474 C11.819308,8.31057474 12.0654011,8.22170756 12.2431349,8.04397382 C12.4208686,7.86624008 12.5097358,7.62698242 12.5097358,7.32620209 C12.5097358,7.02542177 12.4208686,6.78616411 12.2431349,6.60843037 C12.0654011,6.43069662 11.8261435,6.34182944 11.5253631,6.34182944 Z M5.90623592,8.31057474 C6.20701624,8.31057474 6.45310941,8.22170756 6.64451541,8.04397382 C6.83592141,7.86624008 6.9316241,7.62698242 6.9316241,7.32620209 C6.9316241,7.02542177 6.83592141,6.78616411 6.64451541,6.60843037 C6.45310941,6.43069662 6.20701624,6.34182944 5.90623592,6.34182944 C5.60545559,6.34182944 5.33201854,6.43069662 5.08592537,6.60843037 C4.83983221,6.78616411 4.71678563,7.02542177 4.71678563,7.32620209 C4.71678563,7.62698242 4.83983221,7.86624008 5.08592537,8.04397382 C5.33201854,8.22170756 5.60545559,8.31057474 5.90623592,8.31057474 Z M23.0917418,14.708997 C23.0917418,15.5839947 22.831977,16.4316491 22.3124468,17.2519597 C21.8202605,17.9902392 21.1503404,18.6738315 20.302686,19.302736 L20.9179189,21.3124969 L18.7030804,20.1230466 L18.5800338,20.1640621 C17.5683173,20.4101553 16.8163662,20.5332019 16.3241798,20.5332019 C15.0663701,20.5332019 13.9179354,20.2734371 12.8788755,19.7539068 C11.8398157,19.2343766 11.0195052,18.5302772 10.4179439,17.6416072 C9.81638264,16.7529372 9.51560231,15.7822368 9.51560231,14.7295048 C9.51560231,13.6767727 9.81638264,12.7060723 10.4179439,11.8174023 C11.0195052,10.9287324 11.8398157,10.2246329 12.8788755,9.70510267 C13.9179354,9.18557245 15.0663701,8.92580765 16.3241798,8.92580765 C17.4999585,8.92580765 18.6073777,9.18557245 19.6464375,9.70510267 C20.6854973,10.2246329 21.5194802,10.9287324 22.1483847,11.8174023 C22.7772892,12.7060723 23.0917418,13.6699372 23.0917418,14.708997 Z M14.1093414,13.7246243 C14.4101217,13.7246243 14.6493793,13.6425933 14.8271131,13.4785312 C15.0048468,13.3144691 15.093714,13.1298992 15.093714,12.9248216 C15.093714,12.7197439 15.0048468,12.535174 14.8271131,12.3711119 C14.6493793,12.2070498 14.4101217,12.1250188 14.1093414,12.1250188 C13.9179354,12.1250188 13.7402016,12.2070498 13.5761395,12.3711119 C13.4120774,12.535174 13.3300463,12.7197439 13.3300463,12.9248216 C13.3300463,13.1298992 13.4120774,13.3144691 13.5761395,13.4785312 C13.7402016,13.6425933 13.9179354,13.7246243 14.1093414,13.7246243 Z M18.4980028,13.7246243 C18.7987831,13.7246243 19.0380408,13.6425933 19.2157745,13.4785312 C19.3935082,13.3144691 19.4823754,13.1298992 19.4823754,12.9248216 C19.4823754,12.7197439 19.3866727,12.535174 19.1952667,12.3711119 C19.0038607,12.2070498 18.7714398,12.1250188 18.4980028,12.1250188 C18.3065968,12.1250188 18.128863,12.2070498 17.9648009,12.3711119 C17.8007388,12.535174 17.7187078,12.7197439 17.7187078,12.9248216 C17.7187078,13.1298992 17.8007388,13.3144691 17.9648009,13.4785312 C18.128863,13.6425933 18.3065968,13.7246243 18.4980028,13.7246243 Z" id="" fill="#000000" fill-rule="nonzero"></path>
    </g>
</svg>