<?xml version="1.0" encoding="utf-8"?>
<!-- Generator: Adobe Illustrator 23.0.4, SVG Export Plug-In . SVG Version: 6.00 Build 0)  -->
<svg version="1.1" id="图层_1" xmlns="http://www.w3.org/2000/svg" xmlns:xlink="http://www.w3.org/1999/xlink" x="0px" y="0px"
	 viewBox="0 0 283.46 283.46" style="enable-background:new 0 0 283.46 283.46;" xml:space="preserve">
<g>
	<circle cx="92.86" cy="4.89" r="3.73"/>
	<path d="M161.28,8.62L161.28,8.62c2.06,0,3.73-1.67,3.73-3.73s-1.67-3.73-3.73-3.73h0c-2.06,0-3.73,1.67-3.73,3.73
		S159.22,8.62,161.28,8.62z"/>
	<path d="M171.06,1.15L171.06,1.15c-2.06,0-3.73,1.67-3.73,3.73s1.67,3.73,3.73,3.73h0c2.06,0,3.73-1.67,3.73-3.73
		S173.12,1.15,171.06,1.15z"/>
	<path d="M180.83,1.15L180.83,1.15c-2.06,0-3.73,1.67-3.73,3.73s1.67,3.73,3.73,3.73h0c2.06,0,3.73-1.67,3.73-3.73
		S182.89,1.15,180.83,1.15z"/>
	<path d="M190.61,1.15L190.61,1.15c-2.06,0-3.73,1.67-3.73,3.73s1.67,3.73,3.73,3.73h0c2.06,0,3.73-1.67,3.73-3.73
		S192.67,1.15,190.61,1.15z"/>
	<circle cx="83.08" cy="14.66" r="3.73"/>
	<circle cx="92.86" cy="14.66" r="3.73"/>
	<circle cx="112.41" cy="14.66" r="3.73"/>
	<circle cx="122.18" cy="14.66" r="3.73"/>
	<circle cx="131.96" cy="14.66" r="3.73"/>
	<path d="M151.51,18.39L151.51,18.39c2.06,0,3.73-1.67,3.73-3.73s-1.67-3.73-3.73-3.73h0c-2.06,0-3.73,1.67-3.73,3.73
		S149.44,18.39,151.51,18.39z"/>
	<path d="M171.06,10.93L171.06,10.93c-2.06,0-3.73,1.67-3.73,3.73s1.67,3.73,3.73,3.73h0c2.06,0,3.73-1.67,3.73-3.73
		S173.12,10.93,171.06,10.93z"/>
	<circle cx="92.86" cy="24.44" r="3.73"/>
	<circle cx="102.63" cy="24.44" r="3.73"/>
	<circle cx="112.41" cy="24.44" r="3.73"/>
	<path d="M141.73,28.17L141.73,28.17c2.06,0,3.73-1.67,3.73-3.73s-1.67-3.73-3.73-3.73h0c-2.06,0-3.73,1.67-3.73,3.73
		S139.67,28.17,141.73,28.17z"/>
	<path d="M190.61,20.7L190.61,20.7c-2.06,0-3.73,1.67-3.73,3.73s1.67,3.73,3.73,3.73h0c2.06,0,3.73-1.67,3.73-3.73
		S192.67,20.7,190.61,20.7z"/>
	<circle cx="83.08" cy="34.21" r="3.73"/>
	<circle cx="92.86" cy="34.21" r="3.73"/>
	<circle cx="112.41" cy="34.21" r="3.73"/>
	<circle cx="131.96" cy="34.21" r="3.73"/>
	<path d="M151.51,37.94L151.51,37.94c2.06,0,3.73-1.67,3.73-3.73c0-2.06-1.67-3.73-3.73-3.73h0c-2.06,0-3.73,1.67-3.73,3.73
		C147.77,36.27,149.44,37.94,151.51,37.94z"/>
	<path d="M161.28,37.94L161.28,37.94c2.06,0,3.73-1.67,3.73-3.73c0-2.06-1.67-3.73-3.73-3.73h0c-2.06,0-3.73,1.67-3.73,3.73
		C157.55,36.27,159.22,37.94,161.28,37.94z"/>
	<path d="M200.38,37.94L200.38,37.94c2.06,0,3.73-1.67,3.73-3.73c0-2.06-1.67-3.73-3.73-3.73h0c-2.06,0-3.73,1.67-3.73,3.73
		C196.65,36.27,198.32,37.94,200.38,37.94z"/>
	<circle cx="102.63" cy="43.99" r="3.73"/>
	<circle cx="122.18" cy="43.99" r="3.73"/>
	<path d="M141.73,47.72L141.73,47.72c2.06,0,3.73-1.67,3.73-3.73c0-2.06-1.67-3.73-3.73-3.73h0c-2.06,0-3.73,1.67-3.73,3.73
		C138,46.05,139.67,47.72,141.73,47.72z"/>
	<path d="M161.28,47.72L161.28,47.72c2.06,0,3.73-1.67,3.73-3.73c0-2.06-1.67-3.73-3.73-3.73h0c-2.06,0-3.73,1.67-3.73,3.73
		C157.55,46.05,159.22,47.72,161.28,47.72z"/>
	<path d="M190.61,40.25L190.61,40.25c-2.06,0-3.73,1.67-3.73,3.73c0,2.06,1.67,3.73,3.73,3.73h0c2.06,0,3.73-1.67,3.73-3.73
		C194.34,41.92,192.67,40.25,190.61,40.25z"/>
	<path d="M200.38,47.72L200.38,47.72c2.06,0,3.73-1.67,3.73-3.73c0-2.06-1.67-3.73-3.73-3.73h0c-2.06,0-3.73,1.67-3.73,3.73
		C196.65,46.05,198.32,47.72,200.38,47.72z"/>
	<circle cx="83.08" cy="53.76" r="3.73"/>
	<circle cx="102.63" cy="53.76" r="3.73"/>
	<path d="M151.51,57.49L151.51,57.49c2.06,0,3.73-1.67,3.73-3.73s-1.67-3.73-3.73-3.73h0c-2.06,0-3.73,1.67-3.73,3.73
		S149.44,57.49,151.51,57.49z"/>
	<path d="M161.28,57.49L161.28,57.49c2.06,0,3.73-1.67,3.73-3.73s-1.67-3.73-3.73-3.73h0c-2.06,0-3.73,1.67-3.73,3.73
		S159.22,57.49,161.28,57.49z"/>
	<path d="M171.06,50.03L171.06,50.03c-2.06,0-3.73,1.67-3.73,3.73s1.67,3.73,3.73,3.73h0c2.06,0,3.73-1.67,3.73-3.73
		S173.12,50.03,171.06,50.03z"/>
	<path d="M200.38,57.49L200.38,57.49c2.06,0,3.73-1.67,3.73-3.73s-1.67-3.73-3.73-3.73h0c-2.06,0-3.73,1.67-3.73,3.73
		S198.32,57.49,200.38,57.49z"/>
	<circle cx="83.08" cy="63.53" r="3.73"/>
	<circle cx="102.63" cy="63.53" r="3.73"/>
	<circle cx="122.18" cy="63.53" r="3.73"/>
	<path d="M141.73,67.27L141.73,67.27c2.06,0,3.73-1.67,3.73-3.73c0-2.06-1.67-3.73-3.73-3.73h0c-2.06,0-3.73,1.67-3.73,3.73
		C138,65.6,139.67,67.27,141.73,67.27z"/>
	<path d="M161.28,67.27L161.28,67.27c2.06,0,3.73-1.67,3.73-3.73c0-2.06-1.67-3.73-3.73-3.73h0c-2.06,0-3.73,1.67-3.73,3.73
		C157.55,65.6,159.22,67.27,161.28,67.27z"/>
	<path d="M180.83,59.8L180.83,59.8c-2.06,0-3.73,1.67-3.73,3.73c0,2.06,1.67,3.73,3.73,3.73h0c2.06,0,3.73-1.67,3.73-3.73
		C184.56,61.47,182.89,59.8,180.83,59.8z"/>
	<path d="M200.38,67.27L200.38,67.27c2.06,0,3.73-1.67,3.73-3.73c0-2.06-1.67-3.73-3.73-3.73h0c-2.06,0-3.73,1.67-3.73,3.73
		C196.65,65.6,198.32,67.27,200.38,67.27z"/>
	<circle cx="122.18" cy="73.31" r="3.73"/>
	<path d="M161.28,77.04L161.28,77.04c2.06,0,3.73-1.67,3.73-3.73s-1.67-3.73-3.73-3.73h0c-2.06,0-3.73,1.67-3.73,3.73
		S159.22,77.04,161.28,77.04z"/>
	<path d="M180.83,69.58L180.83,69.58c-2.06,0-3.73,1.67-3.73,3.73s1.67,3.73,3.73,3.73h0c2.06,0,3.73-1.67,3.73-3.73
		S182.89,69.58,180.83,69.58z"/>
	<path d="M190.61,69.58L190.61,69.58c-2.06,0-3.73,1.67-3.73,3.73s1.67,3.73,3.73,3.73h0c2.06,0,3.73-1.67,3.73-3.73
		S192.67,69.58,190.61,69.58z"/>
	<path d="M200.38,77.04L200.38,77.04c2.06,0,3.73-1.67,3.73-3.73s-1.67-3.73-3.73-3.73h0c-2.06,0-3.73,1.67-3.73,3.73
		S198.32,77.04,200.38,77.04z"/>
	<circle cx="4.89" cy="83.08" r="3.73"/>
	<circle cx="14.66" cy="83.08" r="3.73"/>
	<circle cx="24.44" cy="83.08" r="3.73"/>
	<circle cx="34.21" cy="83.08" r="3.73"/>
	<circle cx="43.99" cy="83.08" r="3.73"/>
	<circle cx="63.53" cy="83.08" r="3.73"/>
	<circle cx="73.31" cy="83.08" r="3.73"/>
	<circle cx="83.08" cy="83.08" r="3.73"/>
	<circle cx="92.86" cy="83.08" r="3.73"/>
	<circle cx="102.63" cy="83.08" r="3.73"/>
	<circle cx="122.18" cy="83.08" r="3.73"/>
	<path d="M141.73,86.82L141.73,86.82c2.06,0,3.73-1.67,3.73-3.73s-1.67-3.73-3.73-3.73h0c-2.06,0-3.73,1.67-3.73,3.73
		S139.67,86.82,141.73,86.82z"/>
	<path d="M190.61,79.35L190.61,79.35c-2.06,0-3.73,1.67-3.73,3.73s1.67,3.73,3.73,3.73h0c2.06,0,3.73-1.67,3.73-3.73
		S192.67,79.35,190.61,79.35z"/>
	<path d="M210.15,86.82L210.15,86.82c2.06,0,3.73-1.67,3.73-3.73s-1.67-3.73-3.73-3.73h0c-2.06,0-3.73,1.67-3.73,3.73
		S208.09,86.82,210.15,86.82z"/>
	<path d="M229.7,86.82L229.7,86.82c2.06,0,3.73-1.67,3.73-3.73s-1.67-3.73-3.73-3.73h0c-2.06,0-3.73,1.67-3.73,3.73
		S227.64,86.82,229.7,86.82z"/>
	<path d="M249.25,79.35L249.25,79.35c-2.06,0-3.73,1.67-3.73,3.73s1.67,3.73,3.73,3.73h0c2.06,0,3.73-1.67,3.73-3.73
		S251.32,79.35,249.25,79.35z"/>
	<path d="M268.8,79.35L268.8,79.35c-2.06,0-3.73,1.67-3.73,3.73s1.67,3.73,3.73,3.73h0c2.06,0,3.73-1.67,3.73-3.73
		S270.86,79.35,268.8,79.35z"/>
	<circle cx="34.21" cy="92.86" r="3.73"/>
	<circle cx="92.86" cy="92.86" r="3.73"/>
	<path d="M141.73,96.59L141.73,96.59c2.06,0,3.73-1.67,3.73-3.73c0-2.06-1.67-3.73-3.73-3.73h0c-2.06,0-3.73,1.67-3.73,3.73
		C138,94.92,139.67,96.59,141.73,96.59z"/>
	<path d="M151.51,96.59L151.51,96.59c2.06,0,3.73-1.67,3.73-3.73c0-2.06-1.67-3.73-3.73-3.73h0c-2.06,0-3.73,1.67-3.73,3.73
		C147.77,94.92,149.44,96.59,151.51,96.59z"/>
	<path d="M161.28,96.59L161.28,96.59c2.06,0,3.73-1.67,3.73-3.73c0-2.06-1.67-3.73-3.73-3.73h0c-2.06,0-3.73,1.67-3.73,3.73
		C157.55,94.92,159.22,96.59,161.28,96.59z"/>
	<path d="M190.61,89.13L190.61,89.13c-2.06,0-3.73,1.67-3.73,3.73c0,2.06,1.67,3.73,3.73,3.73h0c2.06,0,3.73-1.67,3.73-3.73
		C194.34,90.8,192.67,89.13,190.61,89.13z"/>
	<path d="M210.15,96.59L210.15,96.59c2.06,0,3.73-1.67,3.73-3.73c0-2.06-1.67-3.73-3.73-3.73h0c-2.06,0-3.73,1.67-3.73,3.73
		C206.42,94.92,208.09,96.59,210.15,96.59z"/>
	<path d="M219.93,96.59L219.93,96.59c2.06,0,3.73-1.67,3.73-3.73c0-2.06-1.67-3.73-3.73-3.73h0c-2.06,0-3.73,1.67-3.73,3.73
		C216.2,94.92,217.87,96.59,219.93,96.59z"/>
	<path d="M229.7,96.59L229.7,96.59c2.06,0,3.73-1.67,3.73-3.73c0-2.06-1.67-3.73-3.73-3.73h0c-2.06,0-3.73,1.67-3.73,3.73
		C225.97,94.92,227.64,96.59,229.7,96.59z"/>
	<path d="M239.48,96.59L239.48,96.59c2.06,0,3.73-1.67,3.73-3.73c0-2.06-1.67-3.73-3.73-3.73h0c-2.06,0-3.73,1.67-3.73,3.73
		C235.75,94.92,237.42,96.59,239.48,96.59z"/>
	<path d="M278.58,89.13L278.58,89.13c-2.06,0-3.73,1.67-3.73,3.73c0,2.06,1.67,3.73,3.73,3.73h0c2.06,0,3.73-1.67,3.73-3.73
		C282.31,90.8,280.64,89.13,278.58,89.13z"/>
	<circle cx="4.89" cy="102.63" r="3.73"/>
	<circle cx="24.44" cy="102.63" r="3.73"/>
	<circle cx="34.21" cy="102.63" r="3.73"/>
	<circle cx="63.53" cy="102.63" r="3.73"/>
	<circle cx="92.86" cy="102.63" r="3.73"/>
	<circle cx="112.41" cy="102.63" r="3.73"/>
	<circle cx="122.18" cy="102.63" r="3.73"/>
	<circle cx="131.96" cy="102.63" r="3.73"/>
	<path d="M151.51,106.37L151.51,106.37c2.06,0,3.73-1.67,3.73-3.73s-1.67-3.73-3.73-3.73h0c-2.06,0-3.73,1.67-3.73,3.73
		S149.44,106.37,151.51,106.37z"/>
	<path d="M161.28,106.37L161.28,106.37c2.06,0,3.73-1.67,3.73-3.73s-1.67-3.73-3.73-3.73h0c-2.06,0-3.73,1.67-3.73,3.73
		S159.22,106.37,161.28,106.37z"/>
	<path d="M171.06,98.9L171.06,98.9c-2.06,0-3.73,1.67-3.73,3.73s1.67,3.73,3.73,3.73h0c2.06,0,3.73-1.67,3.73-3.73
		S173.12,98.9,171.06,98.9z"/>
	<path d="M180.83,98.9L180.83,98.9c-2.06,0-3.73,1.67-3.73,3.73s1.67,3.73,3.73,3.73h0c2.06,0,3.73-1.67,3.73-3.73
		S182.89,98.9,180.83,98.9z"/>
	<path d="M200.38,106.37L200.38,106.37c2.06,0,3.73-1.67,3.73-3.73s-1.67-3.73-3.73-3.73h0c-2.06,0-3.73,1.67-3.73,3.73
		S198.32,106.37,200.38,106.37z"/>
	<path d="M219.93,106.37L219.93,106.37c2.06,0,3.73-1.67,3.73-3.73s-1.67-3.73-3.73-3.73h0c-2.06,0-3.73,1.67-3.73,3.73
		S217.87,106.37,219.93,106.37z"/>
	<path d="M229.7,106.37L229.7,106.37c2.06,0,3.73-1.67,3.73-3.73s-1.67-3.73-3.73-3.73h0c-2.06,0-3.73,1.67-3.73,3.73
		S227.64,106.37,229.7,106.37z"/>
	<path d="M239.48,106.37L239.48,106.37c2.06,0,3.73-1.67,3.73-3.73s-1.67-3.73-3.73-3.73h0c-2.06,0-3.73,1.67-3.73,3.73
		S237.42,106.37,239.48,106.37z"/>
	<circle cx="4.89" cy="112.41" r="3.73"/>
	<circle cx="24.44" cy="112.41" r="3.73"/>
	<circle cx="34.21" cy="112.41" r="3.73"/>
	<circle cx="83.08" cy="112.41" r="3.73"/>
	<circle cx="92.86" cy="112.41" r="3.73"/>
	<circle cx="102.63" cy="112.41" r="3.73"/>
	<circle cx="112.41" cy="112.41" r="3.73"/>
	<path d="M143.7,115.57c1.06-0.66,1.77-1.82,1.77-3.16c0-2.06-1.67-3.73-3.73-3.73h0c-2.06,0-3.73,1.67-3.73,3.73
		c0,0.52,0.11,1.01,0.3,1.46C140.16,114.25,141.96,114.81,143.7,115.57z"/>
	<path d="M180.83,108.68L180.83,108.68c-2.06,0-3.73,1.67-3.73,3.73s1.67,3.73,3.73,3.73h0c2.06,0,3.73-1.67,3.73-3.73
		S182.89,108.68,180.83,108.68z"/>
	<path d="M200.38,116.14L200.38,116.14c2.06,0,3.73-1.67,3.73-3.73s-1.67-3.73-3.73-3.73h0c-2.06,0-3.73,1.67-3.73,3.73
		S198.32,116.14,200.38,116.14z"/>
	<path d="M210.15,116.14L210.15,116.14c2.06,0,3.73-1.67,3.73-3.73s-1.67-3.73-3.73-3.73h0c-2.06,0-3.73,1.67-3.73,3.73
		S208.09,116.14,210.15,116.14z"/>
	<path d="M219.93,116.14L219.93,116.14c2.06,0,3.73-1.67,3.73-3.73s-1.67-3.73-3.73-3.73h0c-2.06,0-3.73,1.67-3.73,3.73
		S217.87,116.14,219.93,116.14z"/>
	<path d="M268.8,108.68L268.8,108.68c-2.06,0-3.73,1.67-3.73,3.73s1.67,3.73,3.73,3.73h0c2.06,0,3.73-1.67,3.73-3.73
		S270.86,108.68,268.8,108.68z"/>
	<circle cx="4.89" cy="122.18" r="3.73"/>
	<circle cx="14.66" cy="122.18" r="3.73"/>
	<circle cx="24.44" cy="122.18" r="3.73"/>
	<circle cx="63.53" cy="122.18" r="3.73"/>
	<circle cx="83.08" cy="122.18" r="3.73"/>
	<circle cx="92.86" cy="122.18" r="3.73"/>
	<path d="M110.34,125.29c1.17-2.07,2.75-3.97,4.74-5.71c-0.68-0.7-1.62-1.13-2.67-1.13c-2.06,0-3.73,1.67-3.73,3.73
		C108.68,123.48,109.34,124.62,110.34,125.29z"/>
	<path d="M151.51,118.45L151.51,118.45c-0.73,0-1.41,0.22-1.98,0.58c2.05,1.59,3.72,3.37,5,5.34c0.45-0.62,0.72-1.37,0.72-2.18
		C155.24,120.12,153.57,118.45,151.51,118.45z"/>
	<path d="M161.28,125.92L161.28,125.92c2.06,0,3.73-1.67,3.73-3.73c0-2.06-1.67-3.73-3.73-3.73h0c-2.06,0-3.73,1.67-3.73,3.73
		C157.55,124.24,159.22,125.92,161.28,125.92z"/>
	<path d="M171.06,118.45L171.06,118.45c-2.06,0-3.73,1.67-3.73,3.73c0,2.06,1.67,3.73,3.73,3.73h0c2.06,0,3.73-1.67,3.73-3.73
		C174.79,120.12,173.12,118.45,171.06,118.45z"/>
	<path d="M180.83,118.45L180.83,118.45c-2.06,0-3.73,1.67-3.73,3.73c0,2.06,1.67,3.73,3.73,3.73h0c2.06,0,3.73-1.67,3.73-3.73
		C184.56,120.12,182.89,118.45,180.83,118.45z"/>
	<path d="M190.61,118.45L190.61,118.45c-2.06,0-3.73,1.67-3.73,3.73c0,2.06,1.67,3.73,3.73,3.73h0c2.06,0,3.73-1.67,3.73-3.73
		C194.34,120.12,192.67,118.45,190.61,118.45z"/>
	<path d="M210.15,125.92L210.15,125.92c2.06,0,3.73-1.67,3.73-3.73c0-2.06-1.67-3.73-3.73-3.73h0c-2.06,0-3.73,1.67-3.73,3.73
		C206.42,124.24,208.09,125.92,210.15,125.92z"/>
	<path d="M249.25,118.45L249.25,118.45c-2.06,0-3.73,1.67-3.73,3.73c0,2.06,1.67,3.73,3.73,3.73h0c2.06,0,3.73-1.67,3.73-3.73
		C252.99,120.12,251.32,118.45,249.25,118.45z"/>
	<path d="M259.03,118.45L259.03,118.45c-2.06,0-3.73,1.67-3.73,3.73c0,2.06,1.67,3.73,3.73,3.73h0c2.06,0,3.73-1.67,3.73-3.73
		C262.76,120.12,261.09,118.45,259.03,118.45z"/>
	<circle cx="4.89" cy="131.96" r="3.73"/>
	<circle cx="24.44" cy="131.96" r="3.73"/>
	<circle cx="53.76" cy="131.96" r="3.73"/>
	<circle cx="102.63" cy="131.96" r="3.73"/>
	<path d="M161.28,128.22L161.28,128.22c-1.58,0-2.92,0.98-3.47,2.36c2.51,0.37,4.87,1.13,7.07,2.3c0.08-0.3,0.13-0.6,0.13-0.93
		C165.01,129.9,163.34,128.22,161.28,128.22z"/>
	<path d="M190.61,128.22L190.61,128.22c-2.06,0-3.73,1.67-3.73,3.73s1.67,3.73,3.73,3.73h0c2.06,0,3.73-1.67,3.73-3.73
		S192.67,128.22,190.61,128.22z"/>
	<path d="M200.38,135.69L200.38,135.69c2.06,0,3.73-1.67,3.73-3.73s-1.67-3.73-3.73-3.73h0c-2.06,0-3.73,1.67-3.73,3.73
		S198.32,135.69,200.38,135.69z"/>
	<path d="M210.15,135.69L210.15,135.69c2.06,0,3.73-1.67,3.73-3.73s-1.67-3.73-3.73-3.73h0c-2.06,0-3.73,1.67-3.73,3.73
		S208.09,135.69,210.15,135.69z"/>
	<path d="M219.93,135.69L219.93,135.69c2.06,0,3.73-1.67,3.73-3.73s-1.67-3.73-3.73-3.73h0c-2.06,0-3.73,1.67-3.73,3.73
		S217.87,135.69,219.93,135.69z"/>
	<path d="M229.7,135.69L229.7,135.69c2.06,0,3.73-1.67,3.73-3.73s-1.67-3.73-3.73-3.73h0c-2.06,0-3.73,1.67-3.73,3.73
		S227.64,135.69,229.7,135.69z"/>
	<path d="M239.48,135.69L239.48,135.69c2.06,0,3.73-1.67,3.73-3.73s-1.67-3.73-3.73-3.73h0c-2.06,0-3.73,1.67-3.73,3.73
		S237.42,135.69,239.48,135.69z"/>
	<path d="M259.03,128.22L259.03,128.22c-2.06,0-3.73,1.67-3.73,3.73s1.67,3.73,3.73,3.73h0c2.06,0,3.73-1.67,3.73-3.73
		S261.09,128.22,259.03,128.22z"/>
	<path d="M278.58,128.22L278.58,128.22c-2.06,0-3.73,1.67-3.73,3.73s1.67,3.73,3.73,3.73h0c2.06,0,3.73-1.67,3.73-3.73
		S280.64,128.22,278.58,128.22z"/>
	<path d="M10.93,141.73c0,2.06,1.67,3.73,3.73,3.73s3.73-1.67,3.73-3.73v0c0-2.06-1.67-3.73-3.73-3.73S10.93,139.67,10.93,141.73
		L10.93,141.73z"/>
	<path d="M50.03,141.73c0,2.06,1.67,3.73,3.73,3.73s3.73-1.67,3.73-3.73v0c0-2.06-1.67-3.73-3.73-3.73S50.03,139.67,50.03,141.73
		L50.03,141.73z"/>
	<path d="M59.8,141.73c0,2.06,1.67,3.73,3.73,3.73c2.06,0,3.73-1.67,3.73-3.73v0c0-2.06-1.67-3.73-3.73-3.73
		C61.47,138,59.8,139.67,59.8,141.73L59.8,141.73z"/>
	<path d="M83.08,138c-2.06,0-3.73,1.67-3.73,3.73v0c0,2.06,1.67,3.73,3.73,3.73s3.73-1.67,3.73-3.73v0
		C86.82,139.67,85.15,138,83.08,138z"/>
	<path d="M102.63,138c-2.06,0-3.73,1.67-3.73,3.73v0c0,2.06,1.67,3.73,3.73,3.73s3.73-1.67,3.73-3.73v0
		C106.37,139.67,104.7,138,102.63,138z"/>
	<path d="M180.83,138L180.83,138c-2.06,0-3.73,1.67-3.73,3.73v0c0,2.06,1.67,3.73,3.73,3.73h0c2.06,0,3.73-1.67,3.73-3.73v0
		C184.56,139.67,182.89,138,180.83,138z"/>
	<path d="M200.38,145.47L200.38,145.47c2.06,0,3.73-1.67,3.73-3.73v0c0-2.06-1.67-3.73-3.73-3.73h0c-2.06,0-3.73,1.67-3.73,3.73v0
		C196.65,143.79,198.32,145.47,200.38,145.47z"/>
	<path d="M216.2,141.73c0,2.06,1.67,3.73,3.73,3.73h0c2.06,0,3.73-1.67,3.73-3.73v0c0-2.06-1.67-3.73-3.73-3.73h0
		C217.87,138,216.2,139.67,216.2,141.73L216.2,141.73z"/>
	<path d="M235.75,141.73c0,2.06,1.67,3.73,3.73,3.73h0c2.06,0,3.73-1.67,3.73-3.73v0c0-2.06-1.67-3.73-3.73-3.73h0
		C237.42,138,235.75,139.67,235.75,141.73L235.75,141.73z"/>
	<path d="M259.03,138L259.03,138c-2.06,0-3.73,1.67-3.73,3.73v0c0,2.06,1.67,3.73,3.73,3.73h0c2.06,0,3.73-1.67,3.73-3.73v0
		C262.76,139.67,261.09,138,259.03,138z"/>
	<path d="M10.93,151.51c0,2.06,1.67,3.73,3.73,3.73s3.73-1.67,3.73-3.73v0c0-2.06-1.67-3.73-3.73-3.73S10.93,149.44,10.93,151.51
		L10.93,151.51z"/>
	<path d="M30.48,151.51c0,2.06,1.67,3.73,3.73,3.73c2.06,0,3.73-1.67,3.73-3.73v0c0-2.06-1.67-3.73-3.73-3.73
		C32.15,147.77,30.48,149.44,30.48,151.51L30.48,151.51z"/>
	<path d="M50.03,151.51c0,2.06,1.67,3.73,3.73,3.73s3.73-1.67,3.73-3.73v0c0-2.06-1.67-3.73-3.73-3.73S50.03,149.44,50.03,151.51
		L50.03,151.51z"/>
	<path d="M83.08,147.77c-2.06,0-3.73,1.67-3.73,3.73v0c0,2.06,1.67,3.73,3.73,3.73s3.73-1.67,3.73-3.73v0
		C86.82,149.44,85.15,147.77,83.08,147.77z"/>
	<path d="M92.86,147.77c-2.06,0-3.73,1.67-3.73,3.73v0c0,2.06,1.67,3.73,3.73,3.73c2.06,0,3.73-1.67,3.73-3.73v0
		C96.59,149.44,94.92,147.77,92.86,147.77z"/>
	<path d="M102.63,147.77c-2.06,0-3.73,1.67-3.73,3.73v0c0,2.06,1.67,3.73,3.73,3.73s3.73-1.67,3.73-3.73v0
		C106.37,149.44,104.7,147.77,102.63,147.77z"/>
	<path d="M190.61,147.77L190.61,147.77c-2.06,0-3.73,1.67-3.73,3.73v0c0,2.06,1.67,3.73,3.73,3.73h0c2.06,0,3.73-1.67,3.73-3.73v0
		C194.34,149.44,192.67,147.77,190.61,147.77z"/>
	<path d="M200.38,155.24L200.38,155.24c2.06,0,3.73-1.67,3.73-3.73v0c0-2.06-1.67-3.73-3.73-3.73h0c-2.06,0-3.73,1.67-3.73,3.73v0
		C196.65,153.57,198.32,155.24,200.38,155.24z"/>
	<path d="M210.15,155.24L210.15,155.24c2.06,0,3.73-1.67,3.73-3.73v0c0-2.06-1.67-3.73-3.73-3.73h0c-2.06,0-3.73,1.67-3.73,3.73v0
		C206.42,153.57,208.09,155.24,210.15,155.24z"/>
	<path d="M216.2,151.51c0,2.06,1.67,3.73,3.73,3.73h0c2.06,0,3.73-1.67,3.73-3.73v0c0-2.06-1.67-3.73-3.73-3.73h0
		C217.87,147.77,216.2,149.44,216.2,151.51L216.2,151.51z"/>
	<path d="M268.8,147.77L268.8,147.77c-2.06,0-3.73,1.67-3.73,3.73v0c0,2.06,1.67,3.73,3.73,3.73h0c2.06,0,3.73-1.67,3.73-3.73v0
		C272.54,149.44,270.86,147.77,268.8,147.77z"/>
	<path d="M30.48,161.28c0,2.06,1.67,3.73,3.73,3.73c2.06,0,3.73-1.67,3.73-3.73v0c0-2.06-1.67-3.73-3.73-3.73
		C32.15,157.55,30.48,159.22,30.48,161.28L30.48,161.28z"/>
	<path d="M50.03,161.28c0,2.06,1.67,3.73,3.73,3.73s3.73-1.67,3.73-3.73v0c0-2.06-1.67-3.73-3.73-3.73S50.03,159.22,50.03,161.28
		L50.03,161.28z"/>
	<path d="M59.8,161.28c0,2.06,1.67,3.73,3.73,3.73c2.06,0,3.73-1.67,3.73-3.73v0c0-2.06-1.67-3.73-3.73-3.73
		C61.47,157.55,59.8,159.22,59.8,161.28L59.8,161.28z"/>
	<path d="M73.31,157.55c-2.06,0-3.73,1.67-3.73,3.73v0c0,2.06,1.67,3.73,3.73,3.73s3.73-1.67,3.73-3.73v0
		C77.04,159.22,75.37,157.55,73.31,157.55z"/>
	<path d="M83.08,157.55c-2.06,0-3.73,1.67-3.73,3.73v0c0,2.06,1.67,3.73,3.73,3.73s3.73-1.67,3.73-3.73v0
		C86.82,159.22,85.15,157.55,83.08,157.55z"/>
	<path d="M122.18,157.55c-2.06,0-3.73,1.67-3.73,3.73v0c0,2.06,1.67,3.73,3.73,3.73c2.06,0,3.73-1.67,3.73-3.73v0
		C125.92,159.22,124.24,157.55,122.18,157.55z"/>
	<path d="M131.96,157.55c-2.06,0-3.73,1.67-3.73,3.73v0c0,2.06,1.67,3.73,3.73,3.73s3.73-1.67,3.73-3.73v0
		C135.69,159.22,134.02,157.55,131.96,157.55z"/>
	<path d="M172.75,157.97c-1.18,1.77-2.72,3.47-4.62,5.1l0.25,0.8c0.68,0.7,1.63,1.14,2.68,1.14h0c2.06,0,3.73-1.67,3.73-3.73v0
		C174.79,159.83,173.96,158.59,172.75,157.97z"/>
	<path d="M190.61,157.55L190.61,157.55c-2.06,0-3.73,1.67-3.73,3.73v0c0,2.06,1.67,3.73,3.73,3.73h0c2.06,0,3.73-1.67,3.73-3.73v0
		C194.34,159.22,192.67,157.55,190.61,157.55z"/>
	<path d="M225.97,161.28c0,2.06,1.67,3.73,3.73,3.73h0c2.06,0,3.73-1.67,3.73-3.73v0c0-2.06-1.67-3.73-3.73-3.73h0
		C227.64,157.55,225.97,159.22,225.97,161.28L225.97,161.28z"/>
	<path d="M259.03,157.55L259.03,157.55c-2.06,0-3.73,1.67-3.73,3.73v0c0,2.06,1.67,3.73,3.73,3.73h0c2.06,0,3.73-1.67,3.73-3.73v0
		C262.76,159.22,261.09,157.55,259.03,157.55z"/>
	<path d="M1.15,171.06c0,2.06,1.67,3.73,3.73,3.73s3.73-1.67,3.73-3.73v0c0-2.06-1.67-3.73-3.73-3.73S1.15,168.99,1.15,171.06
		L1.15,171.06z"/>
	<path d="M10.93,171.06c0,2.06,1.67,3.73,3.73,3.73s3.73-1.67,3.73-3.73v0c0-2.06-1.67-3.73-3.73-3.73S10.93,168.99,10.93,171.06
		L10.93,171.06z"/>
	<path d="M20.7,171.06c0,2.06,1.67,3.73,3.73,3.73s3.73-1.67,3.73-3.73v0c0-2.06-1.67-3.73-3.73-3.73S20.7,168.99,20.7,171.06
		L20.7,171.06z"/>
	<path d="M40.25,171.06c0,2.06,1.67,3.73,3.73,3.73c2.06,0,3.73-1.67,3.73-3.73v0c0-2.06-1.67-3.73-3.73-3.73
		C41.92,167.32,40.25,168.99,40.25,171.06L40.25,171.06z"/>
	<path d="M50.03,171.06c0,2.06,1.67,3.73,3.73,3.73s3.73-1.67,3.73-3.73v0c0-2.06-1.67-3.73-3.73-3.73S50.03,168.99,50.03,171.06
		L50.03,171.06z"/>
	<path d="M141.73,167.32L141.73,167.32c-2.06,0-3.73,1.67-3.73,3.73v0c0,2.06,1.67,3.73,3.73,3.73h0c2.06,0,3.73-1.67,3.73-3.73v0
		C145.47,168.99,143.79,167.32,141.73,167.32z"/>
	<path d="M161.4,167.33c-0.04,0-0.08-0.01-0.11-0.01h0c-2.06,0-3.73,1.67-3.73,3.73v0c0,2.06,1.67,3.73,3.73,3.73h0
		c2.06,0,3.73-1.67,3.73-3.73v0c0-0.78-0.24-1.5-0.65-2.1L161.4,167.33z"/>
	<path d="M190.61,167.32L190.61,167.32c-2.06,0-3.73,1.67-3.73,3.73v0c0,2.06,1.67,3.73,3.73,3.73h0c2.06,0,3.73-1.67,3.73-3.73v0
		C194.34,168.99,192.67,167.32,190.61,167.32z"/>
	<path d="M200.38,174.79L200.38,174.79c2.06,0,3.73-1.67,3.73-3.73v0c0-2.06-1.67-3.73-3.73-3.73h0c-2.06,0-3.73,1.67-3.73,3.73v0
		C196.65,173.12,198.32,174.79,200.38,174.79z"/>
	<path d="M216.2,171.06c0,2.06,1.67,3.73,3.73,3.73h0c2.06,0,3.73-1.67,3.73-3.73v0c0-2.06-1.67-3.73-3.73-3.73h0
		C217.87,167.32,216.2,168.99,216.2,171.06L216.2,171.06z"/>
	<path d="M225.97,171.06c0,2.06,1.67,3.73,3.73,3.73h0c2.06,0,3.73-1.67,3.73-3.73v0c0-2.06-1.67-3.73-3.73-3.73h0
		C227.64,167.32,225.97,168.99,225.97,171.06L225.97,171.06z"/>
	<path d="M235.75,171.06c0,2.06,1.67,3.73,3.73,3.73h0c2.06,0,3.73-1.67,3.73-3.73v0c0-2.06-1.67-3.73-3.73-3.73h0
		C237.42,167.32,235.75,168.99,235.75,171.06L235.75,171.06z"/>
	<path d="M249.25,167.32L249.25,167.32c-2.06,0-3.73,1.67-3.73,3.73v0c0,2.06,1.67,3.73,3.73,3.73h0c2.06,0,3.73-1.67,3.73-3.73v0
		C252.99,168.99,251.32,167.32,249.25,167.32z"/>
	<path d="M259.03,167.32L259.03,167.32c-2.06,0-3.73,1.67-3.73,3.73v0c0,2.06,1.67,3.73,3.73,3.73h0c2.06,0,3.73-1.67,3.73-3.73v0
		C262.76,168.99,261.09,167.32,259.03,167.32z"/>
	<path d="M278.58,167.32L278.58,167.32c-2.06,0-3.73,1.67-3.73,3.73v0c0,2.06,1.67,3.73,3.73,3.73h0c2.06,0,3.73-1.67,3.73-3.73v0
		C282.31,168.99,280.64,167.32,278.58,167.32z"/>
	<path d="M1.15,180.83c0,2.06,1.67,3.73,3.73,3.73s3.73-1.67,3.73-3.73v0c0-2.06-1.67-3.73-3.73-3.73S1.15,178.77,1.15,180.83
		L1.15,180.83z"/>
	<path d="M40.25,180.83c0,2.06,1.67,3.73,3.73,3.73c2.06,0,3.73-1.67,3.73-3.73v0c0-2.06-1.67-3.73-3.73-3.73
		C41.92,177.1,40.25,178.77,40.25,180.83L40.25,180.83z"/>
	<path d="M59.8,180.83c0,2.06,1.67,3.73,3.73,3.73c2.06,0,3.73-1.67,3.73-3.73v0c0-2.06-1.67-3.73-3.73-3.73
		C61.47,177.1,59.8,178.77,59.8,180.83L59.8,180.83z"/>
	<path d="M83.08,177.1c-2.06,0-3.73,1.67-3.73,3.73v0c0,2.06,1.67,3.73,3.73,3.73s3.73-1.67,3.73-3.73v0
		C86.82,178.77,85.15,177.1,83.08,177.1z"/>
	<path d="M92.86,177.1c-2.06,0-3.73,1.67-3.73,3.73v0c0,2.06,1.67,3.73,3.73,3.73c2.06,0,3.73-1.67,3.73-3.73v0
		C96.59,178.77,94.92,177.1,92.86,177.1z"/>
	<path d="M112.41,177.1c-2.06,0-3.73,1.67-3.73,3.73v0c0,2.06,1.67,3.73,3.73,3.73s3.73-1.67,3.73-3.73v0
		C116.14,178.77,114.47,177.1,112.41,177.1z"/>
	<path d="M122.18,177.1c-2.06,0-3.73,1.67-3.73,3.73v0c0,2.06,1.67,3.73,3.73,3.73c2.06,0,3.73-1.67,3.73-3.73v0
		C125.92,178.77,124.24,177.1,122.18,177.1z"/>
	<path d="M151.51,177.1L151.51,177.1c-2.06,0-3.73,1.67-3.73,3.73v0c0,2.06,1.67,3.73,3.73,3.73h0c2.06,0,3.73-1.67,3.73-3.73v0
		C155.24,178.77,153.57,177.1,151.51,177.1z"/>
	<path d="M180.83,177.1L180.83,177.1c-2.06,0-3.73,1.67-3.73,3.73v0c0,2.06,1.67,3.73,3.73,3.73h0c2.06,0,3.73-1.67,3.73-3.73v0
		C184.56,178.77,182.89,177.1,180.83,177.1z"/>
	<path d="M200.38,184.56L200.38,184.56c2.06,0,3.73-1.67,3.73-3.73v0c0-2.06-1.67-3.73-3.73-3.73h0c-2.06,0-3.73,1.67-3.73,3.73v0
		C196.65,182.89,198.32,184.56,200.38,184.56z"/>
	<path d="M210.15,184.56L210.15,184.56c2.06,0,3.73-1.67,3.73-3.73v0c0-2.06-1.67-3.73-3.73-3.73h0c-2.06,0-3.73,1.67-3.73,3.73v0
		C206.42,182.89,208.09,184.56,210.15,184.56z"/>
	<path d="M225.97,180.83c0,2.06,1.67,3.73,3.73,3.73h0c2.06,0,3.73-1.67,3.73-3.73v0c0-2.06-1.67-3.73-3.73-3.73h0
		C227.64,177.1,225.97,178.77,225.97,180.83L225.97,180.83z"/>
	<path d="M235.75,180.83c0,2.06,1.67,3.73,3.73,3.73h0c2.06,0,3.73-1.67,3.73-3.73v0c0-2.06-1.67-3.73-3.73-3.73h0
		C237.42,177.1,235.75,178.77,235.75,180.83L235.75,180.83z"/>
	<path d="M249.25,177.1L249.25,177.1c-2.06,0-3.73,1.67-3.73,3.73v0c0,2.06,1.67,3.73,3.73,3.73h0c2.06,0,3.73-1.67,3.73-3.73v0
		C252.99,178.77,251.32,177.1,249.25,177.1z"/>
	<path d="M259.03,177.1L259.03,177.1c-2.06,0-3.73,1.67-3.73,3.73v0c0,2.06,1.67,3.73,3.73,3.73h0c2.06,0,3.73-1.67,3.73-3.73v0
		C262.76,178.77,261.09,177.1,259.03,177.1z"/>
	<path d="M1.15,190.61c0,2.06,1.67,3.73,3.73,3.73s3.73-1.67,3.73-3.73v0c0-2.06-1.67-3.73-3.73-3.73S1.15,188.54,1.15,190.61
		L1.15,190.61z"/>
	<path d="M30.48,190.61c0,2.06,1.67,3.73,3.73,3.73c2.06,0,3.73-1.67,3.73-3.73v0c0-2.06-1.67-3.73-3.73-3.73
		C32.15,186.87,30.48,188.54,30.48,190.61L30.48,190.61z"/>
	<path d="M40.25,190.61c0,2.06,1.67,3.73,3.73,3.73c2.06,0,3.73-1.67,3.73-3.73v0c0-2.06-1.67-3.73-3.73-3.73
		C41.92,186.87,40.25,188.54,40.25,190.61L40.25,190.61z"/>
	<path d="M73.31,186.87c-2.06,0-3.73,1.67-3.73,3.73v0c0,2.06,1.67,3.73,3.73,3.73s3.73-1.67,3.73-3.73v0
		C77.04,188.54,75.37,186.87,73.31,186.87z"/>
	<path d="M83.08,186.87c-2.06,0-3.73,1.67-3.73,3.73v0c0,2.06,1.67,3.73,3.73,3.73s3.73-1.67,3.73-3.73v0
		C86.82,188.54,85.15,186.87,83.08,186.87z"/>
	<path d="M92.86,186.87c-2.06,0-3.73,1.67-3.73,3.73v0c0,2.06,1.67,3.73,3.73,3.73c2.06,0,3.73-1.67,3.73-3.73v0
		C96.59,188.54,94.92,186.87,92.86,186.87z"/>
	<path d="M112.41,186.87c-2.06,0-3.73,1.67-3.73,3.73v0c0,2.06,1.67,3.73,3.73,3.73s3.73-1.67,3.73-3.73v0
		C116.14,188.54,114.47,186.87,112.41,186.87z"/>
	<path d="M151.51,186.87L151.51,186.87c-2.06,0-3.73,1.67-3.73,3.73v0c0,2.06,1.67,3.73,3.73,3.73h0c2.06,0,3.73-1.67,3.73-3.73v0
		C155.24,188.54,153.57,186.87,151.51,186.87z"/>
	<path d="M180.83,186.87L180.83,186.87c-2.06,0-3.73,1.67-3.73,3.73v0c0,2.06,1.67,3.73,3.73,3.73h0c2.06,0,3.73-1.67,3.73-3.73v0
		C184.56,188.54,182.89,186.87,180.83,186.87z"/>
	<path d="M190.61,186.87L190.61,186.87c-2.06,0-3.73,1.67-3.73,3.73v0c0,2.06,1.67,3.73,3.73,3.73h0c2.06,0,3.73-1.67,3.73-3.73v0
		C194.34,188.54,192.67,186.87,190.61,186.87z"/>
	<path d="M268.8,186.87L268.8,186.87c-2.06,0-3.73,1.67-3.73,3.73v0c0,2.06,1.67,3.73,3.73,3.73h0c2.06,0,3.73-1.67,3.73-3.73v0
		C272.54,188.54,270.86,186.87,268.8,186.87z"/>
	<path d="M1.15,200.38c0,2.06,1.67,3.73,3.73,3.73s3.73-1.67,3.73-3.73v0c0-2.06-1.67-3.73-3.73-3.73S1.15,198.32,1.15,200.38
		L1.15,200.38z"/>
	<path d="M20.7,200.38c0,2.06,1.67,3.73,3.73,3.73s3.73-1.67,3.73-3.73v0c0-2.06-1.67-3.73-3.73-3.73S20.7,198.32,20.7,200.38
		L20.7,200.38z"/>
	<path d="M59.8,200.38c0,2.06,1.67,3.73,3.73,3.73c2.06,0,3.73-1.67,3.73-3.73v0c0-2.06-1.67-3.73-3.73-3.73
		C61.47,196.65,59.8,198.32,59.8,200.38L59.8,200.38z"/>
	<path d="M92.86,196.65c-2.06,0-3.73,1.67-3.73,3.73v0c0,2.06,1.67,3.73,3.73,3.73c2.06,0,3.73-1.67,3.73-3.73v0
		C96.59,198.32,94.92,196.65,92.86,196.65z"/>
	<path d="M112.41,196.65c-2.06,0-3.73,1.67-3.73,3.73v0c0,2.06,1.67,3.73,3.73,3.73s3.73-1.67,3.73-3.73v0
		C116.14,198.32,114.47,196.65,112.41,196.65z"/>
	<path d="M131.96,196.65c-2.06,0-3.73,1.67-3.73,3.73v0c0,2.06,1.67,3.73,3.73,3.73s3.73-1.67,3.73-3.73v0
		C135.69,198.32,134.02,196.65,131.96,196.65z"/>
	<path d="M141.73,196.65L141.73,196.65c-2.06,0-3.73,1.67-3.73,3.73v0c0,2.06,1.67,3.73,3.73,3.73h0c2.06,0,3.73-1.67,3.73-3.73v0
		C145.47,198.32,143.79,196.65,141.73,196.65z"/>
	<path d="M161.28,196.65L161.28,196.65c-2.06,0-3.73,1.67-3.73,3.73v0c0,2.06,1.67,3.73,3.73,3.73h0c2.06,0,3.73-1.67,3.73-3.73v0
		C165.01,198.32,163.34,196.65,161.28,196.65z"/>
	<path d="M171.06,196.65L171.06,196.65c-2.06,0-3.73,1.67-3.73,3.73v0c0,2.06,1.67,3.73,3.73,3.73h0c2.06,0,3.73-1.67,3.73-3.73v0
		C174.79,198.32,173.12,196.65,171.06,196.65z"/>
	<path d="M259.03,196.65L259.03,196.65c-2.06,0-3.73,1.67-3.73,3.73v0c0,2.06,1.67,3.73,3.73,3.73h0c2.06,0,3.73-1.67,3.73-3.73v0
		C262.76,198.32,261.09,196.65,259.03,196.65z"/>
	<path d="M268.8,196.65L268.8,196.65c-2.06,0-3.73,1.67-3.73,3.73v0c0,2.06,1.67,3.73,3.73,3.73h0c2.06,0,3.73-1.67,3.73-3.73v0
		C272.54,198.32,270.86,196.65,268.8,196.65z"/>
	<path d="M278.58,196.65L278.58,196.65c-2.06,0-3.73,1.67-3.73,3.73v0c0,2.06,1.67,3.73,3.73,3.73h0c2.06,0,3.73-1.67,3.73-3.73v0
		C282.31,198.32,280.64,196.65,278.58,196.65z"/>
	<path d="M83.08,206.42c-2.06,0-3.73,1.67-3.73,3.73v0c0,2.06,1.67,3.73,3.73,3.73s3.73-1.67,3.73-3.73v0
		C86.82,208.09,85.15,206.42,83.08,206.42z"/>
	<path d="M92.86,206.42c-2.06,0-3.73,1.67-3.73,3.73v0c0,2.06,1.67,3.73,3.73,3.73c2.06,0,3.73-1.67,3.73-3.73v0
		C96.59,208.09,94.92,206.42,92.86,206.42z"/>
	<path d="M102.63,206.42c-2.06,0-3.73,1.67-3.73,3.73v0c0,2.06,1.67,3.73,3.73,3.73s3.73-1.67,3.73-3.73v0
		C106.37,208.09,104.7,206.42,102.63,206.42z"/>
	<path d="M122.18,206.42c-2.06,0-3.73,1.67-3.73,3.73v0c0,2.06,1.67,3.73,3.73,3.73c2.06,0,3.73-1.67,3.73-3.73v0
		C125.92,208.09,124.24,206.42,122.18,206.42z"/>
	<path d="M131.96,206.42c-2.06,0-3.73,1.67-3.73,3.73v0c0,2.06,1.67,3.73,3.73,3.73s3.73-1.67,3.73-3.73v0
		C135.69,208.09,134.02,206.42,131.96,206.42z"/>
	<path d="M180.83,206.42L180.83,206.42c-2.06,0-3.73,1.67-3.73,3.73v0c0,2.06,1.67,3.73,3.73,3.73h0c2.06,0,3.73-1.67,3.73-3.73v0
		C184.56,208.09,182.89,206.42,180.83,206.42z"/>
	<path d="M249.25,206.42L249.25,206.42c-2.06,0-3.73,1.67-3.73,3.73v0c0,2.06,1.67,3.73,3.73,3.73h0c2.06,0,3.73-1.67,3.73-3.73v0
		C252.99,208.09,251.32,206.42,249.25,206.42z"/>
	<path d="M259.03,206.42L259.03,206.42c-2.06,0-3.73,1.67-3.73,3.73v0c0,2.06,1.67,3.73,3.73,3.73h0c2.06,0,3.73-1.67,3.73-3.73v0
		C262.76,208.09,261.09,206.42,259.03,206.42z"/>
	<path d="M268.8,206.42L268.8,206.42c-2.06,0-3.73,1.67-3.73,3.73v0c0,2.06,1.67,3.73,3.73,3.73h0c2.06,0,3.73-1.67,3.73-3.73v0
		C272.54,208.09,270.86,206.42,268.8,206.42z"/>
	<path d="M278.58,206.42L278.58,206.42c-2.06,0-3.73,1.67-3.73,3.73v0c0,2.06,1.67,3.73,3.73,3.73h0c2.06,0,3.73-1.67,3.73-3.73v0
		C282.31,208.09,280.64,206.42,278.58,206.42z"/>
	<path d="M83.08,216.2c-2.06,0-3.73,1.67-3.73,3.73v0c0,2.06,1.67,3.73,3.73,3.73s3.73-1.67,3.73-3.73v0
		C86.82,217.87,85.15,216.2,83.08,216.2z"/>
	<path d="M151.51,216.2L151.51,216.2c-2.06,0-3.73,1.67-3.73,3.73v0c0,2.06,1.67,3.73,3.73,3.73h0c2.06,0,3.73-1.67,3.73-3.73v0
		C155.24,217.87,153.57,216.2,151.51,216.2z"/>
	<path d="M161.28,216.2L161.28,216.2c-2.06,0-3.73,1.67-3.73,3.73v0c0,2.06,1.67,3.73,3.73,3.73h0c2.06,0,3.73-1.67,3.73-3.73v0
		C165.01,217.87,163.34,216.2,161.28,216.2z"/>
	<path d="M171.06,216.2L171.06,216.2c-2.06,0-3.73,1.67-3.73,3.73v0c0,2.06,1.67,3.73,3.73,3.73h0c2.06,0,3.73-1.67,3.73-3.73v0
		C174.79,217.87,173.12,216.2,171.06,216.2z"/>
	<path d="M180.83,216.2L180.83,216.2c-2.06,0-3.73,1.67-3.73,3.73v0c0,2.06,1.67,3.73,3.73,3.73h0c2.06,0,3.73-1.67,3.73-3.73v0
		C184.56,217.87,182.89,216.2,180.83,216.2z"/>
	<path d="M190.61,216.2L190.61,216.2c-2.06,0-3.73,1.67-3.73,3.73v0c0,2.06,1.67,3.73,3.73,3.73h0c2.06,0,3.73-1.67,3.73-3.73v0
		C194.34,217.87,192.67,216.2,190.61,216.2z"/>
	<path d="M249.25,216.2L249.25,216.2c-2.06,0-3.73,1.67-3.73,3.73v0c0,2.06,1.67,3.73,3.73,3.73h0c2.06,0,3.73-1.67,3.73-3.73v0
		C252.99,217.87,251.32,216.2,249.25,216.2z"/>
	<path d="M259.03,216.2L259.03,216.2c-2.06,0-3.73,1.67-3.73,3.73v0c0,2.06,1.67,3.73,3.73,3.73h0c2.06,0,3.73-1.67,3.73-3.73v0
		C262.76,217.87,261.09,216.2,259.03,216.2z"/>
	<path d="M92.86,225.97c-2.06,0-3.73,1.67-3.73,3.73v0c0,2.06,1.67,3.73,3.73,3.73c2.06,0,3.73-1.67,3.73-3.73v0
		C96.59,227.64,94.92,225.97,92.86,225.97z"/>
	<path d="M122.18,225.97c-2.06,0-3.73,1.67-3.73,3.73v0c0,2.06,1.67,3.73,3.73,3.73c2.06,0,3.73-1.67,3.73-3.73v0
		C125.92,227.64,124.24,225.97,122.18,225.97z"/>
	<path d="M151.51,225.97L151.51,225.97c-2.06,0-3.73,1.67-3.73,3.73v0c0,2.06,1.67,3.73,3.73,3.73h0c2.06,0,3.73-1.67,3.73-3.73v0
		C155.24,227.64,153.57,225.97,151.51,225.97z"/>
	<path d="M161.28,225.97L161.28,225.97c-2.06,0-3.73,1.67-3.73,3.73v0c0,2.06,1.67,3.73,3.73,3.73h0c2.06,0,3.73-1.67,3.73-3.73v0
		C165.01,227.64,163.34,225.97,161.28,225.97z"/>
	<path d="M190.61,225.97L190.61,225.97c-2.06,0-3.73,1.67-3.73,3.73v0c0,2.06,1.67,3.73,3.73,3.73h0c2.06,0,3.73-1.67,3.73-3.73v0
		C194.34,227.64,192.67,225.97,190.61,225.97z"/>
	<path d="M249.25,225.97L249.25,225.97c-2.06,0-3.73,1.67-3.73,3.73v0c0,2.06,1.67,3.73,3.73,3.73h0c2.06,0,3.73-1.67,3.73-3.73v0
		C252.99,227.64,251.32,225.97,249.25,225.97z"/>
	<path d="M278.58,225.97L278.58,225.97c-2.06,0-3.73,1.67-3.73,3.73v0c0,2.06,1.67,3.73,3.73,3.73h0c2.06,0,3.73-1.67,3.73-3.73v0
		C282.31,227.64,280.64,225.97,278.58,225.97z"/>
	<path d="M83.08,235.75c-2.06,0-3.73,1.67-3.73,3.73v0c0,2.06,1.67,3.73,3.73,3.73s3.73-1.67,3.73-3.73v0
		C86.82,237.42,85.15,235.75,83.08,235.75z"/>
	<path d="M92.86,235.75c-2.06,0-3.73,1.67-3.73,3.73v0c0,2.06,1.67,3.73,3.73,3.73c2.06,0,3.73-1.67,3.73-3.73v0
		C96.59,237.42,94.92,235.75,92.86,235.75z"/>
	<path d="M122.18,235.75c-2.06,0-3.73,1.67-3.73,3.73v0c0,2.06,1.67,3.73,3.73,3.73c2.06,0,3.73-1.67,3.73-3.73v0
		C125.92,237.42,124.24,235.75,122.18,235.75z"/>
	<path d="M141.73,235.75L141.73,235.75c-2.06,0-3.73,1.67-3.73,3.73v0c0,2.06,1.67,3.73,3.73,3.73h0c2.06,0,3.73-1.67,3.73-3.73v0
		C145.47,237.42,143.79,235.75,141.73,235.75z"/>
	<path d="M151.51,235.75L151.51,235.75c-2.06,0-3.73,1.67-3.73,3.73v0c0,2.06,1.67,3.73,3.73,3.73h0c2.06,0,3.73-1.67,3.73-3.73v0
		C155.24,237.42,153.57,235.75,151.51,235.75z"/>
	<path d="M249.25,235.75L249.25,235.75c-2.06,0-3.73,1.67-3.73,3.73v0c0,2.06,1.67,3.73,3.73,3.73h0c2.06,0,3.73-1.67,3.73-3.73v0
		C252.99,237.42,251.32,235.75,249.25,235.75z"/>
	<path d="M259.03,235.75L259.03,235.75c-2.06,0-3.73,1.67-3.73,3.73v0c0,2.06,1.67,3.73,3.73,3.73h0c2.06,0,3.73-1.67,3.73-3.73v0
		C262.76,237.42,261.09,235.75,259.03,235.75z"/>
	<path d="M268.8,235.75L268.8,235.75c-2.06,0-3.73,1.67-3.73,3.73v0c0,2.06,1.67,3.73,3.73,3.73h0c2.06,0,3.73-1.67,3.73-3.73v0
		C272.54,237.42,270.86,235.75,268.8,235.75z"/>
	<path d="M278.58,235.75L278.58,235.75c-2.06,0-3.73,1.67-3.73,3.73v0c0,2.06,1.67,3.73,3.73,3.73h0c2.06,0,3.73-1.67,3.73-3.73v0
		C282.31,237.42,280.64,235.75,278.58,235.75z"/>
	<path d="M83.08,245.52c-2.06,0-3.73,1.67-3.73,3.73v0c0,2.06,1.67,3.73,3.73,3.73s3.73-1.67,3.73-3.73v0
		C86.82,247.19,85.15,245.52,83.08,245.52z"/>
	<path d="M92.86,245.52c-2.06,0-3.73,1.67-3.73,3.73v0c0,2.06,1.67,3.73,3.73,3.73c2.06,0,3.73-1.67,3.73-3.73v0
		C96.59,247.19,94.92,245.52,92.86,245.52z"/>
	<path d="M131.96,245.52c-2.06,0-3.73,1.67-3.73,3.73v0c0,2.06,1.67,3.73,3.73,3.73s3.73-1.67,3.73-3.73v0
		C135.69,247.19,134.02,245.52,131.96,245.52z"/>
	<path d="M151.51,245.52L151.51,245.52c-2.06,0-3.73,1.67-3.73,3.73v0c0,2.06,1.67,3.73,3.73,3.73h0c2.06,0,3.73-1.67,3.73-3.73v0
		C155.24,247.19,153.57,245.52,151.51,245.52z"/>
	<path d="M161.28,245.52L161.28,245.52c-2.06,0-3.73,1.67-3.73,3.73v0c0,2.06,1.67,3.73,3.73,3.73h0c2.06,0,3.73-1.67,3.73-3.73v0
		C165.01,247.19,163.34,245.52,161.28,245.52z"/>
	<path d="M171.06,245.52L171.06,245.52c-2.06,0-3.73,1.67-3.73,3.73v0c0,2.06,1.67,3.73,3.73,3.73h0c2.06,0,3.73-1.67,3.73-3.73v0
		C174.79,247.19,173.12,245.52,171.06,245.52z"/>
	<path d="M200.38,245.52L200.38,245.52c-2.06,0-3.73,1.67-3.73,3.73v0c0,2.06,1.67,3.73,3.73,3.73h0c2.06,0,3.73-1.67,3.73-3.73v0
		C204.11,247.19,202.44,245.52,200.38,245.52z"/>
	<path d="M249.25,245.52L249.25,245.52c-2.06,0-3.73,1.67-3.73,3.73v0c0,2.06,1.67,3.73,3.73,3.73h0c2.06,0,3.73-1.67,3.73-3.73v0
		C252.99,247.19,251.32,245.52,249.25,245.52z"/>
	<path d="M268.8,245.52L268.8,245.52c-2.06,0-3.73,1.67-3.73,3.73v0c0,2.06,1.67,3.73,3.73,3.73h0c2.06,0,3.73-1.67,3.73-3.73v0
		C272.54,247.19,270.86,245.52,268.8,245.52z"/>
	<path d="M278.58,245.52L278.58,245.52c-2.06,0-3.73,1.67-3.73,3.73v0c0,2.06,1.67,3.73,3.73,3.73h0c2.06,0,3.73-1.67,3.73-3.73v0
		C282.31,247.19,280.64,245.52,278.58,245.52z"/>
	<path d="M83.08,255.29c-2.06,0-3.73,1.67-3.73,3.73v0c0,2.06,1.67,3.73,3.73,3.73s3.73-1.67,3.73-3.73v0
		C86.82,256.97,85.15,255.29,83.08,255.29z"/>
	<path d="M112.41,255.29c-2.06,0-3.73,1.67-3.73,3.73v0c0,2.06,1.67,3.73,3.73,3.73s3.73-1.67,3.73-3.73v0
		C116.14,256.97,114.47,255.29,112.41,255.29z"/>
	<path d="M122.18,255.29c-2.06,0-3.73,1.67-3.73,3.73v0c0,2.06,1.67,3.73,3.73,3.73c2.06,0,3.73-1.67,3.73-3.73v0
		C125.92,256.97,124.24,255.29,122.18,255.29z"/>
	<path d="M151.51,255.29L151.51,255.29c-2.06,0-3.73,1.67-3.73,3.73v0c0,2.06,1.67,3.73,3.73,3.73h0c2.06,0,3.73-1.67,3.73-3.73v0
		C155.24,256.97,153.57,255.29,151.51,255.29z"/>
	<path d="M180.83,255.29L180.83,255.29c-2.06,0-3.73,1.67-3.73,3.73v0c0,2.06,1.67,3.73,3.73,3.73h0c2.06,0,3.73-1.67,3.73-3.73v0
		C184.56,256.97,182.89,255.29,180.83,255.29z"/>
	<path d="M190.61,255.29L190.61,255.29c-2.06,0-3.73,1.67-3.73,3.73v0c0,2.06,1.67,3.73,3.73,3.73h0c2.06,0,3.73-1.67,3.73-3.73v0
		C194.34,256.97,192.67,255.29,190.61,255.29z"/>
	<path d="M200.38,255.29L200.38,255.29c-2.06,0-3.73,1.67-3.73,3.73v0c0,2.06,1.67,3.73,3.73,3.73h0c2.06,0,3.73-1.67,3.73-3.73v0
		C204.11,256.97,202.44,255.29,200.38,255.29z"/>
	<path d="M219.93,255.29L219.93,255.29c-2.06,0-3.73,1.67-3.73,3.73v0c0,2.06,1.67,3.73,3.73,3.73h0c2.06,0,3.73-1.67,3.73-3.73v0
		C223.66,256.97,221.99,255.29,219.93,255.29z"/>
	<path d="M229.7,255.29L229.7,255.29c-2.06,0-3.73,1.67-3.73,3.73v0c0,2.06,1.67,3.73,3.73,3.73h0c2.06,0,3.73-1.67,3.73-3.73v0
		C233.44,256.97,231.77,255.29,229.7,255.29z"/>
	<path d="M239.48,255.29L239.48,255.29c-2.06,0-3.73,1.67-3.73,3.73v0c0,2.06,1.67,3.73,3.73,3.73h0c2.06,0,3.73-1.67,3.73-3.73v0
		C243.21,256.97,241.54,255.29,239.48,255.29z"/>
	<path d="M249.25,255.29L249.25,255.29c-2.06,0-3.73,1.67-3.73,3.73v0c0,2.06,1.67,3.73,3.73,3.73h0c2.06,0,3.73-1.67,3.73-3.73v0
		C252.99,256.97,251.32,255.29,249.25,255.29z"/>
	<path d="M259.03,255.29L259.03,255.29c-2.06,0-3.73,1.67-3.73,3.73v0c0,2.06,1.67,3.73,3.73,3.73h0c2.06,0,3.73-1.67,3.73-3.73v0
		C262.76,256.97,261.09,255.29,259.03,255.29z"/>
	<path d="M268.8,255.29L268.8,255.29c-2.06,0-3.73,1.67-3.73,3.73v0c0,2.06,1.67,3.73,3.73,3.73h0c2.06,0,3.73-1.67,3.73-3.73v0
		C272.54,256.97,270.86,255.29,268.8,255.29z"/>
	<path d="M83.08,265.07c-2.06,0-3.73,1.67-3.73,3.73v0c0,2.06,1.67,3.73,3.73,3.73s3.73-1.67,3.73-3.73v0
		C86.82,266.74,85.15,265.07,83.08,265.07z"/>
	<path d="M92.86,265.07c-2.06,0-3.73,1.67-3.73,3.73v0c0,2.06,1.67,3.73,3.73,3.73c2.06,0,3.73-1.67,3.73-3.73v0
		C96.59,266.74,94.92,265.07,92.86,265.07z"/>
	<path d="M102.63,265.07c-2.06,0-3.73,1.67-3.73,3.73v0c0,2.06,1.67,3.73,3.73,3.73s3.73-1.67,3.73-3.73v0
		C106.37,266.74,104.7,265.07,102.63,265.07z"/>
	<path d="M112.41,265.07c-2.06,0-3.73,1.67-3.73,3.73v0c0,2.06,1.67,3.73,3.73,3.73s3.73-1.67,3.73-3.73v0
		C116.14,266.74,114.47,265.07,112.41,265.07z"/>
	<path d="M161.28,265.07L161.28,265.07c-2.06,0-3.73,1.67-3.73,3.73v0c0,2.06,1.67,3.73,3.73,3.73h0c2.06,0,3.73-1.67,3.73-3.73v0
		C165.01,266.74,163.34,265.07,161.28,265.07z"/>
	<path d="M200.38,265.07L200.38,265.07c-2.06,0-3.73,1.67-3.73,3.73v0c0,2.06,1.67,3.73,3.73,3.73h0c2.06,0,3.73-1.67,3.73-3.73v0
		C204.11,266.74,202.44,265.07,200.38,265.07z"/>
	<path d="M210.15,265.07L210.15,265.07c-2.06,0-3.73,1.67-3.73,3.73v0c0,2.06,1.67,3.73,3.73,3.73h0c2.06,0,3.73-1.67,3.73-3.73v0
		C213.89,266.74,212.22,265.07,210.15,265.07z"/>
	<path d="M229.7,265.07L229.7,265.07c-2.06,0-3.73,1.67-3.73,3.73v0c0,2.06,1.67,3.73,3.73,3.73h0c2.06,0,3.73-1.67,3.73-3.73v0
		C233.44,266.74,231.77,265.07,229.7,265.07z"/>
	<path d="M239.48,265.07L239.48,265.07c-2.06,0-3.73,1.67-3.73,3.73v0c0,2.06,1.67,3.73,3.73,3.73h0c2.06,0,3.73-1.67,3.73-3.73v0
		C243.21,266.74,241.54,265.07,239.48,265.07z"/>
	<path d="M249.25,265.07L249.25,265.07c-2.06,0-3.73,1.67-3.73,3.73v0c0,2.06,1.67,3.73,3.73,3.73h0c2.06,0,3.73-1.67,3.73-3.73v0
		C252.99,266.74,251.32,265.07,249.25,265.07z"/>
	<path d="M268.8,265.07L268.8,265.07c-2.06,0-3.73,1.67-3.73,3.73v0c0,2.06,1.67,3.73,3.73,3.73h0c2.06,0,3.73-1.67,3.73-3.73v0
		C272.54,266.74,270.86,265.07,268.8,265.07z"/>
	<path d="M83.08,274.84c-2.06,0-3.73,1.67-3.73,3.73v0c0,2.06,1.67,3.73,3.73,3.73s3.73-1.67,3.73-3.73v0
		C86.82,276.52,85.15,274.84,83.08,274.84z"/>
	<path d="M92.86,274.84c-2.06,0-3.73,1.67-3.73,3.73v0c0,2.06,1.67,3.73,3.73,3.73c2.06,0,3.73-1.67,3.73-3.73v0
		C96.59,276.52,94.92,274.84,92.86,274.84z"/>
	<path d="M112.41,274.84c-2.06,0-3.73,1.67-3.73,3.73v0c0,2.06,1.67,3.73,3.73,3.73s3.73-1.67,3.73-3.73v0
		C116.14,276.52,114.47,274.84,112.41,274.84z"/>
	<path d="M122.18,274.84c-2.06,0-3.73,1.67-3.73,3.73v0c0,2.06,1.67,3.73,3.73,3.73c2.06,0,3.73-1.67,3.73-3.73v0
		C125.92,276.52,124.24,274.84,122.18,274.84z"/>
	<path d="M171.06,274.84L171.06,274.84c-2.06,0-3.73,1.67-3.73,3.73v0c0,2.06,1.67,3.73,3.73,3.73h0c2.06,0,3.73-1.67,3.73-3.73v0
		C174.79,276.52,173.12,274.84,171.06,274.84z"/>
	<path d="M229.7,274.84L229.7,274.84c-2.06,0-3.73,1.67-3.73,3.73v0c0,2.06,1.67,3.73,3.73,3.73h0c2.06,0,3.73-1.67,3.73-3.73v0
		C233.44,276.52,231.77,274.84,229.7,274.84z"/>
	<path d="M239.48,274.84L239.48,274.84c-2.06,0-3.73,1.67-3.73,3.73v0c0,2.06,1.67,3.73,3.73,3.73h0c2.06,0,3.73-1.67,3.73-3.73v0
		C243.21,276.52,241.54,274.84,239.48,274.84z"/>
	<path d="M259.03,274.84L259.03,274.84c-2.06,0-3.73,1.67-3.73,3.73v0c0,2.06,1.67,3.73,3.73,3.73h0c2.06,0,3.73-1.67,3.73-3.73v0
		C262.76,276.52,261.09,274.84,259.03,274.84z"/>
	<path d="M34.21,0L34.21,0C15.32,0,0,15.32,0,34.21v0c0,18.89,15.32,34.21,34.21,34.21h0c18.89,0,34.21-15.32,34.21-34.21v0
		C68.42,15.32,53.11,0,34.21,0z M34.21,58.65c-13.5,0-24.44-10.94-24.44-24.44S20.72,9.77,34.21,9.77s24.44,10.94,24.44,24.44
		S47.71,58.65,34.21,58.65z"/>
	<circle cx="34.21" cy="34.21" r="14.66"/>
	<path d="M249.25,0L249.25,0c-18.89,0-34.21,15.32-34.21,34.21v0c0,18.89,15.32,34.21,34.21,34.21h0
		c18.89,0,34.21-15.32,34.21-34.21v0C283.46,15.32,268.15,0,249.25,0z M249.25,58.65c-13.5,0-24.44-10.94-24.44-24.44
		s10.94-24.44,24.44-24.44c13.5,0,24.44,10.94,24.44,24.44S262.75,58.65,249.25,58.65z"/>
	<circle cx="249.25" cy="34.21" r="14.66"/>
	<path d="M219.93,198.37c-11.91,0-21.56,9.65-21.56,21.56c0,11.91,9.65,21.56,21.56,21.56c11.91,0,21.56-9.65,21.56-21.56
		C241.49,208.02,231.84,198.37,219.93,198.37z M219.93,234.59c-8.1,0-14.66-6.56-14.66-14.66c0-8.1,6.56-14.66,14.66-14.66
		c8.1,0,14.66,6.56,14.66,14.66C234.59,228.03,228.03,234.59,219.93,234.59z"/>
	<circle cx="219.93" cy="219.93" r="4.89"/>
	<path d="M34.21,215.04L34.21,215.04C15.32,215.04,0,230.36,0,249.25v0c0,18.89,15.32,34.21,34.21,34.21h0
		c18.89,0,34.21-15.32,34.21-34.21v0C68.42,230.36,53.11,215.04,34.21,215.04z M34.21,273.69c-13.5,0-24.44-10.94-24.44-24.44
		c0-13.5,10.94-24.44,24.44-24.44s24.44,10.94,24.44,24.44C58.65,262.75,47.71,273.69,34.21,273.69z"/>
	<circle cx="34.21" cy="249.25" r="14.66"/>
	<path d="M173.27,149.08c0-4.43-1.89-8.28-5.68-11.55c-3.78-3.27-8.2-4.9-13.24-4.9c-5.35,0-9.86,1.62-13.53,4.84
		c-3.67,3.23-5.5,7.12-5.5,11.67c0,4.55,1.83,8.44,5.5,11.67c3.67,3.23,8.18,4.84,13.53,4.84c1.38,0,3.59-0.39,6.65-1.17l6.19,3.38
		l-1.72-5.6C170.66,158.22,173.27,153.83,173.27,149.08z M150.56,145.06c-0.23,0.35-0.56,0.64-0.97,0.88
		c-0.42,0.23-0.9,0.35-1.43,0.35c-0.31,0-0.59-0.06-0.86-0.17c-0.27-0.12-0.5-0.29-0.69-0.53c-0.19-0.23-0.34-0.48-0.46-0.76
		c-0.11-0.27-0.17-0.56-0.17-0.88c0-0.54,0.23-1.05,0.69-1.52c0.46-0.47,0.95-0.7,1.49-0.7c0.38,0,0.76,0.06,1.15,0.18
		c0.38,0.12,0.69,0.29,0.92,0.53s0.4,0.49,0.52,0.76c0.11,0.27,0.17,0.53,0.17,0.76C150.91,144.34,150.79,144.71,150.56,145.06z
		 M162.83,145.06c-0.23,0.35-0.56,0.64-0.97,0.88c-0.42,0.23-0.9,0.35-1.43,0.35c-0.54,0-1.03-0.23-1.49-0.7
		c-0.46-0.47-0.69-0.99-0.69-1.58c0-0.58,0.23-1.11,0.69-1.58c0.46-0.47,0.95-0.7,1.49-0.7c0.76,0,1.41,0.23,1.95,0.7
		c0.53,0.47,0.8,0.97,0.8,1.52C163.17,144.34,163.06,144.71,162.83,145.06z"/>
	<path d="M124.76,153.17c3.74,0.7,6.34,1.05,7.8,1.05c0.61,0,1.3-0.04,2.06-0.12c-0.46-1.55-0.69-3.11-0.69-4.67
		c0-4.98,1.83-9.22,5.5-12.72c3.67-3.5,8.14-5.25,13.42-5.25c0.76,0,1.49,0.04,2.18,0.12c-0.92-4.59-3.54-8.4-7.85-11.43
		c-4.32-3.03-9.19-4.55-14.62-4.55c-6.19,0-11.47,1.87-15.82,5.6c-4.36,3.73-6.54,8.28-6.54,13.65c0,5.99,2.98,11.12,8.94,15.4
		l-2.18,6.88L124.76,153.17z M138.52,126.04c0.69-0.5,1.49-0.76,2.41-0.76c0.84,0,1.51,0.26,2.01,0.76
		c0.49,0.51,0.75,1.19,0.75,2.04c0,0.86-0.25,1.54-0.75,2.04c-0.5,0.51-1.17,0.76-2.01,0.76c-0.92,0-1.72-0.25-2.41-0.76
		c-0.69-0.5-1.03-1.19-1.03-2.04C137.49,127.23,137.83,126.55,138.52,126.04z M122.93,126.04c0.69-0.5,1.45-0.76,2.29-0.76
		c0.84,0,1.53,0.26,2.06,0.76c0.53,0.51,0.8,1.19,0.8,2.04c0,0.86-0.27,1.54-0.8,2.04c-0.54,0.51-1.23,0.76-2.06,0.76
		c-0.84,0-1.61-0.25-2.29-0.76c-0.69-0.5-1.03-1.19-1.03-2.04C121.9,127.23,122.24,126.55,122.93,126.04z"/>
</g>
</svg>
