<?xml version="1.0" encoding="utf-8"?>
<!-- Generator: Adobe Illustrator 23.0.3, SVG Export Plug-In . SVG Version: 6.00 Build 0)  -->
<svg version="1.1" id="图层_1" xmlns="http://www.w3.org/2000/svg" xmlns:xlink="http://www.w3.org/1999/xlink" x="0px" y="0px"
	 viewBox="0 0 24 24" style="enable-background:new 0 0 24 24;" xml:space="preserve">
<title>weibo</title>
<desc>Created with Sketch.</desc>
<g>
	<path d="M22.5,5.7c-0.5-1.3-1.4-2.2-2.6-2.8c-1.2-0.7-2.6-0.9-4-0.6c-0.3,0.1-0.6,0.3-0.6,0.6s0,0.6,0.2,0.8
		C15.7,3.9,16,4,16.3,3.9c1-0.2,1.9-0.1,2.8,0.4C20,4.8,20.6,5.5,21,6.4c0.4,0.9,0.4,1.9,0.1,2.8c-0.1,0.3-0.1,0.6,0.2,0.8
		c0.2,0.2,0.5,0.3,0.8,0.3s0.5-0.2,0.6-0.6C23.2,8.4,23.1,7,22.5,5.7z"/>
	<path d="M18.6,9.1c0.2,0.2,0.4,0.3,0.7,0.2c0.3,0,0.5-0.2,0.5-0.5c0.2-0.7,0.2-1.3-0.1-1.9c-0.3-0.6-0.7-1.1-1.3-1.4
		c-0.6-0.3-1.2-0.4-2-0.3c-0.3,0.1-0.5,0.2-0.5,0.5c-0.1,0.3,0,0.5,0.2,0.7c0.2,0.2,0.4,0.3,0.7,0.2c0.5-0.1,1,0,1.3,0.4
		c0.4,0.4,0.5,0.9,0.3,1.4C18.4,8.7,18.5,8.9,18.6,9.1z"/>
	<path d="M10.6,11.8c-0.9-0.2-1.8-0.2-2.6,0.2c-0.9,0.4-1.5,0.9-1.8,1.7c-0.4,0.8-0.4,1.5-0.1,2.3c0.3,0.8,0.9,1.3,1.8,1.6
		c0.9,0.3,1.8,0.2,2.7-0.2c0.9-0.4,1.6-1,1.9-1.8c0.4-0.8,0.4-1.6,0-2.3S11.5,12.1,10.6,11.8z M9.3,15.8c-0.2,0.3-0.4,0.5-0.8,0.6
		c-0.3,0.1-0.6,0.1-0.9,0c-0.3-0.1-0.5-0.4-0.5-0.6c-0.1-0.3,0-0.5,0.2-0.8c0.2-0.3,0.4-0.5,0.7-0.6c0.3-0.1,0.6-0.1,0.9,0
		c0.3,0.1,0.5,0.3,0.6,0.6C9.5,15.2,9.5,15.5,9.3,15.8z M10.5,14.3c-0.1,0.1-0.2,0.2-0.3,0.2c-0.1,0.1-0.3,0.1-0.4,0
		c-0.1-0.1-0.2-0.1-0.2-0.2c0-0.1,0-0.2,0.1-0.3c0.1-0.1,0.2-0.2,0.3-0.2c0.1-0.1,0.2-0.1,0.3,0c0.1,0,0.2,0.1,0.2,0.2
		C10.5,14.1,10.5,14.2,10.5,14.3z"/>
	<path d="M17.5,10.7c-0.2-0.1-0.3-0.1-0.4-0.2c-0.1-0.1-0.1-0.2,0-0.4c0.4-0.9,0.4-1.7,0-2.2c-0.4-0.5-1-0.8-1.9-0.8
		c-0.9,0-1.9,0.2-3.1,0.7h0c-0.4,0.1-0.6,0.1-0.5-0.3c0.3-1,0.3-1.8,0-2.3c-0.3-0.5-0.9-0.8-1.7-0.8c-0.8,0-1.7,0.3-2.6,0.8
		C6.4,6.1,5.3,6.9,4.3,7.9S2.4,10,1.9,11.1c-0.6,1.1-0.9,2.1-0.9,3c0,1.2,0.5,2.2,1.4,3.1c0.9,0.9,2,1.5,3.4,2
		c1.4,0.5,2.9,0.7,4.4,0.7c2.1,0,4-0.4,5.7-1.2c1.5-0.7,2.7-1.6,3.4-2.7c0.8-1.1,1-2.1,0.7-3.1C19.8,11.9,18.9,11.1,17.5,10.7z
		 M15.7,15.9c-0.5,0.7-1.3,1.3-2.2,1.8c-1,0.5-2.1,0.8-3.3,0.9c-1.2,0.1-2.3,0-3.4-0.3c-1-0.3-1.9-0.7-2.6-1.3s-1-1.3-1.1-2.1
		c-0.1-0.8,0.2-1.5,0.7-2.3c0.5-0.7,1.3-1.3,2.2-1.8c1-0.5,2-0.8,3.2-0.9c1.2-0.1,2.3,0,3.4,0.3c1,0.3,1.9,0.7,2.6,1.3
		c0.7,0.6,1,1.3,1.1,2.1C16.5,14.4,16.3,15.2,15.7,15.9z"/>
</g>
</svg>
